<?xml version="1.0" encoding="UTF-8" standalone="no"?>
<!-- Created with Inkscape (http://www.inkscape.org/) -->

<svg
   width="2048"
   height="2048"
   viewBox="0 0 2048 2048"
   version="1.1"
   id="svg1"
   sodipodi:docname="Moon.svg"
   inkscape:version="1.3.2 (091e20e, 2023-11-25, custom)"
   inkscape:export-filename="MoonShadow_011.png"
   inkscape:export-xdpi="96"
   inkscape:export-ydpi="96"
   xmlns:inkscape="http://www.inkscape.org/namespaces/inkscape"
   xmlns:sodipodi="http://sodipodi.sourceforge.net/DTD/sodipodi-0.dtd"
   xmlns="http://www.w3.org/2000/svg"
   xmlns:svg="http://www.w3.org/2000/svg">
  <sodipodi:namedview
     id="namedview1"
     pagecolor="#505050"
     bordercolor="#ffffff"
     borderopacity="1"
     inkscape:showpageshadow="0"
     inkscape:pageopacity="0"
     inkscape:pagecheckerboard="1"
     inkscape:deskcolor="#505050"
     inkscape:document-units="mm"
     inkscape:zoom="0.27706059"
     inkscape:cx="671.33331"
     inkscape:cy="1084.6003"
     inkscape:window-width="1920"
     inkscape:window-height="1009"
     inkscape:window-x="-8"
     inkscape:window-y="-8"
     inkscape:window-maximized="1"
     inkscape:current-layer="layer1" />
  <defs
     id="defs1">
    <clipPath
       clipPathUnits="userSpaceOnUse"
       id="clipPath10">
      <path
         d="M 0,841.89 H 1190.55 V 0 H 0 Z"
         transform="translate(-578.63092,-201.56541)"
         id="path10" />
    </clipPath>
    <clipPath
       clipPathUnits="userSpaceOnUse"
       id="clipPath20">
      <path
         d="M 0,841.89 H 1190.55 V 0 H 0 Z"
         transform="translate(-497.37501,-105.27441)"
         id="path20" />
    </clipPath>
    <clipPath
       clipPathUnits="userSpaceOnUse"
       id="clipPath22">
      <path
         d="M 0,841.89 H 1190.55 V 0 H 0 Z"
         transform="translate(-522.05321,-128.584)"
         id="path22" />
    </clipPath>
    <clipPath
       clipPathUnits="userSpaceOnUse"
       id="clipPath28">
      <path
         d="M 0,841.89 H 1190.55 V 0 H 0 Z"
         transform="translate(-608.51951,-238.7803)"
         id="path28" />
    </clipPath>
    <clipPath
       clipPathUnits="userSpaceOnUse"
       id="clipPath30">
      <path
         d="M 0,841.89 H 1190.55 V 0 H 0 Z"
         transform="translate(-623.55862,-263.94531)"
         id="path30" />
    </clipPath>
    <clipPath
       clipPathUnits="userSpaceOnUse"
       id="clipPath32">
      <path
         d="M 0,841.89 H 1190.55 V 0 H 0 Z"
         transform="translate(-631.58402,-293.2852)"
         id="path32" />
    </clipPath>
    <clipPath
       clipPathUnits="userSpaceOnUse"
       id="clipPath74">
      <path
         d="M 0,841.89 H 1190.55 V 0 H 0 Z"
         transform="translate(-554.17291,-148.5234)"
         id="path74" />
    </clipPath>
    <clipPath
       clipPathUnits="userSpaceOnUse"
       id="clipPath228">
      <path
         d="M 0,841.89 H 1190.55 V 0 H 0 Z"
         transform="translate(-755.42484,-263.62501)"
         id="path228" />
    </clipPath>
    <clipPath
       clipPathUnits="userSpaceOnUse"
       id="clipPath230">
      <path
         d="M 0,841.89 H 1190.55 V 0 H 0 Z"
         transform="translate(-679.30472,-300.75981)"
         id="path230" />
    </clipPath>
    <clipPath
       clipPathUnits="userSpaceOnUse"
       id="clipPath232">
      <path
         d="M 0,841.89 H 1190.55 V 0 H 0 Z"
         transform="translate(-606.51562,-307.29201)"
         id="path232" />
    </clipPath>
    <clipPath
       clipPathUnits="userSpaceOnUse"
       id="clipPath234">
      <path
         d="M 0,841.89 H 1190.55 V 0 H 0 Z"
         transform="translate(-679.25591,-340.10351)"
         id="path234" />
    </clipPath>
    <clipPath
       clipPathUnits="userSpaceOnUse"
       id="clipPath236">
      <path
         d="M 0,841.89 H 1190.55 V 0 H 0 Z"
         transform="translate(-676.23832,-391.88091)"
         id="path236" />
    </clipPath>
    <clipPath
       clipPathUnits="userSpaceOnUse"
       id="clipPath238">
      <path
         d="M 0,841.89 H 1190.55 V 0 H 0 Z"
         transform="translate(-674.92682,-365.31351)"
         id="path238" />
    </clipPath>
    <clipPath
       clipPathUnits="userSpaceOnUse"
       id="clipPath240">
      <path
         d="M 0,841.89 H 1190.55 V 0 H 0 Z"
         transform="translate(-615.06352,-332.77931)"
         id="path240" />
    </clipPath>
    <clipPath
       clipPathUnits="userSpaceOnUse"
       id="clipPath242">
      <path
         d="M 0,841.89 H 1190.55 V 0 H 0 Z"
         transform="translate(-427.47951,-265.873)"
         id="path242" />
    </clipPath>
    <clipPath
       clipPathUnits="userSpaceOnUse"
       id="clipPath244">
      <path
         d="M 0,841.89 H 1190.55 V 0 H 0 Z"
         transform="translate(-423.23631,-293.5996)"
         id="path244" />
    </clipPath>
    <clipPath
       clipPathUnits="userSpaceOnUse"
       id="clipPath246">
      <path
         d="M 0,841.89 H 1190.55 V 0 H 0 Z"
         transform="translate(-416.86131,-282.5254)"
         id="path246" />
    </clipPath>
    <clipPath
       clipPathUnits="userSpaceOnUse"
       id="clipPath248">
      <path
         d="M 0,841.89 H 1190.55 V 0 H 0 Z"
         transform="translate(-383.92481,-264.1357)"
         id="path248" />
    </clipPath>
    <clipPath
       clipPathUnits="userSpaceOnUse"
       id="clipPath250">
      <path
         d="M 0,841.89 H 1190.55 V 0 H 0 Z"
         transform="translate(-511.60552,-162.15921)"
         id="path250" />
    </clipPath>
    <clipPath
       clipPathUnits="userSpaceOnUse"
       id="clipPath252">
      <path
         d="M 0,841.89 H 1190.55 V 0 H 0 Z"
         transform="translate(-567.89111,-180.8037)"
         id="path252" />
    </clipPath>
    <clipPath
       clipPathUnits="userSpaceOnUse"
       id="clipPath254">
      <path
         d="M 0,841.89 H 1190.55 V 0 H 0 Z"
         transform="translate(-574.11431,-161.3457)"
         id="path254" />
    </clipPath>
    <clipPath
       clipPathUnits="userSpaceOnUse"
       id="clipPath256">
      <path
         d="M 0,841.89 H 1190.55 V 0 H 0 Z"
         transform="translate(-567.73441,-120.80661)"
         id="path256" />
    </clipPath>
    <clipPath
       clipPathUnits="userSpaceOnUse"
       id="clipPath258">
      <path
         d="M 0,841.89 H 1190.55 V 0 H 0 Z"
         transform="translate(-397.34281,-74.148377)"
         id="path258" />
    </clipPath>
    <clipPath
       clipPathUnits="userSpaceOnUse"
       id="clipPath260">
      <path
         d="M 0,841.89 H 1190.55 V 0 H 0 Z"
         transform="translate(-389.30081,-428.12741)"
         id="path260" />
    </clipPath>
    <clipPath
       clipPathUnits="userSpaceOnUse"
       id="clipPath262">
      <path
         d="M 0,841.89 H 1190.55 V 0 H 0 Z"
         transform="translate(-600.03221,-232.252)"
         id="path262" />
    </clipPath>
    <clipPath
       clipPathUnits="userSpaceOnUse"
       id="clipPath264">
      <path
         d="M 0,841.89 H 1190.55 V 0 H 0 Z"
         transform="translate(-598.75591,-254.1475)"
         id="path264" />
    </clipPath>
    <clipPath
       clipPathUnits="userSpaceOnUse"
       id="clipPath266">
      <path
         d="M 0,841.89 H 1190.55 V 0 H 0 Z"
         transform="translate(-598.20121,-242.91111)"
         id="path266" />
    </clipPath>
    <clipPath
       clipPathUnits="userSpaceOnUse"
       id="clipPath268">
      <path
         d="M 0,841.89 H 1190.55 V 0 H 0 Z"
         transform="translate(-572.88281,-229.15141)"
         id="path268" />
    </clipPath>
    <clipPath
       clipPathUnits="userSpaceOnUse"
       id="clipPath270">
      <path
         d="M 0,841.89 H 1190.55 V 0 H 0 Z"
         transform="translate(-447.20261,-132.37011)"
         id="path270" />
    </clipPath>
    <clipPath
       clipPathUnits="userSpaceOnUse"
       id="clipPath272">
      <path
         d="M 0,841.89 H 1190.55 V 0 H 0 Z"
         transform="translate(-445.92681,-154.27251)"
         id="path272" />
    </clipPath>
    <clipPath
       clipPathUnits="userSpaceOnUse"
       id="clipPath274">
      <path
         d="M 0,841.89 H 1190.55 V 0 H 0 Z"
         transform="translate(-441.18071,-146.8311)"
         id="path274" />
    </clipPath>
    <clipPath
       clipPathUnits="userSpaceOnUse"
       id="clipPath276">
      <path
         d="M 0,841.89 H 1190.55 V 0 H 0 Z"
         transform="translate(-410.02391,-138.7617)"
         id="path276" />
    </clipPath>
    <clipPath
       clipPathUnits="userSpaceOnUse"
       id="clipPath278">
      <path
         d="M 0,841.89 H 1190.55 V 0 H 0 Z"
         transform="translate(-638.71582,-221.65431)"
         id="path278" />
    </clipPath>
    <clipPath
       clipPathUnits="userSpaceOnUse"
       id="clipPath280">
      <path
         d="M 0,841.89 H 1190.55 V 0 H 0 Z"
         transform="translate(-662.51951,-229.5361)"
         id="path280" />
    </clipPath>
    <clipPath
       clipPathUnits="userSpaceOnUse"
       id="clipPath282">
      <path
         d="M 0,841.89 H 1190.55 V 0 H 0 Z"
         transform="translate(-665.15722,-221.31151)"
         id="path282" />
    </clipPath>
    <clipPath
       clipPathUnits="userSpaceOnUse"
       id="clipPath284">
      <path
         d="M 0,841.89 H 1190.55 V 0 H 0 Z"
         transform="translate(-662.45411,-204.16501)"
         id="path284" />
    </clipPath>
    <filter
       style="color-interpolation-filters:sRGB;"
       inkscape:label="Greyscale"
       id="filter1"
       x="0"
       y="0"
       width="1"
       height="1">
      <feColorMatrix
         values="0.75 0 0.75 -0.5 0 0.75 0 0.75 -0.5 0 0.75 0 0.75 -0.5 0 0 0 0 1 0 "
         id="feColorMatrix1" />
    </filter>
    <clipPath
       clipPathUnits="userSpaceOnUse"
       id="clipPath95">
      <path
         id="path95"
         style="display:inline;fill:#000000;fill-opacity:1;stroke:none;stroke-width:68.0315;stroke-linecap:round;stroke-linejoin:round;stroke-miterlimit:1"
         d="m 702.92048,458.1395 a 312.89329,312.89438 0 0 0 -312.66763,312.87807 312.89329,312.89438 0 0 0 312.89327,312.89433 312.89329,312.89438 0 0 0 188.21421,-63.9327 312.89329,312.89438 0 0 1 -0.22564,0.016 A 312.89329,312.89438 0 0 1 578.24141,707.10112 312.89329,312.89438 0 0 1 702.92048,458.1395 Z" />
    </clipPath>
  </defs>
  <g
     inkscape:label="Ebene 1"
     inkscape:groupmode="layer"
     id="layer1">
    <g
       id="g43"
       inkscape:label="Original"
       style="display:none"
       sodipodi:insensitive="true">
      <g
         id="g42"
         transform="matrix(3.1909669,0,0,3.1909558,-1215.0475,-1436.2836)"
         style="stroke:none;stroke-width:0.313386;filter:url(#filter1)">
        <path
           id="path1"
           d="m 0,0 c 0,-2.381 -1.925,-4.31 -4.306,-4.31 -2.381,0 -4.309,1.929 -4.309,4.31 0,2.381 1.928,4.307 4.309,4.307 C -1.925,4.307 0,2.381 0,0"
           style="fill:#c6d3e3;fill-opacity:1;fill-rule:nonzero;stroke:none;stroke-width:0.313386"
           transform="matrix(1.3333333,0,0,-1.3333333,771.50787,853.76613)"
           clip-path="url(#clipPath10)" />
        <path
           id="path2"
           d="m 0,0 c 0,-1.42 -1.162,-2.58 -2.59,-2.58 -1.427,0 -2.583,1.16 -2.583,2.58 0,1.432 1.156,2.587 2.583,2.587 C -1.162,2.587 0,1.432 0,0"
           style="fill:#c6d3e3;fill-opacity:1;fill-rule:nonzero;stroke:none;stroke-width:0.313386"
           transform="matrix(1.3333333,0,0,-1.3333333,663.16667,982.15413)"
           clip-path="url(#clipPath20)" />
        <path
           id="path3"
           d="m 0,0 c 0,-1.429 -1.156,-2.581 -2.587,-2.581 -1.432,0 -2.587,1.152 -2.587,2.581 0,1.429 1.155,2.589 2.587,2.589 C -1.156,2.589 0,1.429 0,0"
           style="fill:#c6d3e3;fill-opacity:1;fill-rule:nonzero;stroke:none;stroke-width:0.313386"
           transform="matrix(1.3333333,0,0,-1.3333333,696.07093,951.07467)"
           clip-path="url(#clipPath22)" />
        <path
           id="path4"
           d="m 0,0 c 0,-1.428 -1.16,-2.582 -2.592,-2.582 -1.423,0 -2.579,1.154 -2.579,2.582 0,1.426 1.156,2.589 2.579,2.589 C -1.16,2.589 0,1.426 0,0"
           style="fill:#c6d3e3;fill-opacity:1;fill-rule:nonzero;stroke:none;stroke-width:0.313386"
           transform="matrix(1.3333333,0,0,-1.3333333,811.35933,804.14627)"
           clip-path="url(#clipPath28)" />
        <path
           id="path5"
           d="m 0,0 c 0,-1.427 -1.152,-2.585 -2.579,-2.585 -1.422,0 -2.586,1.158 -2.586,2.585 0,1.426 1.164,2.582 2.586,2.582 C -1.152,2.582 0,1.426 0,0"
           style="fill:#c6d3e3;fill-opacity:1;fill-rule:nonzero;stroke:none;stroke-width:0.313386"
           transform="matrix(1.3333333,0,0,-1.3333333,831.41147,770.59293)"
           clip-path="url(#clipPath30)" />
        <path
           id="path6"
           d="m 0,0 c 0,-1.428 -1.161,-2.582 -2.591,-2.582 -1.43,0 -2.58,1.154 -2.58,2.582 0,1.43 1.15,2.59 2.58,2.59 C -1.161,2.59 0,1.43 0,0"
           style="fill:#c6d3e3;fill-opacity:1;fill-rule:nonzero;stroke:none;stroke-width:0.313386"
           transform="matrix(1.3333333,0,0,-1.3333333,842.112,731.47307)"
           clip-path="url(#clipPath32)" />
        <path
           id="path7"
           d="m 0,0 c 0,-2.378 -1.933,-4.307 -4.313,-4.307 -2.379,0 -4.311,1.929 -4.311,4.307 0,2.378 1.932,4.312 4.311,4.312 C -1.933,4.312 0,2.378 0,0"
           style="fill:#c6d3e3;fill-opacity:1;fill-rule:nonzero;stroke:none;stroke-width:0.313386"
           transform="matrix(1.3333333,0,0,-1.3333333,738.8972,924.4888)"
           clip-path="url(#clipPath74)" />
        <path
           id="path8"
           d="m 0,0 c 0,-126.561 -102.599,-229.161 -229.163,-229.161 -126.563,0 -229.162,102.6 -229.162,229.161 0,126.564 102.599,229.165 229.162,229.165 C -102.599,229.165 0,126.564 0,0"
           style="fill:#fae4a8;fill-opacity:1;fill-rule:nonzero;stroke:none;stroke-width:0.313386"
           transform="matrix(1.3333333,0,0,-1.3333333,1007.2331,771.02)"
           clip-path="url(#clipPath228)" />
        <path
           id="path9"
           d="m 0,0 c 0,-75.108 -92.777,-157.614 -159.133,-167.14 -117.692,-16.893 -178.473,54.44 -180.793,146.948 -2.65,105.475 76.904,164.051 169.22,164.051 C -127.438,143.859 0,92.316 0,0"
           style="fill:#fbe9b9;fill-opacity:1;fill-rule:nonzero;stroke:none;stroke-width:0.313386"
           transform="matrix(1.3333333,0,0,-1.3333333,905.7396,721.50693)"
           clip-path="url(#clipPath230)" />
        <path
           id="path11"
           d="m 0,0 c 0,-54.18 -66.922,-113.691 -114.787,-120.563 -84.894,-12.187 -128.739,39.267 -130.412,106 -1.909,76.079 55.471,118.334 122.062,118.334 C -91.924,103.771 0,66.592 0,0"
           style="fill:#fcefcb;fill-opacity:1;fill-rule:nonzero;stroke:none;stroke-width:0.313386"
           transform="matrix(1.3333333,0,0,-1.3333333,808.68747,712.79733)"
           clip-path="url(#clipPath232)" />
        <path
           id="path12"
           d="M 0,0 C -27.499,-62.888 -155.721,-15.241 -133.008,43.23 -93.495,144.963 39.697,90.765 0,0"
           style="fill:#fae4a8;fill-opacity:1;fill-rule:nonzero;stroke:none;stroke-width:0.313386"
           transform="matrix(1.3333333,0,0,-1.3333333,905.67453,669.04867)"
           clip-path="url(#clipPath234)" />
        <path
           id="path13"
           d="M 0,0 C 20.259,-41.581 -11.306,-87.298 -62.036,-74.813 -198.661,-41.188 -47.065,96.632 0,0"
           style="fill:#fbe9b9;fill-opacity:1;fill-rule:nonzero;stroke:none;stroke-width:0.313386"
           transform="matrix(1.3333333,0,0,-1.3333333,901.65107,600.01213)"
           clip-path="url(#clipPath236)" />
        <path
           id="path14"
           d="m 0,0 c 3.406,-40.886 -63.612,-53.57 -90.405,-28.219 -0.008,0.012 -0.013,0.022 -0.019,0.032 C -144.404,51.733 -6.833,81.88 0,0"
           style="fill:#fcefcb;fill-opacity:1;fill-rule:nonzero;stroke:none;stroke-width:0.313386"
           transform="matrix(1.3333333,0,0,-1.3333333,899.9024,635.43533)"
           clip-path="url(#clipPath238)" />
        <path
           id="path15"
           d="M 0,0 C -0.029,0.014 0.03,-0.013 0,0 -46.397,21.494 25.46,70.834 43.056,53.885 74.363,23.721 33.622,-15.539 0,0"
           style="fill:#fdf4dc;fill-opacity:1;fill-rule:nonzero;stroke:none;stroke-width:0.313386"
           transform="matrix(1.3333333,0,0,-1.3333333,820.08467,678.81427)"
           clip-path="url(#clipPath240)" />
        <path
           id="path16"
           d="M 0,0 C -15.808,-35.2 -87.823,-9.946 -82.401,26.079 -72.597,91.232 24.59,54.754 0,0"
           style="fill:#fae4a8;fill-opacity:1;fill-rule:nonzero;stroke:none;stroke-width:0.313386"
           transform="matrix(1.3333333,0,0,-1.3333333,569.97267,768.02267)"
           clip-path="url(#clipPath242)" />
        <path
           id="path17"
           d="M 0,0 C 11.361,-23.324 -6.345,-48.962 -34.794,-41.959 -121.86,-20.533 -30.851,63.335 0,0"
           style="fill:#fcefcb;fill-opacity:1;fill-rule:nonzero;stroke:none;stroke-width:0.313386"
           transform="matrix(1.3333333,0,0,-1.3333333,564.31507,731.05387)"
           clip-path="url(#clipPath244)" />
        <path
           id="path18"
           d="m 0,0 c -0.037,-31.01 -38.287,-31.243 -50.703,-15.824 -0.003,0.006 -0.005,0.01 -0.009,0.015 C -80.986,29.015 0.055,48.031 0,0"
           style="fill:#fae4a8;fill-opacity:1;fill-rule:nonzero;stroke:none;stroke-width:0.313386"
           transform="matrix(1.3333333,0,0,-1.3333333,555.81507,745.81947)"
           clip-path="url(#clipPath246)" />
        <path
           id="path19"
           d="M 0,0 C -0.016,0.008 0.015,-0.006 0,0 -22.863,8.535 5.487,35.203 20.367,24.284 43.001,7.678 17.312,-6.841 0,0"
           style="fill:#fcefcb;fill-opacity:1;fill-rule:nonzero;stroke:none;stroke-width:0.313386"
           transform="matrix(1.3333333,0,0,-1.3333333,511.89973,770.33907)"
           clip-path="url(#clipPath248)" />
        <path
           id="path21"
           d="M 0,0 C -7.563,-14.382 -15.028,-25.571 -5.303,-40.486 1.963,-51.64 24.43,-62.862 37.006,-63.754 58.45,-65.272 80.027,-55.005 88.433,-34.295 97.603,-11.69 85.839,7.548 70.1,22.368 46.568,44.521 15.563,29.593 0,0"
           style="fill:#fcefcb;fill-opacity:1;fill-rule:nonzero;stroke:none;stroke-width:0.313386"
           transform="matrix(1.3333333,0,0,-1.3333333,682.14067,906.30773)"
           clip-path="url(#clipPath250)" />
        <path
           id="path23"
           d="M 0,0 C 20.463,-9.413 34.901,-44.955 18.679,-63.703 2.87,-81.977 -41.551,-78.118 -53.305,-58.397 -68.118,-33.542 -28.425,13.066 0,0"
           style="fill:#fae4a8;fill-opacity:1;fill-rule:nonzero;stroke:none;stroke-width:0.313386"
           transform="matrix(1.3333333,0,0,-1.3333333,757.18813,881.4484)"
           clip-path="url(#clipPath252)" />
        <path
           id="path24"
           d="m 0,0 c 10.534,-11.171 15.588,-32.757 2.519,-44.637 -13.598,-12.357 -46.047,-7.796 -53.862,9.549 C -63.966,-7.079 -21.182,22.47 0,0"
           style="fill:#fcefcb;fill-opacity:1;fill-rule:nonzero;stroke:none;stroke-width:0.313386"
           transform="matrix(1.3333333,0,0,-1.3333333,765.48573,907.3924)"
           clip-path="url(#clipPath254)" />
        <path
           id="path25"
           d="M 0,0 C -15.632,-11.376 -40.518,-4.713 -34.538,15.495 -26.941,41.156 25.333,18.437 0,0"
           style="fill:#fdf4dc;fill-opacity:1;fill-rule:nonzero;stroke:none;stroke-width:0.313386"
           transform="matrix(1.3333333,0,0,-1.3333333,756.9792,961.44453)"
           clip-path="url(#clipPath256)" />
        <path
           id="path26"
           d="m 0,0 c 36.732,-25.038 81.112,-39.685 128.919,-39.685 126.564,0 229.163,102.601 229.163,229.162 0,18.799 -2.277,37.065 -6.545,54.547 -1.514,-44.033 -9.011,-86.05 -23.486,-117.413 C 268.304,-2.868 129.047,-17.967 0,0"
           style="fill:#fcefcb;fill-opacity:1;fill-rule:nonzero;stroke:none;stroke-width:0.313386"
           transform="matrix(1.3333333,0,0,-1.3333333,529.7904,1023.6555)"
           clip-path="url(#clipPath258)" />
        <path
           id="path27"
           d="m 0,0 c 41.29,33.668 117.125,27.014 154.266,64.006 -5.714,0.426 -11.482,0.656 -17.305,0.656 -126.563,0 -229.162,-102.6 -229.162,-229.164 0,-36.372 8.491,-70.754 23.572,-101.299 -1.497,16.808 -3.789,35.595 -4.063,57.957 C -73.59,-134.398 -60.371,-49.232 0,0"
           style="fill:#fbe9b9;fill-opacity:1;fill-rule:nonzero;stroke:none;stroke-width:0.313386"
           transform="matrix(1.3333333,0,0,-1.3333333,519.06773,551.68347)"
           clip-path="url(#clipPath260)" />
        <path
           id="path29"
           d="M 0,0 C -11.629,-26.6 -65.858,-6.449 -56.256,18.282 -39.541,61.305 16.79,38.385 0,0"
           style="fill:#fae4a8;fill-opacity:1;fill-rule:nonzero;stroke:none;stroke-width:0.313386"
           transform="matrix(1.3333333,0,0,-1.3333333,800.04293,812.85067)"
           clip-path="url(#clipPath262)" />
        <path
           id="path31"
           d="M 0,0 C 8.566,-17.586 -4.779,-36.921 -26.238,-31.642 -84.022,-17.419 -19.903,40.867 0,0"
           style="fill:#fcefcb;fill-opacity:1;fill-rule:nonzero;stroke:none;stroke-width:0.313386"
           transform="matrix(1.3333333,0,0,-1.3333333,798.3412,783.65667)"
           clip-path="url(#clipPath264)" />
        <path
           id="path33"
           d="m 0,0 c 1.443,-17.29 -26.905,-22.653 -38.235,-11.934 -0.005,0.004 -0.006,0.006 -0.006,0.013 C -61.073,21.88 -2.888,34.629 0,0"
           style="fill:#fae4a8;fill-opacity:1;fill-rule:nonzero;stroke:none;stroke-width:0.313386"
           transform="matrix(1.3333333,0,0,-1.3333333,797.6016,798.63853)"
           clip-path="url(#clipPath266)" />
        <path
           id="path34"
           d="M 0,0 C -0.013,0.005 0.013,-0.005 0,0 -19.621,9.093 10.768,29.959 18.208,22.791 31.447,10.032 14.223,-6.572 0,0"
           style="fill:#fcefcb;fill-opacity:1;fill-rule:nonzero;stroke:none;stroke-width:0.313386"
           transform="matrix(1.3333333,0,0,-1.3333333,763.84373,816.9848)"
           clip-path="url(#clipPath268)" />
        <path
           id="path35"
           d="M 0,0 C -10.791,-24.679 -59.955,-6.968 -56.255,18.286 -49.561,63.965 16.787,38.391 0,0"
           style="fill:#fcefcb;fill-opacity:1;fill-rule:nonzero;stroke:none;stroke-width:0.313386"
           transform="matrix(1.3333333,0,0,-1.3333333,596.27013,946.02653)"
           clip-path="url(#clipPath270)" />
        <path
           id="path36"
           d="M 0,0 C 8.567,-17.587 -4.783,-36.923 -26.237,-31.641 -91.896,-15.481 -23.264,47.764 0,0"
           style="fill:#fae4a8;fill-opacity:1;fill-rule:nonzero;stroke:none;stroke-width:0.313386"
           transform="matrix(1.3333333,0,0,-1.3333333,594.56907,916.82333)"
           clip-path="url(#clipPath272)" />
        <path
           id="path37"
           d="m 0,0 c -0.025,-23.388 -28.871,-23.565 -38.235,-11.935 -0.005,0.006 -0.005,0.006 -0.008,0.012 C -61.072,21.88 0.042,36.223 0,0"
           style="fill:#fcefcb;fill-opacity:1;fill-rule:nonzero;stroke:none;stroke-width:0.313386"
           transform="matrix(1.3333333,0,0,-1.3333333,588.24093,926.7452)"
           clip-path="url(#clipPath274)" />
        <path
           id="path38"
           d="M 0,0 C -0.015,0.006 0.013,-0.007 0,0 -20.439,8.011 4.902,33.037 18.206,22.79 38.44,7.204 15.474,-6.423 0,0"
           style="fill:#fdf4dc;fill-opacity:1;fill-rule:nonzero;stroke:none;stroke-width:0.313386"
           transform="matrix(1.3333333,0,0,-1.3333333,546.69853,937.5044)"
           clip-path="url(#clipPath276)" />
        <path
           id="path39"
           d="m 0,0 c -3.2,-6.084 -6.356,-10.817 -2.246,-17.127 3.076,-4.717 12.576,-9.459 17.9,-9.838 9.066,-0.644 18.193,3.7 21.748,12.457 3.883,9.567 -1.093,17.7 -7.755,23.965 C 19.696,18.829 6.581,12.516 0,0"
           style="fill:#fae4a8;fill-opacity:1;fill-rule:nonzero;stroke:none;stroke-width:0.313386"
           transform="matrix(1.3333333,0,0,-1.3333333,851.62107,826.98093)"
           clip-path="url(#clipPath278)" />
        <path
           id="path40"
           d="m 0,0 c 8.658,-3.979 14.764,-19.011 7.902,-26.94 -6.686,-7.728 -25.471,-6.097 -30.441,2.245 C -28.81,-14.182 -12.021,5.529 0,0"
           style="fill:#fcefcb;fill-opacity:1;fill-rule:nonzero;stroke:none;stroke-width:0.313386"
           transform="matrix(1.3333333,0,0,-1.3333333,883.35933,816.47187)"
           clip-path="url(#clipPath280)" />
        <path
           id="path41"
           d="m 0,0 c 4.452,-4.729 6.589,-13.857 1.063,-18.88 -5.75,-5.227 -19.476,-3.297 -22.78,4.035 C -27.058,-2.996 -8.963,9.502 0,0"
           style="fill:#fae4a8;fill-opacity:1;fill-rule:nonzero;stroke:none;stroke-width:0.313386"
           transform="matrix(1.3333333,0,0,-1.3333333,886.87627,827.438)"
           clip-path="url(#clipPath282)" />
        <path
           id="path42"
           d="M 0,0 C -6.612,-4.813 -17.138,-1.997 -14.604,6.553 -11.394,17.403 10.714,7.795 0,0"
           style="fill:#fcefcb;fill-opacity:1;fill-rule:nonzero;stroke:none;stroke-width:0.313386"
           transform="matrix(1.3333333,0,0,-1.3333333,883.27213,850.3)"
           clip-path="url(#clipPath284)" />
      </g>
      <circle
         style="fill:#000000;fill-opacity:1;stroke:none;stroke-width:68.0315;stroke-linecap:round;stroke-linejoin:round;stroke-miterlimit:1"
         id="circle42"
         cx="1024"
         cy="1024"
         r="975.00006" />
      <circle
         style="fill:#750000;fill-opacity:1;stroke:none;stroke-width:68.0315;stroke-linecap:round;stroke-linejoin:round;stroke-miterlimit:1"
         id="circle43"
         cx="1676.1761"
         cy="1024"
         r="975.00006" />
    </g>
    <g
       id="g94"
       transform="matrix(-3.1909669,0,0,3.1909558,3263.0475,-1436.2836)"
       style="display:none;stroke:none;stroke-width:0.313386;filter:url(#filter1)"
       inkscape:label="Moon"
       sodipodi:insensitive="true">
      <path
         id="path58"
         d="m 0,0 c 0,-2.381 -1.925,-4.31 -4.306,-4.31 -2.381,0 -4.309,1.929 -4.309,4.31 0,2.381 1.928,4.307 4.309,4.307 C -1.925,4.307 0,2.381 0,0"
         style="fill:#c6d3e3;fill-opacity:1;fill-rule:nonzero;stroke:none;stroke-width:0.313386"
         transform="matrix(1.3333333,0,0,-1.3333333,771.50787,853.76613)"
         clip-path="url(#clipPath10)" />
      <path
         id="path59"
         d="m 0,0 c 0,-1.42 -1.162,-2.58 -2.59,-2.58 -1.427,0 -2.583,1.16 -2.583,2.58 0,1.432 1.156,2.587 2.583,2.587 C -1.162,2.587 0,1.432 0,0"
         style="fill:#c6d3e3;fill-opacity:1;fill-rule:nonzero;stroke:none;stroke-width:0.313386"
         transform="matrix(1.3333333,0,0,-1.3333333,663.16667,982.15413)"
         clip-path="url(#clipPath20)" />
      <path
         id="path60"
         d="m 0,0 c 0,-1.429 -1.156,-2.581 -2.587,-2.581 -1.432,0 -2.587,1.152 -2.587,2.581 0,1.429 1.155,2.589 2.587,2.589 C -1.156,2.589 0,1.429 0,0"
         style="fill:#c6d3e3;fill-opacity:1;fill-rule:nonzero;stroke:none;stroke-width:0.313386"
         transform="matrix(1.3333333,0,0,-1.3333333,696.07093,951.07467)"
         clip-path="url(#clipPath22)" />
      <path
         id="path61"
         d="m 0,0 c 0,-1.428 -1.16,-2.582 -2.592,-2.582 -1.423,0 -2.579,1.154 -2.579,2.582 0,1.426 1.156,2.589 2.579,2.589 C -1.16,2.589 0,1.426 0,0"
         style="fill:#c6d3e3;fill-opacity:1;fill-rule:nonzero;stroke:none;stroke-width:0.313386"
         transform="matrix(1.3333333,0,0,-1.3333333,811.35933,804.14627)"
         clip-path="url(#clipPath28)" />
      <path
         id="path62"
         d="m 0,0 c 0,-1.427 -1.152,-2.585 -2.579,-2.585 -1.422,0 -2.586,1.158 -2.586,2.585 0,1.426 1.164,2.582 2.586,2.582 C -1.152,2.582 0,1.426 0,0"
         style="fill:#c6d3e3;fill-opacity:1;fill-rule:nonzero;stroke:none;stroke-width:0.313386"
         transform="matrix(1.3333333,0,0,-1.3333333,831.41147,770.59293)"
         clip-path="url(#clipPath30)" />
      <path
         id="path63"
         d="m 0,0 c 0,-1.428 -1.161,-2.582 -2.591,-2.582 -1.43,0 -2.58,1.154 -2.58,2.582 0,1.43 1.15,2.59 2.58,2.59 C -1.161,2.59 0,1.43 0,0"
         style="fill:#c6d3e3;fill-opacity:1;fill-rule:nonzero;stroke:none;stroke-width:0.313386"
         transform="matrix(1.3333333,0,0,-1.3333333,842.112,731.47307)"
         clip-path="url(#clipPath32)" />
      <path
         id="path64"
         d="m 0,0 c 0,-2.378 -1.933,-4.307 -4.313,-4.307 -2.379,0 -4.311,1.929 -4.311,4.307 0,2.378 1.932,4.312 4.311,4.312 C -1.933,4.312 0,2.378 0,0"
         style="fill:#c6d3e3;fill-opacity:1;fill-rule:nonzero;stroke:none;stroke-width:0.313386"
         transform="matrix(1.3333333,0,0,-1.3333333,738.8972,924.4888)"
         clip-path="url(#clipPath74)" />
      <path
         id="path65"
         d="m 0,0 c 0,-126.561 -102.599,-229.161 -229.163,-229.161 -126.563,0 -229.162,102.6 -229.162,229.161 0,126.564 102.599,229.165 229.162,229.165 C -102.599,229.165 0,126.564 0,0"
         style="fill:#fae4a8;fill-opacity:1;fill-rule:nonzero;stroke:none;stroke-width:0.313386"
         transform="matrix(1.3333333,0,0,-1.3333333,1007.2331,771.02)"
         clip-path="url(#clipPath228)" />
      <path
         id="path66"
         d="m 0,0 c 0,-75.108 -92.777,-157.614 -159.133,-167.14 -117.692,-16.893 -178.473,54.44 -180.793,146.948 -2.65,105.475 76.904,164.051 169.22,164.051 C -127.438,143.859 0,92.316 0,0"
         style="fill:#fbe9b9;fill-opacity:1;fill-rule:nonzero;stroke:none;stroke-width:0.313386"
         transform="matrix(1.3333333,0,0,-1.3333333,905.7396,721.50693)"
         clip-path="url(#clipPath230)" />
      <path
         id="path67"
         d="m 0,0 c 0,-54.18 -66.922,-113.691 -114.787,-120.563 -84.894,-12.187 -128.739,39.267 -130.412,106 -1.909,76.079 55.471,118.334 122.062,118.334 C -91.924,103.771 0,66.592 0,0"
         style="fill:#fcefcb;fill-opacity:1;fill-rule:nonzero;stroke:none;stroke-width:0.313386"
         transform="matrix(1.3333333,0,0,-1.3333333,808.68747,712.79733)"
         clip-path="url(#clipPath232)" />
      <path
         id="path68"
         d="M 0,0 C -27.499,-62.888 -155.721,-15.241 -133.008,43.23 -93.495,144.963 39.697,90.765 0,0"
         style="fill:#fae4a8;fill-opacity:1;fill-rule:nonzero;stroke:none;stroke-width:0.313386"
         transform="matrix(1.3333333,0,0,-1.3333333,905.67453,669.04867)"
         clip-path="url(#clipPath234)" />
      <path
         id="path69"
         d="M 0,0 C 20.259,-41.581 -11.306,-87.298 -62.036,-74.813 -198.661,-41.188 -47.065,96.632 0,0"
         style="fill:#fbe9b9;fill-opacity:1;fill-rule:nonzero;stroke:none;stroke-width:0.313386"
         transform="matrix(1.3333333,0,0,-1.3333333,901.65107,600.01213)"
         clip-path="url(#clipPath236)" />
      <path
         id="path70"
         d="m 0,0 c 3.406,-40.886 -63.612,-53.57 -90.405,-28.219 -0.008,0.012 -0.013,0.022 -0.019,0.032 C -144.404,51.733 -6.833,81.88 0,0"
         style="fill:#fcefcb;fill-opacity:1;fill-rule:nonzero;stroke:none;stroke-width:0.313386"
         transform="matrix(1.3333333,0,0,-1.3333333,899.9024,635.43533)"
         clip-path="url(#clipPath238)" />
      <path
         id="path71"
         d="M 0,0 C -0.029,0.014 0.03,-0.013 0,0 -46.397,21.494 25.46,70.834 43.056,53.885 74.363,23.721 33.622,-15.539 0,0"
         style="fill:#fdf4dc;fill-opacity:1;fill-rule:nonzero;stroke:none;stroke-width:0.313386"
         transform="matrix(1.3333333,0,0,-1.3333333,820.08467,678.81427)"
         clip-path="url(#clipPath240)" />
      <path
         id="path72"
         d="M 0,0 C -15.808,-35.2 -87.823,-9.946 -82.401,26.079 -72.597,91.232 24.59,54.754 0,0"
         style="fill:#fae4a8;fill-opacity:1;fill-rule:nonzero;stroke:none;stroke-width:0.313386"
         transform="matrix(1.3333333,0,0,-1.3333333,569.97267,768.02267)"
         clip-path="url(#clipPath242)" />
      <path
         id="path73"
         d="M 0,0 C 11.361,-23.324 -6.345,-48.962 -34.794,-41.959 -121.86,-20.533 -30.851,63.335 0,0"
         style="fill:#fcefcb;fill-opacity:1;fill-rule:nonzero;stroke:none;stroke-width:0.313386"
         transform="matrix(1.3333333,0,0,-1.3333333,564.31507,731.05387)"
         clip-path="url(#clipPath244)" />
      <path
         id="path75"
         d="m 0,0 c -0.037,-31.01 -38.287,-31.243 -50.703,-15.824 -0.003,0.006 -0.005,0.01 -0.009,0.015 C -80.986,29.015 0.055,48.031 0,0"
         style="fill:#fae4a8;fill-opacity:1;fill-rule:nonzero;stroke:none;stroke-width:0.313386"
         transform="matrix(1.3333333,0,0,-1.3333333,555.81507,745.81947)"
         clip-path="url(#clipPath246)" />
      <path
         id="path76"
         d="M 0,0 C -0.016,0.008 0.015,-0.006 0,0 -22.863,8.535 5.487,35.203 20.367,24.284 43.001,7.678 17.312,-6.841 0,0"
         style="fill:#fcefcb;fill-opacity:1;fill-rule:nonzero;stroke:none;stroke-width:0.313386"
         transform="matrix(1.3333333,0,0,-1.3333333,511.89973,770.33907)"
         clip-path="url(#clipPath248)" />
      <path
         id="path77"
         d="M 0,0 C -7.563,-14.382 -15.028,-25.571 -5.303,-40.486 1.963,-51.64 24.43,-62.862 37.006,-63.754 58.45,-65.272 80.027,-55.005 88.433,-34.295 97.603,-11.69 85.839,7.548 70.1,22.368 46.568,44.521 15.563,29.593 0,0"
         style="fill:#fcefcb;fill-opacity:1;fill-rule:nonzero;stroke:none;stroke-width:0.313386"
         transform="matrix(1.3333333,0,0,-1.3333333,682.14067,906.30773)"
         clip-path="url(#clipPath250)" />
      <path
         id="path78"
         d="M 0,0 C 20.463,-9.413 34.901,-44.955 18.679,-63.703 2.87,-81.977 -41.551,-78.118 -53.305,-58.397 -68.118,-33.542 -28.425,13.066 0,0"
         style="fill:#fae4a8;fill-opacity:1;fill-rule:nonzero;stroke:none;stroke-width:0.313386"
         transform="matrix(1.3333333,0,0,-1.3333333,757.18813,881.4484)"
         clip-path="url(#clipPath252)" />
      <path
         id="path79"
         d="m 0,0 c 10.534,-11.171 15.588,-32.757 2.519,-44.637 -13.598,-12.357 -46.047,-7.796 -53.862,9.549 C -63.966,-7.079 -21.182,22.47 0,0"
         style="fill:#fcefcb;fill-opacity:1;fill-rule:nonzero;stroke:none;stroke-width:0.313386"
         transform="matrix(1.3333333,0,0,-1.3333333,765.48573,907.3924)"
         clip-path="url(#clipPath254)" />
      <path
         id="path80"
         d="M 0,0 C -15.632,-11.376 -40.518,-4.713 -34.538,15.495 -26.941,41.156 25.333,18.437 0,0"
         style="fill:#fdf4dc;fill-opacity:1;fill-rule:nonzero;stroke:none;stroke-width:0.313386"
         transform="matrix(1.3333333,0,0,-1.3333333,756.9792,961.44453)"
         clip-path="url(#clipPath256)" />
      <path
         id="path81"
         d="m 0,0 c 36.732,-25.038 81.112,-39.685 128.919,-39.685 126.564,0 229.163,102.601 229.163,229.162 0,18.799 -2.277,37.065 -6.545,54.547 -1.514,-44.033 -9.011,-86.05 -23.486,-117.413 C 268.304,-2.868 129.047,-17.967 0,0"
         style="fill:#fcefcb;fill-opacity:1;fill-rule:nonzero;stroke:none;stroke-width:0.313386"
         transform="matrix(1.3333333,0,0,-1.3333333,529.7904,1023.6555)"
         clip-path="url(#clipPath258)" />
      <path
         id="path82"
         d="m 0,0 c 41.29,33.668 117.125,27.014 154.266,64.006 -5.714,0.426 -11.482,0.656 -17.305,0.656 -126.563,0 -229.162,-102.6 -229.162,-229.164 0,-36.372 8.491,-70.754 23.572,-101.299 -1.497,16.808 -3.789,35.595 -4.063,57.957 C -73.59,-134.398 -60.371,-49.232 0,0"
         style="fill:#fbe9b9;fill-opacity:1;fill-rule:nonzero;stroke:none;stroke-width:0.313386"
         transform="matrix(1.3333333,0,0,-1.3333333,519.06773,551.68347)"
         clip-path="url(#clipPath260)" />
      <path
         id="path83"
         d="M 0,0 C -11.629,-26.6 -65.858,-6.449 -56.256,18.282 -39.541,61.305 16.79,38.385 0,0"
         style="fill:#fae4a8;fill-opacity:1;fill-rule:nonzero;stroke:none;stroke-width:0.313386"
         transform="matrix(1.3333333,0,0,-1.3333333,800.04293,812.85067)"
         clip-path="url(#clipPath262)" />
      <path
         id="path84"
         d="M 0,0 C 8.566,-17.586 -4.779,-36.921 -26.238,-31.642 -84.022,-17.419 -19.903,40.867 0,0"
         style="fill:#fcefcb;fill-opacity:1;fill-rule:nonzero;stroke:none;stroke-width:0.313386"
         transform="matrix(1.3333333,0,0,-1.3333333,798.3412,783.65667)"
         clip-path="url(#clipPath264)" />
      <path
         id="path85"
         d="m 0,0 c 1.443,-17.29 -26.905,-22.653 -38.235,-11.934 -0.005,0.004 -0.006,0.006 -0.006,0.013 C -61.073,21.88 -2.888,34.629 0,0"
         style="fill:#fae4a8;fill-opacity:1;fill-rule:nonzero;stroke:none;stroke-width:0.313386"
         transform="matrix(1.3333333,0,0,-1.3333333,797.6016,798.63853)"
         clip-path="url(#clipPath266)" />
      <path
         id="path86"
         d="M 0,0 C -0.013,0.005 0.013,-0.005 0,0 -19.621,9.093 10.768,29.959 18.208,22.791 31.447,10.032 14.223,-6.572 0,0"
         style="fill:#fcefcb;fill-opacity:1;fill-rule:nonzero;stroke:none;stroke-width:0.313386"
         transform="matrix(1.3333333,0,0,-1.3333333,763.84373,816.9848)"
         clip-path="url(#clipPath268)" />
      <path
         id="path87"
         d="M 0,0 C -10.791,-24.679 -59.955,-6.968 -56.255,18.286 -49.561,63.965 16.787,38.391 0,0"
         style="fill:#fcefcb;fill-opacity:1;fill-rule:nonzero;stroke:none;stroke-width:0.313386"
         transform="matrix(1.3333333,0,0,-1.3333333,596.27013,946.02653)"
         clip-path="url(#clipPath270)" />
      <path
         id="path88"
         d="M 0,0 C 8.567,-17.587 -4.783,-36.923 -26.237,-31.641 -91.896,-15.481 -23.264,47.764 0,0"
         style="fill:#fae4a8;fill-opacity:1;fill-rule:nonzero;stroke:none;stroke-width:0.313386"
         transform="matrix(1.3333333,0,0,-1.3333333,594.56907,916.82333)"
         clip-path="url(#clipPath272)" />
      <path
         id="path89"
         d="m 0,0 c -0.025,-23.388 -28.871,-23.565 -38.235,-11.935 -0.005,0.006 -0.005,0.006 -0.008,0.012 C -61.072,21.88 0.042,36.223 0,0"
         style="fill:#fcefcb;fill-opacity:1;fill-rule:nonzero;stroke:none;stroke-width:0.313386"
         transform="matrix(1.3333333,0,0,-1.3333333,588.24093,926.7452)"
         clip-path="url(#clipPath274)" />
      <path
         id="path90"
         d="M 0,0 C -0.015,0.006 0.013,-0.007 0,0 -20.439,8.011 4.902,33.037 18.206,22.79 38.44,7.204 15.474,-6.423 0,0"
         style="fill:#fdf4dc;fill-opacity:1;fill-rule:nonzero;stroke:none;stroke-width:0.313386"
         transform="matrix(1.3333333,0,0,-1.3333333,546.69853,937.5044)"
         clip-path="url(#clipPath276)" />
      <path
         id="path91"
         d="m 0,0 c -3.2,-6.084 -6.356,-10.817 -2.246,-17.127 3.076,-4.717 12.576,-9.459 17.9,-9.838 9.066,-0.644 18.193,3.7 21.748,12.457 3.883,9.567 -1.093,17.7 -7.755,23.965 C 19.696,18.829 6.581,12.516 0,0"
         style="fill:#fae4a8;fill-opacity:1;fill-rule:nonzero;stroke:none;stroke-width:0.313386"
         transform="matrix(1.3333333,0,0,-1.3333333,851.62107,826.98093)"
         clip-path="url(#clipPath278)" />
      <path
         id="path92"
         d="m 0,0 c 8.658,-3.979 14.764,-19.011 7.902,-26.94 -6.686,-7.728 -25.471,-6.097 -30.441,2.245 C -28.81,-14.182 -12.021,5.529 0,0"
         style="fill:#fcefcb;fill-opacity:1;fill-rule:nonzero;stroke:none;stroke-width:0.313386"
         transform="matrix(1.3333333,0,0,-1.3333333,883.35933,816.47187)"
         clip-path="url(#clipPath280)" />
      <path
         id="path93"
         d="m 0,0 c 4.452,-4.729 6.589,-13.857 1.063,-18.88 -5.75,-5.227 -19.476,-3.297 -22.78,4.035 C -27.058,-2.996 -8.963,9.502 0,0"
         style="fill:#fae4a8;fill-opacity:1;fill-rule:nonzero;stroke:none;stroke-width:0.313386"
         transform="matrix(1.3333333,0,0,-1.3333333,886.87627,827.438)"
         clip-path="url(#clipPath282)" />
      <path
         id="path94"
         d="M 0,0 C -6.612,-4.813 -17.138,-1.997 -14.604,6.553 -11.394,17.403 10.714,7.795 0,0"
         style="fill:#fcefcb;fill-opacity:1;fill-rule:nonzero;stroke:none;stroke-width:0.313386"
         transform="matrix(1.3333333,0,0,-1.3333333,883.27213,850.3)"
         clip-path="url(#clipPath284)" />
    </g>
    <circle
       style="display:none;fill:#ffffff;fill-opacity:1;stroke:none;stroke-width:68.0315;stroke-linecap:round;stroke-linejoin:round;stroke-miterlimit:1"
       id="circle95"
       cx="1024"
       cy="1024"
       inkscape:label="Shadow001"
       r="977.5" />
    <path
       id="circle54"
       style="display:none;fill:#ffffff;fill-opacity:1;stroke:none;stroke-width:68.0315;stroke-linecap:round;stroke-linejoin:round;stroke-miterlimit:1"
       inkscape:label="Shadow002"
       d="M 989.08398,48.998047 A 977.5,977.5 0 0 0 46.5,1024 977.5,977.5 0 0 0 974.35547,1997.9492 883.01105,977.5 0 0 0 1812.5215,1024 883.01105,977.5 0 0 0 989.08398,48.998047 Z" />
    <path
       id="path55"
       style="display:none;fill:#ffffff;fill-opacity:1;stroke:none;stroke-width:68.0315;stroke-linecap:round;stroke-linejoin:round;stroke-miterlimit:1"
       inkscape:label="Shadow003"
       d="M 989.08398,48.998047 C 736.36561,58.030374 496.98155,164.6497 321.21664,346.45963 145.45172,528.26956 46.984887,771.12074 46.5,1024 c 0.586149,250.2588 97.13532,490.7611 269.75586,671.957 172.62053,181.1959 396.16304,289.2829 646.09961,301.9922 225.77683,-12.7091 385.06123,-144.8289 499.99883,-301.992 C 1598.3263,1510.0321 1622.7981,1254.3389 1623.5452,1024 1624.286,795.60762 1599.6946,543.32964 1468.042,356.69842 1358.6588,201.63639 1212.4083,65.715273 989.08398,48.998047 Z"
       sodipodi:nodetypes="cscscaaac" />
    <path
       id="path56"
       style="display:none;fill:#ffffff;fill-opacity:1;stroke:none;stroke-width:68.0315;stroke-linecap:round;stroke-linejoin:round;stroke-miterlimit:1"
       inkscape:label="Shadow004"
       d="M 989.08398,48.998047 C 736.36561,58.030374 496.98155,164.6497 321.21664,346.45963 145.45172,528.26956 46.984887,771.12074 46.5,1024 c 0.586149,250.2588 97.13532,490.7611 269.75586,671.957 172.62053,181.1959 396.16304,289.2829 646.09961,301.9922 165.82913,-104.6289 239.50003,-176.429 311.02323,-301.992 C 1387.3865,1495.8103 1433.8225,1254.3389 1434.5696,1024 1435.3104,795.60762 1387.0286,557.96392 1279.0664,356.69842 1212.4452,232.50154 1136.4746,149.64204 989.08398,48.998047 Z"
       sodipodi:nodetypes="cscscaaac" />
    <path
       id="path57"
       style="display:none;fill:#ffffff;fill-opacity:1;stroke:none;stroke-width:68.0315;stroke-linecap:round;stroke-linejoin:round;stroke-miterlimit:1"
       inkscape:label="Shadow005"
       d="M 989.08398,48.998047 C 736.36561,58.030374 496.98155,164.6497 321.21664,346.45963 145.45172,528.26956 46.984887,771.12074 46.5,1024 c 0.586149,250.2588 97.13532,490.7611 269.75586,671.957 172.62053,181.1959 396.16304,289.2829 646.09961,301.9922 61.91983,-132.6045 124.43793,-194.1194 162.04683,-301.992 C 1199.3298,1481.0447 1244.7915,1251.5981 1245.5932,1024 1246.3884,798.26006 1196.9189,572.32092 1130.09,356.69842 1096.6896,248.93225 1044.5548,185.61065 989.08398,48.998047 Z"
       sodipodi:nodetypes="cscscaaac" />
    <path
       id="path96"
       style="display:none;fill:#ffffff;fill-opacity:1;stroke:none;stroke-width:68.0315;stroke-linecap:round;stroke-linejoin:round;stroke-miterlimit:1"
       inkscape:label="Shadow006"
       d="M 1024,46.500002 A 977.5,978.1387 0 0 0 46.5,1024.6387 977.5,978.1387 0 0 0 997.74414,2000.8992 c 28.68426,-119.6521 50.87656,-192.5809 65.51956,-292.267 33.7459,-229.7344 47.7276,-462.6511 48.664,-694.8111 0.9294,-230.43074 -21.719,-460.83008 -42.7382,-689.99548 -8.3913,-93.13678 -25.3455,-185.15614 -41.42,-277.233761 A 977.5,978.1387 0 0 0 1024,46.500002 Z" />
    <path
       id="path43"
       style="display:none;fill:#ffffff;fill-opacity:1;stroke:none;stroke-width:68.0315;stroke-linecap:round;stroke-linejoin:round;stroke-miterlimit:1"
       inkscape:label="Shadow007"
       d="M 996.19922,48.322267 A 977.5,978.77935 0 0 0 46.5,1025.277 977.5,978.77935 0 0 0 984.02344,2000.9213 403.305,1547.5542 0.3710927 0 1 898.9375,1015.8838 403.305,1547.5542 0.3710927 0 1 996.19922,48.322267 Z" />
    <path
       id="path44"
       style="display:none;fill:#ffffff;fill-opacity:1;stroke:none;stroke-width:68.0315;stroke-linecap:round;stroke-linejoin:round;stroke-miterlimit:1"
       inkscape:label="Shadow008"
       d="M 990.29688,47.595008 A 977.5,979.42084 0 0 0 46.5,1024.6401 977.5,979.42084 0 0 0 971.48047,1999.6049 977.50049,1453.17 0.91534713 0 1 725.17773,1008.912 977.50049,1453.17 0.91534713 0 1 990.29688,47.595008 Z" />
    <path
       id="path45"
       style="display:none;fill:#ffffff;fill-opacity:1;stroke:none;stroke-width:68.0315;stroke-linecap:round;stroke-linejoin:round;stroke-miterlimit:1"
       inkscape:label="Shadow009"
       d="M 946.76953,49.339705 A 977.5,982.64143 0 0 0 46.5,1025.2781 977.5,982.64143 0 0 0 945.89062,2000.4291 977.5,1167.6849 0 0 1 504.88281,1025.2781 977.5,1167.6849 0 0 1 946.76953,49.339705 Z" />
    <path
       id="path46"
       style="display:none;fill:#ffffff;fill-opacity:1;stroke:none;stroke-width:68.0315;stroke-linecap:round;stroke-linejoin:round;stroke-miterlimit:1"
       inkscape:label="Shadow010"
       d="M 929.7832,50.475731 A 977.5,983.29938 0 0 0 46.5,1024.6412 977.5,983.29938 0 0 0 927.17578,1997.7555 977.5,1055.914 0 0 1 324.41797,1024.6412 977.5,1055.914 0 0 1 929.7832,50.475731 Z" />
    <path
       id="path47"
       style="display:inline;fill:#ffffff;fill-opacity:1;stroke:none;stroke-width:68.0315;stroke-linecap:round;stroke-linejoin:round;stroke-miterlimit:1"
       inkscape:label="Shadow011"
       d="M 903.58398,54.643696 A 977.5,983.32888 0 0 0 46.5,1024.6456 977.5,983.32888 0 0 0 892.1875,1992.0992 977.5,1005.1139 0 0 1 176.43555,1024.6456 977.5,1005.1139 0 0 1 903.58398,54.643696 Z" />
  </g>
</svg>
