<?xml version="1.0" encoding="UTF-8" standalone="no"?>
<svg
   width="2048"
   height="2048"
   version="1.1"
   viewBox="0 0 541.86667 541.86667"
   id="svg6"
   sodipodi:docname="sirius-a-8328086.svg"
   inkscape:version="1.3.2 (091e20e, 2023-11-25, custom)"
   inkscape:export-filename="sirius-a-8328086.png"
   inkscape:export-xdpi="96"
   inkscape:export-ydpi="96"
   xmlns:inkscape="http://www.inkscape.org/namespaces/inkscape"
   xmlns:sodipodi="http://sodipodi.sourceforge.net/DTD/sodipodi-0.dtd"
   xmlns="http://www.w3.org/2000/svg"
   xmlns:svg="http://www.w3.org/2000/svg">
  <defs
     id="defs6">
    <mask
       maskUnits="userSpaceOnUse"
       id="mask6">
      <rect
         style="fill:#ffffff;stroke-width:0.2;stroke-linecap:round;stroke-linejoin:round;stroke-miterlimit:1"
         id="rect7"
         width="811.62494"
         height="405.81247"
         x="-5.599854"
         y="-505.71375" />
    </mask>
  </defs>
  <sodipodi:namedview
     id="namedview6"
     pagecolor="#505050"
     bordercolor="#ffffff"
     borderopacity="1"
     inkscape:showpageshadow="0"
     inkscape:pageopacity="0"
     inkscape:pagecheckerboard="1"
     inkscape:deskcolor="#505050"
     inkscape:zoom="0.271"
     inkscape:cx="1038.7454"
     inkscape:cy="1263.8376"
     inkscape:window-width="1920"
     inkscape:window-height="1009"
     inkscape:window-x="-8"
     inkscape:window-y="-8"
     inkscape:window-maximized="1"
     inkscape:current-layer="svg6" />
  <g
     transform="matrix(0.66763188,0,0,0.66763188,3.7386411,337.63061)"
     stroke-width="1.1889"
     id="g6"
     mask="url(#mask6)">
    <path
       d="m 414.82,277.58 c -4.7932,-1.5723 -6.2692,-2.5822 -11.906,-8.1465 l -6.4348,-6.3516 -5.4382,-0.53592 c -5.0656,-0.4992 -5.8136,-0.83546 -10.918,-4.9083 -3.2608,-2.6017 -7.6412,-5.1859 -10.817,-6.3811 l -5.3366,-2.0087 -2.9628,3.4349 c -1.6296,1.8892 -4.4947,5.2671 -6.367,7.5065 -3.4029,4.0701 -3.4066,4.0719 -9.7542,4.8594 -3.4925,0.4333 -8.8503,0.60923 -11.906,0.39098 -5.4901,-0.3921 -5.6156,-0.45227 -10.546,-5.0579 l -4.99,-4.661 h -5.7498 c -4.8217,0 -6.8349,0.46008 -12.473,2.8504 -6.3983,2.7128 -7.0202,2.8251 -12.886,2.3257 -6.3962,-0.54456 -13.956,-2.863 -31.143,-9.5506 -9.0308,-3.514 -9.8468,-3.6886 -15.727,-3.3661 l -6.2025,0.34019 -4.3201,-4.8326 c -3.284,-3.6736 -5.0001,-6.5814 -7.1552,-12.124 l -2.835,-7.2914 -5.6924,-1.8753 c -5.7782,-1.9036 -6.9102,-1.9221 -17.831,-0.29259 -2.4909,0.37169 -2.7722,0.141 -6.0028,-4.9234 -1.8642,-2.9224 -4.6769,-8.4037 -6.2504,-12.181 -3.3681,-8.0843 -8.3787,-15.264 -14.394,-20.626 l -4.3308,-3.86 h -15.078 l -8.998,-7.3297 -16.944,0.58283 -2.8615,-5.5562 -2.8615,-5.5563 0.63858,-7.9375 c 0.35123,-4.3656 1.0505,-11.834 1.5539,-16.596 l 0.91528,-8.6584 -2.9984,-11.185 c -1.6491,-6.1519 -3.3824,-11.589 -3.8518,-12.082 -0.46937,-0.49343 -4.2467,-1.5104 -8.394,-2.2599 -4.1473,-0.7495 -10.22,-2.4993 -13.494,-3.8883 l -5.9531,-2.5256 -0.45968,-12.964 -4.9546,-3.9425 c -2.8096,-2.2356 -7.8647,-5.1477 -11.676,-6.7262 l -6.7218,-2.7837 -0.39688,-7.0093 c -0.36905,-6.5178 -0.61148,-7.3264 -3.4575,-11.531 -3.3024,-4.8786 -4.6772,-10.132 -5.6899,-21.741 l -0.55031,-6.3086 -8.221,-3.4197 c -7.9455,-3.3051 -8.3423,-3.5898 -11.842,-8.4944 -2.663,-3.7318 -3.8371,-6.289 -4.4369,-9.6637 -0.44861,-2.5239 -0.98452,-5.1703 -1.1909,-5.8808 -0.23657,-0.81441 2.1077,-4.1618 6.3427,-9.0568 7.0658,-8.1669 8.9384,-11.987 13.143,-26.814 l 1.5349,-5.4126 -3.497,-5.4557 c -1.9234,-3.0007 -4.6266,-7.6934 -6.0071,-10.428 -1.7217,-3.4106 -5.5347,-8.1721 -12.139,-15.159 -5.296,-5.6026 -9.9327,-10.844 -10.304,-11.648 -0.50818,-1.1009 0.22688,-2.806 2.9766,-6.9048 3.5376,-5.2733 3.651,-5.6288 3.6385,-11.405 -0.01195,-5.5214 -0.26388,-6.4163 -3.4121,-12.12 l -3.3992,-6.158 4.0405,-8.1295 c 2.2223,-4.4712 4.6194,-9.6409 5.3269,-11.488 1.1079,-2.8928 2.3221,-4.0214 8.7526,-8.136 8.4226,-5.3892 13.31,-11.197 17.016,-20.223 l 2.0768,-5.0571 -4.7601,-7.8064 c -2.618,-4.2935 -6.2408,-10.602 -8.0507,-14.019 -3.1345,-5.9178 -3.2899,-6.5392 -3.2749,-13.097 0.02783,-12.186 1.1187,-17.072 5.0513,-22.625 1.9072,-2.693 4.5366,-7.3439 5.843,-10.335 l 2.3753,-5.4386 7.2162,-3.4292 c 7.1939,-3.4186 7.2358,-3.4557 13.565,-12.024 3.5996,-4.873 7.4386,-11.173 8.8654,-14.548 1.8879,-4.466 3.5698,-6.9446 6.7329,-9.9219 2.319,-2.1828 5.5038,-6.3494 7.0772,-9.2591 2.7437,-5.0738 2.8769,-5.6911 3.2548,-15.081 0.21671,-5.385 0.58464,-11.675 0.81762,-13.978 l 0.42361,-4.1872 5.6515,-2.8461 c 8.102,-4.0801 13.576,-9.1157 17.358,-15.967 2.0847,-3.7765 5.9968,-8.6939 11.367,-14.288 l 8.1888,-8.5302 22.373,-8.6407 3.4629,-5.2077 c 3.4067,-5.1232 3.5584,-5.2358 9.3496,-6.9396 l 5.8867,-1.7319 1.4661,-6.9963 c 0.80634,-3.848 2.8992,-10.087 4.6508,-13.865 l 3.1848,-6.8686 6.8502,-0.52307 c 3.7676,-0.28769 10.084,-0.14804 14.037,0.31032 5.9251,0.68705 8.3642,0.60517 13.891,-0.46635 4.2377,-0.82163 11.18,-1.329 18.873,-1.3792 l 12.169,-0.0795 2.1184,-2.4477 c 11.787,-13.62 14.574,-17.332 17.726,-23.607 3.4006,-6.7705 3.6996,-7.1057 8.9512,-10.035 l 5.433,-3.0303 7.229,4.398 c 6.9965,4.2565 7.6248,4.4702 19.532,6.6412 9.7432,1.7765 12.468,2.0362 13.097,1.2483 1.9762,-2.4771 17.349,-20.899 18.183,-21.79 0.51342,-0.54832 3.4753,-1.7013 6.582,-2.5622 l 5.6486,-1.5653 6.3658,3.6066 c 7.0552,3.9972 11.797,5.0466 22.928,5.0738 3.5892,0.009 9.1739,0.59782 12.41,1.309 5.8411,1.2835 5.9284,1.2782 11.846,-0.71143 l 5.9617,-2.0044 10.6,3.5336 c 9.3545,3.1185 11.393,3.527 17.347,3.4769 3.7108,-0.0312 9.4546,-0.46078 12.764,-0.95461 l 6.0172,-0.89787 10.191,6.0273 13.293,-3.3929 9.8478,7.8361 5.0982,-0.7369 c 8.1332,-1.1756 7.6797,-1.4027 10.752,5.3827 3.4276,7.5702 10.802,20.797 11.608,20.819 0.32599,0.009 4.5257,-3.0524 9.3327,-6.8036 l 8.7399,-6.8203 9.8108,7.2906 h 6.6541 c 6.569,0 6.7167,0.044 11.559,3.4482 2.6976,1.8965 7.1047,4.7847 9.7935,6.4183 4.6189,2.8062 5.0536,3.3402 7.8761,9.6745 2.7906,6.2628 3.2941,6.8907 7.6441,9.5332 5.8568,3.5578 11.653,11.031 14.584,18.803 1.1823,3.1354 2.2668,5.8406 2.41,6.0115 0.14325,0.17089 4.2878,-0.50738 9.2102,-1.5073 l 8.9497,-1.818 5.5562,2.5529 c 4.4072,2.0249 6.9982,2.6486 12.528,3.0156 3.8347,0.25448 7.1435,0.73997 7.353,1.0788 0.3333,0.53928 -1.3887,13.296 -2.4133,17.877 -0.25378,1.1348 0.78503,3.1603 3.2567,6.35 3.5092,4.5286 3.8438,4.7422 10.105,6.4526 6.7069,1.832 7.4965,2.4219 11.977,8.9466 1.8413,2.6815 1.882,3.047 1.1719,10.51 l -0.73573,7.7321 6.0024,9.9268 8.1855,1.255 c 5.0275,0.77081 8.4716,1.6912 8.9272,2.3857 0.40798,0.62189 1.7887,2.9166 3.0684,5.0995 2.5159,4.2916 9.1403,9.73 18.68,15.335 3.0559,1.7956 7.6994,5.4324 10.319,8.0817 l 4.7625,4.8169 -0.14649,19.082 -0.1465,19.082 -4.7756,8.1867 -4.7757,8.1867 0.95532,11.395 10.673,8.2282 0.9691,5.8646 c 0.63375,3.8351 1.9357,7.6231 3.7623,10.946 2.7878,5.0719 2.8096,5.0893 11.35,9.0953 9.2607,4.3438 9.5183,4.6565 9.5183,11.555 0,4.4313 4.5721,14.186 9.6351,20.558 2.5588,3.22 4.6524,6.2486 4.6524,6.7302 0,0.4816 -1.215,3.6391 -2.7,7.0166 -1.6696,3.7974 -2.9187,8.1829 -3.273,11.491 -0.50061,4.6747 -1.0326,5.9701 -4.2132,10.259 -2.0021,2.7001 -6.9586,8.0979 -11.014,11.995 l -7.3743,7.0859 v 5.7028 c 0,4.6402 -0.44369,6.6813 -2.3812,10.954 -2.6831,5.9174 -3.0314,10.932 -1.509,21.724 1.1061,7.842 7.6824,29.669 11.382,37.78 1.5546,3.4075 2.8265,6.9003 2.8265,7.7617 0,3.2896 -4.9538,11.445 -9.3476,15.388 -3.2713,2.9359 -5.0725,5.4301 -7.0415,9.7507 l -2.6458,5.8057 1.1264,8.5055 c 0.61953,4.678 1.3557,10.555 1.6358,13.06 l 0.50941,4.5548 -9.0567,9.0148 c -8.9787,8.9372 -9.065,9.0585 -10.023,14.098 -0.53152,2.796 -1.1458,5.6995 -1.365,6.4522 -0.35079,1.2043 -1.8318,1.3949 -12.337,1.5875 l -11.939,0.21886 -3.0627,4.3656 -3.0627,4.3656 2.0524,8.1464 2.0524,8.1464 -2.2069,5.7442 c -1.8481,4.8104 -2.9398,6.3699 -6.7154,9.5935 -4.1768,3.566 -4.6135,4.267 -5.934,9.525 -0.8432,3.3575 -2.8326,7.9733 -4.8708,11.301 -3.2454,5.2988 -3.7578,5.7552 -8.8274,7.863 -2.9601,1.2307 -5.6876,2.5053 -6.0609,2.8323 -0.37337,0.32704 -1.3542,3.4951 -2.1797,7.0401 -2.0119,8.6405 -6.5876,15.548 -13.084,19.752 -2.5822,1.6709 -6.6906,5.1172 -9.1299,7.6585 -4.1815,4.3563 -4.5382,5.0483 -6.2395,12.106 l -1.8045,7.4852 -8.048,-0.55573 c -7.065,-0.48784 -9.2475,-1.0322 -17.87,-4.457 -5.4019,-2.1457 -9.9151,-3.7967 -10.029,-3.6688 -0.11418,0.12785 -1.3866,3.09 -2.8277,6.5824 -4.2716,10.352 -13.929,25.287 -22.044,34.089 l -3.4474,3.7394 -7.5007,-1.6152 c -6.5698,-1.4147 -8.2615,-1.5043 -13.631,-0.72176 -4.2196,0.615 -8.1648,0.65644 -12.659,0.13297 -11.627,-1.3541 -20.04,2.1845 -31.66,13.316 l -5.6701,5.4318 -7.0299,-0.0418 c -10.437,-0.062 -17.185,-1.5693 -24.096,-5.3824 -5.4864,-3.0272 -6.4218,-3.2856 -11.931,-3.2959 l -5.978,-0.0112 -4.7376,4.8368 c -2.6057,2.6602 -7.4166,6.6533 -10.691,8.8736 -3.2744,2.2203 -8.3451,5.9372 -11.269,8.2601 -2.9235,2.3228 -5.4238,4.1877 -5.5562,4.1441 -0.13244,-0.0436 -2.703,-0.88687 -5.7123,-1.874 z"
       fill="#83e3fb"
       id="path1"
       style="stroke-width:1.1889" />
    <path
       d="m 331.39,221.09 c -16.558,-4.3102 -25.147,-6.0016 -33.889,-6.6736 -12.375,-0.95128 -28.715,-4.9042 -38.527,-9.3199 -3.8277,-1.7227 -8.2096,-3.5914 -9.7376,-4.1527 -6.1846,-2.272 -14.405,-7.3718 -16.88,-10.472 -1.4116,-1.7682 -5.1198,-5.1088 -8.2403,-7.4236 -3.1206,-2.3148 -6.841,-5.6612 -8.2676,-7.4365 -1.4266,-1.7753 -5.012,-4.9921 -7.9675,-7.1484 -2.9555,-2.1564 -7.8076,-6.8726 -10.782,-10.481 -2.9748,-3.6079 -7.0161,-8.0036 -8.9807,-9.7682 -6.2256,-5.5921 -11.232,-10.985 -15.513,-16.712 -5.3122,-7.1059 -17.122,-18.386 -26.209,-25.033 -4.0555,-2.9667 -8.284,-6.8548 -9.8722,-9.0775 -1.528,-2.1384 -4.9451,-6.054 -7.5936,-8.7012 -3.776,-3.7741 -5.4894,-6.3438 -7.9375,-11.904 -6.476,-14.708 -15.449,-32.098 -20.798,-40.306 -6.4347,-9.875 -11.759,-21.5 -13.733,-29.982 -0.76315,-3.2804 -3.769,-11.679 -6.6796,-18.664 -2.9106,-6.985 -5.9868,-14.81 -6.8359,-17.389 -2.556,-7.7628 -3.8828,-18.392 -3.9229,-31.427 -0.02078,-6.7667 -0.34132,-15.966 -0.71229,-20.444 -0.58566,-7.0683 -0.47157,-8.7925 0.86625,-13.091 0.98767,-3.1734 1.81,-9.2266 2.2909,-16.863 0.72381,-11.494 2.2278,-20.996 3.7949,-23.975 2.0371,-3.8734 4.3221,-15.326 5.2738,-26.434 0.57978,-6.7667 1.4536,-13.323 1.9418,-14.569 0.48822,-1.2464 1.4378,-5.7112 2.1101,-9.9219 0.67235,-4.2107 2.0544,-11.406 3.0712,-15.99 1.0168,-4.584 2.0928,-10.835 2.3911,-13.891 3.2714,-33.518 9.0072,-47.666 24.983,-61.625 13.65,-11.927 23.568,-21.864 26.827,-26.878 1.844,-2.8377 3.3621,-5.4552 3.3734,-5.8167 0.0691,-2.202 9.7409,-19.421 13.898,-24.743 10.873,-13.92 26.894,-26.118 38.51,-29.32 5.9245,-1.6331 9.0978,-3.1513 17.585,-8.4132 6.4463,-3.9965 13,-6.4522 27.438,-10.281 8.2617,-2.1911 9.4995,-2.7879 17.066,-8.2282 4.4868,-3.2262 11.373,-7.6637 15.302,-9.8611 3.9291,-2.1975 10.001,-5.6446 13.494,-7.6604 7.6539,-4.4175 18.177,-7.9151 30.075,-9.9961 4.8505,-0.84838 10.784,-2.0512 13.185,-2.6729 2.401,-0.6217 6.5088,-1.3656 9.1281,-1.6531 2.6194,-0.28744 8.8702,-1.9539 13.891,-3.7033 5.0208,-1.7494 14.235,-4.2179 20.476,-5.4857 10.953,-2.2249 11.643,-2.2717 19.844,-1.3464 8.1252,0.91687 16.198,1.0735 32.705,0.63443 9.6672,-0.25711 18.887,1.7604 30.559,6.6874 4.8022,2.0269 11.475,4.346 14.828,5.1536 3.4145,0.82227 9.1765,3.1138 13.097,5.2085 22.836,12.202 29.734,15.501 34.856,16.671 16.566,3.7842 24.362,6.7531 41.994,15.992 19.915,10.435 25.869,14.633 35.21,24.827 6.8402,7.4641 9.6788,9.3622 20.695,13.838 3.3595,1.3651 6.7204,3.6017 9.9606,6.6284 2.6896,2.5125 7.9011,7.1236 11.581,10.247 6.3193,5.3634 7.0828,6.3718 13.748,18.158 3.8816,6.8635 9.1057,15.202 11.609,18.531 5.163,6.8646 13.478,22.904 15.514,29.928 0.74916,2.5841 2.6736,6.663 4.2766,9.064 4.9548,7.4218 7.2415,11.798 9.2488,17.7 1.0627,3.1245 2.7838,6.9679 3.8247,8.5407 6.333,9.5698 10.779,21.96 10.779,30.04 0,3.0619 0.58847,6.0474 1.6839,8.5428 3.2374,7.3753 4.7267,13.443 5.9096,24.077 1.6503,14.835 4.8253,31.102 7.1924,36.849 3.1426,7.6299 4.3039,15.646 2.9838,20.597 -3.7317,13.995 -5.3627,38.402 -3.922,58.693 0.53272,7.5032 0.4092,10.678 -0.61756,15.875 -0.70591,3.5727 -1.8542,10.425 -2.5516,15.227 -2.3261,16.015 -4.2345,22.099 -12.435,39.646 -6.2475,13.368 -8.7702,17.401 -22.831,36.494 -8.1121,11.016 -13.129,18.722 -16.253,24.965 -2.485,4.9667 -6.6686,12.764 -9.297,17.326 -2.6284,4.5628 -6.0156,11.01 -7.527,14.326 -5.7529,12.624 -11.648,17.95 -31.051,28.054 -19.952,10.39 -29.499,16.587 -38.62,25.067 -4.4086,4.0995 -9.999,8.4355 -12.7,9.8505 -2.6537,1.3902 -6.6129,3.8534 -8.7983,5.4737 -5.3186,3.9435 -7.3154,4.9163 -17.041,8.3016 -5.0965,1.774 -9.8363,4.046 -12.293,5.8928 -4.9288,3.7049 -11.091,5.3484 -24.389,6.5048 -9.0679,0.78851 -20.157,3.1133 -39.153,8.208 -6.4626,1.7333 -9.2722,1.9643 -28.972,2.3825 -19.267,0.40904 -22.825,0.69157 -30.463,2.4186 -11.637,2.6313 -29.238,2.8701 -42.361,0.57473 -8.7731,-1.5346 -9.0463,-1.5362 -14.684,-0.0845 -5.9194,1.5241 -17.227,2.553 -20.032,1.8227 z"
       fill="#c0f2ff"
       id="path2"
       style="stroke-width:1.1889" />
    <path
       d="M 379.05,211.25 C 322.851,207.8004 271.7,190.801 225.03,160.064 167.885,122.428 124.29,66.196 102.31,1.784 82.479,-56.34 79.839,-116.656 94.5407,-175.676 c 8.3468,-33.507 23.665,-68.164 42.552,-96.273 49.189,-73.209 122.91,-120.98 208.98,-135.43 64.1,-10.76 131.66,-0.5694 190.04,28.665 68.4,34.255 122.47,93.015 150.32,163.35 14.974,37.819 21.87,74.193 21.896,115.49 0.0304,48.041 -9.6936,91.282 -30.128,133.98 -47.623,99.497 -142.32,165.77 -251.96,176.33 -12.478,1.2014 -34.696,1.5876 -47.195,0.82045 z"
       fill="#8eeaff"
       id="path3"
       style="stroke-width:1.1889" />
    <path
       d="m 410.24,210.64 c 1.7574,-1.2185 -9.6126,-1.8012 -33.209,-1.702 -19.092,0.0803 -23.022,-0.12148 -31.353,-1.6103 -45.859,-8.1952 -85.849,-24.205 -122.63,-49.096 -6.7667,-4.5787 -13.553,-9.3338 -15.081,-10.567 -1.528,-1.2331 -4.3855,-3.5382 -6.35,-5.1225 -8.3883,-6.7647 -10.925,-9.0192 -21.693,-19.279 -7.0719,-6.7384 -20.374,-21.386 -26.329,-28.992 -1.3097,-1.6728 -4.0048,-5.075 -5.9891,-7.5605 -4.8562,-6.0826 -16.238,-23.406 -21.158,-32.203 -20.837,-37.255 -32.277,-71.724 -38.462,-115.89 -1.536,-10.967 -1.7838,-16.22 -1.8161,-38.497 -0.03286,-22.653 0.1836,-27.393 1.7763,-38.894 2.0666,-14.923 4.8658,-29.505 7.7709,-40.481 3.2842,-12.409 13.873,-41.839 17.372,-48.282 1.5302,-2.8177 1.5188,-1.8504 -0.0215,1.8361 -2.2541,5.3948 -0.61081,3.7419 2.9196,-2.9366 3.7588,-7.1105 5.6843,-11.778 5.0998,-12.363 -0.20228,-0.20228 -1.132,0.9274 -2.0659,2.5104 -2.9537,5.0061 -2.4752,3.1221 0.93216,-3.6703 9.8928,-19.721 23.605,-39.799 37.538,-54.967 9.6198,-10.472 11.83,-13.097 11.03,-13.097 -0.39447,0 -1.2352,0.44045 -1.8682,0.97879 -0.63301,0.53834 3.1353,-3.4214 8.3741,-8.7994 21.876,-22.457 49.388,-43.309 69.85,-52.941 10.923,-5.1417 12.316,-5.59 13.153,-4.2348 0.5301,0.85771 1.3222,0.87547 4.2401,0.0951 4.562,-1.2202 18.294,-7.6583 21.016,-9.8538 l 2.0716,-1.6703 -2.7781,0.56143 c -1.528,0.30879 -3.466,0.70828 -4.3068,0.88776 -0.84077,0.17948 -4.346,1.2646 -7.7894,2.4113 -3.4434,1.1468 -6.4223,1.9234 -6.6198,1.7259 -0.71355,-0.71354 16.823,-7.8954 31.302,-12.819 25.296,-8.6022 52.301,-14.379 76.736,-16.414 14.103,-1.1746 48.408,-0.53158 60.851,1.1405 36.266,4.8735 50.491,8.7742 72.383,19.848 8.7815,4.4422 17.216,8.5454 18.744,9.1183 5.8453,2.1914 17.368,7.6239 24.606,11.6 6.4383,3.5372 11.365,6.0072 14.684,7.3615 0.86046,0.3511 -1.2062,-1.5135 -4.8508,-4.3764 -3.181,-2.4988 10.046,5.5921 16.36,10.007 15.263,10.673 32.385,25.131 39.876,33.672 2.734,3.1172 8.9277,9.7933 13.764,14.836 16.656,17.367 29.81,35.728 41.087,57.35 10.949,20.994 12.638,24.541 17.168,36.06 10.622,27.006 17.279,55.081 20.488,86.402 0.31376,3.0628 0.54383,16.463 0.51126,29.778 -0.0584,23.871 -1.0224,36.803 -3.6683,49.212 -0.51197,2.4011 -0.86499,4.6335 -0.78449,4.9609 0.0805,0.32742 -0.21082,0.59531 -0.64738,0.59531 -0.43656,0 -0.79375,0.53981 -0.79375,1.1996 0,0.65979 -1.2144,5.2139 -2.6987,10.12 -1.4843,4.9064 -3.0945,11.778 -3.5782,15.271 -1.1662,8.4198 -3.3384,15.938 -8.4917,29.392 -4.3167,11.27 -16.48,36.746 -18.937,39.664 -0.73519,0.87312 -1.1051,1.0517 -0.82209,0.39688 2.1558,-4.9877 -13.696,19.945 -17.44,27.431 -5.2869,10.571 -29.034,37.225 -47.648,53.482 -13.16,11.493 -37.339,28.985 -47.228,34.166 -1.938,1.0153 -1.9519,1.003 -0.59531,-0.52744 0.76398,-0.86189 1.3891,-2.1965 1.3891,-2.9659 0,-0.76935 1.2502,-2.8593 2.7781,-4.6444 2.6736,-3.1236 3.539,-5.3411 2.0842,-5.3411 -2.1494,0 -7.5582,2.6669 -12.277,6.0534 -11.736,8.4223 -13.848,9.7784 -19.97,12.823 -3.4925,1.7369 -9.5647,4.326 -13.494,5.7537 -11.448,4.1596 -13.238,6.0336 -7.5551,7.909 2.8773,0.9496 3.6775,0.8624 8.9297,-0.97325 8.987,-3.141 9.1644,-3.1813 5.3723,-1.2229 -14.426,7.4504 -48.118,17.798 -70.389,21.618 -16.09,2.7599 -42.991,5.2359 -40.865,3.7612 z m -49.845,-17.254 c 2.5777,-2.3328 1.9731,-4.8318 -1.7668,-7.3018 -3.0028,-1.9832 -3.9755,-2.1886 -10.12,-2.1374 -6.9558,0.0579 -12.751,1.6876 -12.751,3.5857 0,1.9481 3.6434,3.9669 11.509,6.3772 5.5406,1.6978 10.911,1.4836 13.129,-0.52363 z m -54.586,-1.6898 c -3.6801,-3.2335 -11.234,-7.1275 -21.25,-10.954 -5.2388,-2.0013 -11.49,-4.5681 -13.891,-5.7039 -13.156,-6.2231 -21.211,-6.621 -14.174,-0.70016 3.5005,2.9455 8.9578,5.5808 19.218,9.2805 31.764,11.453 34.895,12.294 30.096,8.0772 z m 123.3,-4.8417 c 0.48302,-0.32074 1.0676,-3.0023 1.2991,-5.959 0.37816,-4.83 0.25092,-5.4949 -1.2533,-6.5484 -2.4476,-1.7143 -5.69,-1.4349 -8.1774,0.70469 -1.8976,1.6323 -2.1564,2.382 -1.9824,5.7433 0.25767,4.9777 1.7802,6.6705 5.9853,6.6547 1.7877,-0.006 3.6456,-0.27458 4.1286,-0.59531 z m -98.213,-29.831 c 1.5428,-1.859 -1.439,-3.5313 -13.081,-7.3366 -6.0654,-1.9825 -15.493,-5.207 -20.95,-7.1656 -25.385,-9.1109 -30.192,-10.475 -41.672,-11.823 -7.1389,-0.83847 -13.612,-2.1342 -18.103,-3.6236 -3.8448,-1.2752 -7.6957,-2.3185 -8.5577,-2.3185 -4.9518,0 -0.68264,7.6909 6.8169,12.281 1.3097,0.80153 5.6672,3.9142 9.6833,6.917 11.718,8.7611 20.74,12.003 25.226,9.0636 1.1,-0.72072 1.9999,-1.8062 1.9999,-2.4122 0,-1.96 4.6328,-5.0688 9.0152,-6.0495 6.3708,-1.4257 12.439,-0.0513 24.252,5.4934 15.176,7.1226 23.376,9.3769 25.37,6.9743 z m 143.68,-2.8254 c 0.88182,-0.55847 0.77432,-0.87026 -0.54313,-1.5753 -0.90341,-0.48349 -2.2253,-0.87907 -2.9376,-0.87907 -1.9353,0 -4.4764,1.5598 -3.9441,2.4211 0.58364,0.94434 5.9483,0.96843 7.4248,0.0333 z m -87.612,-9.6005 c 1.3357,-0.50785 1.9999,-1.2837 1.8344,-2.143 -0.37361,-1.94 -8.1921,-5.7922 -11.756,-5.7922 -5.6198,0 -6.2647,4.3366 -0.98097,6.5969 5.0706,2.1692 7.8269,2.5075 10.902,1.3382 z m -184.08,-7.3399 c -6.2198,-7.4635 -23.489,-22.054 -23.489,-19.846 0,0.80988 3.2043,5.0557 6.4455,8.5405 2.5376,2.7284 14.189,12.625 16.176,13.74 3.2468,1.8217 3.5961,0.84057 0.86688,-2.4344 z m 354.87,-4.1635 c 6.4756,-1.923 15.401,-10.977 13.095,-13.283 -1.4029,-1.4029 -8.3016,-0.88439 -12.121,0.91108 -6.8519,3.2208 -11.053,9.4568 -8.2548,12.254 1.602,1.602 2.2483,1.6124 7.2814,0.11778 z m -234.63,-19.152 1.6847,-1.6859 -2.8545,-5.379 c -2.2116,-4.1676 -2.8545,-6.3002 -2.8545,-9.4692 0,-7.5496 -5.8633,-15.86 -14.407,-20.419 -3.3026,-1.7624 -4.1579,-1.8395 -19.724,-1.7769 l -16.272,0.06548 -7.9375,3.4671 c -7.8027,3.4082 -8.104,3.4706 -17.741,3.6737 -10.28,0.21669 -12.025,0.76248 -12.025,3.7614 0,4.7181 6.036,7.62 15.85,7.62 11.334,0 22.565,4.4318 32.055,12.649 9.3759,8.1182 14.323,9.598 31.251,9.3466 10.329,-0.1534 11.433,-0.31118 12.975,-1.8536 z m 163.98,-8.3378 c 3.192,-2.6492 -1.1418,-8.3777 -5.6665,-7.4901 -4.6024,0.9029 -5.8864,6.1684 -1.9969,8.1894 2.1198,1.1015 5.9104,0.75557 7.6634,-0.69934 z M 203.194,95.838 c 1.4166,-3.7259 -2.1835,-11.118 -7.3241,-15.039 -4.4594,-3.4014 -11.349,-6.1734 -14.662,-5.8996 -2.9216,0.24136 -2.9921,0.32135 -2.824,3.2048 0.51695,8.864 12.066,19.634 21.08,19.657 2.4471,0.0063 3.1308,-0.34612 3.7303,-1.923 z m -42.842,-0.79322 c 0,-1.7806 -4.6246,-13.874 -6.9146,-18.081 -1.1373,-2.0896 -4.2424,-5.8535 -6.9003,-8.3643 -4.1089,-3.8816 -4.8672,-4.3254 -5.0647,-2.9644 -0.45799,3.1564 8.7754,20.059 14.829,27.146 3.0284,3.5453 4.0506,4.1166 4.0506,2.2637 z m 473.66,-16.725 c 4.0873,-3.4986 6.5626,-8.5146 6.5626,-13.299 0,-4.0622 -0.74551,-4.9422 -3.5835,-4.2299 -4.2344,1.0628 -10.022,13.854 -8.3087,18.361 0.96902,2.5487 1.4702,2.4704 5.3295,-0.833 z m -97.414,-7.7369 c 2.3648,-1.4188 5.3851,-4.1298 6.7118,-6.0244 4.386,-6.2636 2.8657,-16.173 -2.9596,-19.291 -2.9902,-1.6003 -9.4552,-1.212 -12.645,0.75954 -5.7021,3.5241 -10.259,13.802 -9.0278,20.362 0.90539,4.8262 3.4882,6.7729 8.986,6.7729 3.8184,0 5.393,-0.45462 8.9349,-2.5797 z m -174.05,-18.527 c 2.9568,-1.1311 7.6213,-2.3482 10.366,-2.7047 6.1703,-0.80156 7.468,-1.7829 7.1552,-5.4107 -0.37192,-4.3139 -3.3186,-6.0298 -10.95,-6.3763 -7.5765,-0.34407 -16.325,1.0281 -19.72,3.0931 -2.1621,1.3148 -2.5087,1.9768 -2.5087,4.7916 0,2.656 0.50409,3.7701 2.6988,5.9648 3.3319,3.3319 5.6308,3.4459 12.96,0.64221 z m -160.48,-7.7341 c 0.25621,-1.0208 -0.26688,-3.9357 -1.1647,-6.4902 -4.6158,-13.133 -14.847,-20.623 -35.338,-25.869 -3.059,-0.78315 -5.1528,-2.1679 -9.525,-6.2994 -3.0822,-2.9126 -6.4494,-5.7396 -7.4826,-6.2822 -2.7864,-1.4633 -4.2578,0.39137 -4.2578,5.3669 0,4.6238 2.3648,10.307 7.333,17.623 3.8874,5.7244 6.5138,7.1241 13.222,7.0465 4.1144,-0.04763 9.4464,1.1758 14.156,3.2479 0.87313,0.38416 2.8377,1.0825 4.3656,1.552 1.6166,0.49666 5.182,3.1746 8.5278,6.4053 6.2757,6.0597 9.2949,7.1585 10.163,3.6987 z m 112.5,-14.655 c 6.6804,-2.9602 7.7278,-9.9074 2.6368,-17.489 -4.3854,-6.5309 -11.475,-8.9152 -17.71,-5.9564 -4.5694,2.1683 -12.899,14.176 -12.926,18.633 -0.0125,2.1018 2.5341,4.624 5.9454,5.8885 4.6837,1.7361 17.071,1.1318 22.053,-1.0758 z m 177.28,-6.9856 c 4.7691,-1.2798 5.4773,-16.063 0.99976,-20.869 -2.08,-2.2327 -5.2462,-2.1136 -8.8461,0.33251 -8.0479,5.4687 -6.6466,14.756 2.9821,19.763 2.6975,1.403 2.5846,1.385 4.8642,0.77326 z m -326.75,-41.3 c 3.2134,-2.7039 5.9793,-8.2291 7.1834,-14.35 1.4762,-7.5036 2.845,-9.1637 9.6184,-11.666 13.29,-4.9093 16.249,-14.495 6.5368,-21.177 -2.9333,-2.0182 -4.8684,-2.7097 -8.2714,-2.9559 -4.1389,-0.29939 -4.5786,-0.15918 -6.4406,2.0536 -1.7684,2.1016 -3.9341,6.734 -7.0478,15.075 -0.53293,1.4276 -3.2702,5.162 -6.0828,8.2987 -2.8126,3.1367 -5.6384,6.9586 -6.2796,8.4931 -2.4196,5.7909 -0.90745,13.304 3.3519,16.655 2.7838,2.1897 4.4346,2.0949 7.4317,-0.42693 z m 491.43,0.41928 c 2.3067,-2.3067 5.3714,-9.2586 5.9534,-13.505 0.59843,-4.366 -2.5235,-29.993 -4.1485,-34.054 -2.1612,-5.4015 -5.1501,-5.343 -13.291,0.25997 -4.2638,2.9346 -7.4211,3.6505 -12.48,2.8298 -7.2294,-1.1727 -12.869,0.91968 -17.704,6.5692 -4.6094,5.3851 -5.6574,11.824 -2.9093,17.877 1.783,3.9271 4.7956,6.1806 7.2296,5.408 0.93612,-0.29712 4.3739,-3.1521 7.6395,-6.3444 7.5164,-7.3477 9.7677,-8.3862 13.633,-6.2891 3.7894,2.0558 6.2487,7.1213 7.2951,15.026 0.89697,6.7758 2.0674,11.287 3.346,12.898 1.1842,1.492 3.5643,1.196 5.4366,-0.67631 z m -252.75,-5.8937 c 0.99815,-0.65401 2.0466,-2.1125 2.3298,-3.2411 0.68838,-2.7428 -3.0111,-6.5241 -7.0193,-7.1746 -2.3904,-0.38791 -3.2255,-0.12059 -4.9216,1.5755 -3.1687,3.1687 -2.4413,8.4699 1.3826,10.077 2.1378,0.89835 5.8129,0.34598 8.2284,-1.2367 z m -271.37,-8.4715 c 1.6936,-1.6936 1.0227,-10.518 -1.7788,-23.399 -1.5022,-6.9068 -3.0679,-15.682 -3.4794,-19.501 -0.79659,-7.3929 -2.154,-10.421 -5.3172,-11.862 -4.1572,-1.8942 -5.3847,2.183 -3.1527,10.472 0.64659,2.4011 1.5531,9.3662 2.0145,15.478 1.2584,16.671 3.757,25.502 8.0695,28.523 2.1321,1.4934 2.4184,1.5162 3.644,0.29058 z m -33.661,-8.2405 c 0.87189,-2.2721 0.50875,-4.9266 -1.5871,-11.602 -2.2947,-7.3088 -4.7016,-13.012 -5.7699,-13.672 -0.85104,-0.52597 -1.6866,3.3304 -1.6851,7.7773 0.0016,4.6169 2.1598,16.34 3.2502,17.654 1.2524,1.5091 5.1936,1.4024 5.7919,-0.1568 z m 144.66,-4.7416 c 1.7203,-1.7203 1.9456,-2.4696 1.4834,-4.9335 -0.75937,-4.0478 -1.9309,-6.0659 -7.4391,-12.815 -3.1442,-3.8528 -5.672,-8.0397 -7.3158,-12.118 -2.7344,-6.7834 -4.9804,-10.174 -6.7399,-10.174 -3.4906,0 -8.0811,8.047 -8.8522,15.518 -0.87848,8.5116 5.6621,16.601 19.144,23.676 3.0126,1.5811 5.9756,2.8747 6.5845,2.8747 0.60889,0 2.0198,-0.91277 3.1355,-2.0284 z m 119,-12.888 c 10.388,-5.3258 10.95,-14.92 1.49,-25.442 -4.503,-5.0084 -10.221,-7.5888 -15.659,-7.0663 -7.5048,0.72111 -9.6616,5.6828 -7.7716,17.878 1.2369,7.9807 3.982,13.747 7.3812,15.504 3.3463,1.7299 10.294,1.313 14.559,-0.87348 z m 172.42,-13.315 c 3.5306,-2.4729 8.8558,-18.376 9.4752,-28.297 0.48629,-7.788 -0.66859,-10.94 -4.008,-10.94 -3.2566,0 -11.797,10.794 -14.418,18.221 -2.4597,6.9717 -1.1062,15.372 3.165,19.643 2.9894,2.9894 3.3544,3.0761 5.7856,1.3732 z m 163.26,-14.886 c 2.9242,-4.4628 2.2078,-20.667 -1.108,-25.063 -1.647,-2.1835 -8.1002,-3.6848 -10.445,-2.43 -2.559,1.3695 -4.1546,5.5806 -4.4985,11.872 -0.29128,5.3301 -0.0904,6.41 1.92,10.319 1.5729,3.0583 3.0772,4.7812 5.0234,5.7535 3.9955,1.9959 7.6219,1.816 9.1079,-0.45186 z m -536.82,-21.285 c 2.9006,-2.0422 9.1725,-9.0729 11.902,-13.342 3.1102,-4.8642 3.0222,-8.7609 -0.32338,-14.327 -3.1859,-5.3004 -8.6242,-8.5693 -12.255,-7.3664 -4.8752,1.6154 -7.721,11.248 -7.7626,26.276 -0.0222,8.0098 0.1438,9.1146 1.521,10.124 1.7289,1.2672 3.7446,0.86957 6.9176,-1.3644 z m 543.36,-18.346 c -0.18919,-0.98226 -0.34398,-0.17859 -0.34398,1.7859 0,1.96449 0.15479,2.7682 0.34398,1.7859 0.1892,-0.98227 0.1892,-2.5896 0,-3.5719 z m -399.92,-1.8289 c 0.87708,-1.115 2.3814,-4.419 3.3429,-7.3422 3.836,-11.662 6.9646,-15.671 17.006,-21.79 3.7956,-2.313 5.9935,-4.2595 6.9362,-6.1426 1.3282,-2.6532 1.3225,-2.8141 -0.15128,-4.2878 -2.1684,-2.1684 -9.3573,-2.6639 -13.836,-0.95362 -1.8908,0.72209 -5.7213,3.3122 -8.5123,5.7557 -2.791,2.4435 -6.593,5.1293 -8.4488,5.9684 -10.055,4.5458 -20.764,1.312 -26.172,-7.9029 -2.0139,-3.4317 -2.2333,-4.6185 -2.6342,-14.252 -0.37077,-8.9093 -0.68414,-10.842 -2.0594,-12.7 -2.5987,-3.5113 -5.5356,-4.5746 -12.592,-4.5589 -7.7359,0.0172 -12.623,1.3746 -15.574,4.3254 -2.5765,2.5765 -2.494,3.2081 1.653,12.657 1.4093,3.2109 2.8503,7.8756 3.2023,10.366 0.84257,5.961 3.8528,11.734 8.5874,16.468 4.8902,4.8902 20.761,14.889 27.292,17.194 2.7511,0.97098 7.852,3.4432 11.335,5.4939 3.4834,2.0507 6.94,3.7285 7.6814,3.7285 0.7414,0 2.0656,-0.91229 2.9427,-2.0273 z m 294.11,-1.1171 c 3.1171,-1.1851 8.4533,-7.1283 10.619,-11.827 1.7376,-3.7693 1.8575,-4.6052 1.0482,-7.3064 -1.3301,-4.4394 -4.2708,-7.5076 -11.931,-12.448 -3.7398,-2.412 -8.2033,-5.5865 -9.919,-7.0544 -5.3622,-4.5878 -7.2579,-3.3147 -8.0862,5.4304 -0.26035,2.7486 -0.56067,5.7119 -0.66737,6.585 -0.69308,5.6714 5.5184,19.846 10.78,24.6 3.2163,2.9057 4.7996,3.2981 8.1568,2.0217 z m -174.55,-3.2048 c 4.7997,-5.0098 3.1152,-16.139 -3.0078,-19.873 -2.5139,-1.5328 -6.4012,-2.0106 -8.8167,-1.0837 -3.4716,1.3322 -6.5134,10.424 -5.1876,15.505 0.92554,3.5476 2.0435,4.5115 7.3184,6.3096 5.7844,1.9718 7.0932,1.8559 9.6938,-0.85847 z m 120.5,-4.4361 c 4.8904,-4.8904 4.8268,-12.888 -0.18312,-22.998 -4.0159,-8.1044 -9.7426,-13.841 -13.817,-13.841 -7.8089,0 -12.6,12.188 -8.417,21.411 2.2215,4.8974 7.5199,11.579 11.732,14.795 4.3921,3.3536 7.7646,3.5535 10.685,0.63319 z m -329.52,-29.422 c 0.79836,-0.7225 1.4516,-1.6326 1.4516,-2.0225 0,-1.4984 5.7068,-9.5247 11.224,-15.785 4.5172,-5.1262 5.7601,-7.0691 5.7504,-8.9889 -0.007,-1.347 -2.2844,-8.1162 -5.0613,-15.043 -5.7448,-14.329 -8.3465,-17.977 -12.8,-17.948 -6.4598,0.042 -13.206,5.5948 -15.279,12.576 -1.7285,5.8204 -5.2439,12.557 -8.4836,16.258 -3.6971,4.2229 -4.7184,6.1993 -4.7184,9.1316 0,3.8363 0.70653,4.7714 6.6505,8.8022 3.1089,2.1083 7.9729,6.1958 10.809,9.0834 5.463,5.5626 7.7216,6.4128 10.458,3.9366 z m 475.13,-12.775 c -0.47075,-6.1905 -3.6193,-16.099 -5.3622,-16.875 -4.8535,-2.1599 -6.2959,-3.3227 -8.8794,-7.1578 -1.6094,-2.3892 -4.7987,-8.9875 -7.0874,-14.663 -5.8893,-14.604 -8.3589,-18.449 -16.319,-25.409 -3.7397,-3.2695 -7.2922,-5.9445 -7.8944,-5.9445 -2.0603,0 -1.1381,4.729 2.1329,10.938 4.9508,9.3978 7.6845,16.797 9.0088,24.384 1.8593,10.652 2.8374,12.107 10.782,16.036 7.0774,3.5001 9.6383,5.8876 13.449,12.538 2.4069,4.2003 8.6734,11.509 9.8677,11.509 0.38982,0 0.52542,-2.411 0.30135,-5.3578 z m -589.47,-9.3266 c 1.6088,-6.097 1.8185,-7.7811 0.73956,-5.9397 -0.77992,1.331 -4.8406,15.399 -4.7377,16.414 0.13276,1.3088 2.5823,-5.1084 3.9982,-10.474 z m 13.583,3.3734 c 1.5201,-1.4188 3.3476,-3.4942 4.0612,-4.612 3.9706,-6.2199 5.1203,-21.383 1.6213,-21.383 -2.5846,0 -9.8826,13.115 -11.503,20.671 -0.87039,4.0584 0.0765,7.9036 1.9464,7.9036 0.61078,0 2.3542,-1.1609 3.8743,-2.5797 z m 49.845,-1.1095 c 3.6726,-2.4476 8.8361,-7.8117 10.362,-10.765 2.8607,-5.5352 1.6013,-13.327 -2.1541,-13.327 -1.6323,0 -9.3188,7.4102 -12.203,11.764 -2.7168,4.1017 -3.1355,8.5656 -1.0954,11.679 1.507,2.3 2.4346,2.4182 5.0899,0.64851 z m 378.8,-21.669 c 2.5111,-0.95966 6.3404,-3.1477 8.5095,-4.8622 2.169,-1.7145 4.2486,-3.1174 4.6213,-3.1174 0.71363,0 4.5121,-3.8061 9.1099,-9.1281 6.2417,-7.2249 6.9603,-12.093 2.5119,-17.017 -1.5617,-1.7286 -4.3169,-3.6568 -6.1516,-4.305 -5.6083,-1.9816 -38.933,-9.2374 -42.425,-9.2374 -6.3654,0 -9.2602,2.7566 -10.196,9.7098 -0.4615,3.4285 2.3794,24.632 3.8014,28.372 1.4778,3.8868 4.6577,7.0581 9.5685,9.5427 4.5161,2.2848 5.4815,2.4821 10.528,2.1516 3.0559,-0.20016 7.6108,-1.1491 10.122,-2.1088 z m 75.608,-14.335 c 2.2216,-2.4549 1.8885,-9.7729 -0.6752,-14.832 -3.9254,-7.7463 -8.4099,-9.8513 -21.406,-10.048 -7.3248,-0.1106 -7.9108,-4.4e-4 -9.3399,1.7559 -0.83866,1.0306 -1.5248,2.8545 -1.5248,4.053 0,5.0446 10.4,14.441 20.419,18.449 6.5589,2.624 10.535,2.8212 12.526,0.62129 z m -148.4,-4.3241 c 2.2946,-2.2946 2.5594,-5.9062 0.64696,-8.8249 -0.71574,-1.0924 -3.685,-3.3782 -6.5984,-5.0798 -2.9134,-1.7016 -9.025,-6.0238 -13.581,-9.605 -4.556,-3.5812 -9.3969,-6.9824 -10.757,-7.558 -3.315,-1.4035 -6.7382,-0.3978 -12.583,3.6968 -2.5292,1.7717 -5.9888,3.7775 -7.688,4.4574 -3.6488,1.4599 -7.8841,6.1551 -10.648,11.804 -3.0097,6.1516 -2.2619,6.9609 9.1164,9.8661 5.3306,1.361 9.0312,1.6185 24.407,1.6982 9.9682,0.0517 19.196,0.36658 20.505,0.69984 4.0659,1.0346 5.1679,0.85738 7.1798,-1.1546 z m -313.6,-29.63 c 1.4998,-2.0592 4.7094,-7.5905 7.1324,-12.292 3.7228,-7.2229 4.4016,-9.191 4.3803,-12.7 -0.0246,-4.0402 -1.2665,-6.9306 -2.9779,-6.9306 -3.3552,0 -11.577,11.353 -12.453,17.196 -0.54433,3.6299 -2.7862,10.342 -4.3935,13.154 -1.0654,1.8641 -0.99616,5.6364 0.12406,6.7567 1.4258,1.4258 5.0399,-0.86267 8.1877,-5.1846 z m 206.04,0.60133 c 4.5734,-3.2565 14.295,-20.484 13.188,-23.37 -0.21727,-0.56622 -2.5306,-1.7506 -5.1406,-2.6321 -2.6101,-0.88143 -7.3056,-3.2737 -10.435,-5.3162 -9.0322,-5.896 -10.244,-6.2379 -20.263,-5.7162 -16.259,0.84648 -30.462,4.3161 -34.004,8.3067 -3.285,3.7017 -1.0106,13.347 3.7247,15.796 2.0494,1.0598 3.8074,1.1592 10.807,0.61135 17.723,-1.3872 20.325,-0.63547 28.735,8.302 4.6972,4.9916 5.6232,5.626 8.2118,5.626 1.6576,0 3.8928,-0.69433 5.1755,-1.6077 z m -174.34,-7.2092 c 7.9147,-4.8132 14.903,-14.167 13.1,-17.535 -2.0409,-3.8135 -12.841,1.2086 -17.492,8.134 -2.5489,3.7952 -3.6437,9.0179 -2.244,10.704 1.3511,1.6279 2.0371,1.4932 6.6363,-1.3037 z m 269.15,-17.086 c 7.5366,-3.0668 9.7439,-4.3228 10.709,-6.0939 1.1494,-2.1093 1.1142,-2.3143 -0.6445,-3.7592 -2.4119,-1.9816 -12.68,-5.19 -18.853,-5.8909 -5.709,-0.64825 -10.725,0.47546 -14.345,3.2138 -4.7382,3.5838 -4.0339,9.4612 1.7414,14.532 2.8476,2.5002 3.3091,2.6401 7.467,2.2631 2.7029,-0.24509 8.1353,-1.9089 13.925,-4.2648 z m -195.96,-23.728 c 0.27051,-1.0778 0.27034,-2.5369 -3.8e-4,-3.2424 -0.43947,-1.1452 -0.68265,-1.1569 -2.2684,-0.10925 -1.8256,1.2062 -2.6418,3.7844 -1.8507,5.846 0.65561,1.7085 3.4964,-0.0116 4.1195,-2.4943 z m 339.25,-5.4646 c 0,-1.2588 -4.1406,-4.9806 -6.9806,-6.2746 -1.4273,-0.65032 -2.0198,-0.59779 -2.5278,0.22409 -1.0337,1.6726 -0.11874,3.0501 3.4446,5.186 3.6794,2.2055 6.0638,2.5454 6.0638,0.86449 z m -389.65,-11.64 c 2.6487,-1.8861 5.7971,-7.4712 5.1549,-9.1447 -0.63579,-1.6568 -6.5978,-1.3629 -10.773,0.53119 -4.383,1.9882 -8.7592,5.2593 -8.7379,6.5315 0.0248,1.4803 7.2156,4.4915 9.7743,4.0932 1.2373,-0.19265 3.2992,-1.0976 4.582,-2.0111 z m 342.01,-5.3824 c -0.0117,-2.0384 -4.2144,-8.8655 -8.1574,-13.251 -3.504,-3.8973 -11.676,-8.88 -13.11,-7.9937 -0.97308,0.6014 -0.20513,8.325 1.0799,10.861 3.8649,7.6267 20.219,16.039 20.187,10.384 z m -78.582,-1.5038 c 4.9618,-2.4863 5.1491,-6.6101 0.6081,-13.385 -2.4253,-3.6185 -2.8108,-3.8697 -5.7665,-3.7579 -2.3134,0.0875 -17.119,2.0961 -19.241,2.6102 -0.10914,0.0264 -0.19844,1.2258 -0.19844,2.6651 0,3.9644 5.7413,9.0084 13.891,12.204 3.4904,1.3685 7.5606,1.2408 10.707,-0.33587 z m 1.4194,-24.452 c 3.4435,-2.412 1.5294,-7.2356 -4.4735,-11.273 -4.3246,-2.9087 -13.457,-6.0007 -17.972,-6.0852 l -3.175,-0.0594 -0.24071,4.19 c -0.26837,4.6716 -0.9342,4.0887 8.718,7.632 2.0431,0.75003 5.2578,2.5904 7.1438,4.0897 3.7953,3.0172 7.1254,3.5187 9.9992,1.5058 z m -135,-7.0177 c 7.1423,-2.4292 8.786,-3.294 11.946,-6.2851 3.903,-3.6942 3.4136,-6.8239 -1.4553,-9.3079 -3.7289,-1.9024 -9.4217,-2.0109 -14.511,-0.2766 -4.5521,1.5511 -12.84,9.1593 -13.669,12.549 -1.3083,5.3442 7.1,6.9225 17.69,3.3206 z m 163.46,-14.37 c 1.6033,-4.1781 -6.7232,-13.38 -16.385,-18.108 -5.416,-2.6503 -16.295,-6.241 -21.954,-7.2462 -6.7816,-1.2046 -11.244,-2.128 -13.364,-2.7659 -4.1274,-1.2413 -8.5194,-1.7914 -8.0341,-1.0062 0.25109,0.40627 5.1976,2.8172 10.992,5.3575 11.315,4.9607 13.279,6.1702 19.014,11.714 4.505,4.3543 9.2735,7.2205 17.7,10.638 6.9359,2.8135 11.299,3.3271 12.032,1.4164 z m -56.864,-3.6095 c 0,-1.9105 -2.575,-5.5689 -5.7424,-8.1585 -7.0963,-5.8017 -18.898,-9.4256 -25.13,-7.7168 -3.3891,0.92924 -3.4455,0.99663 -1.9844,2.3699 0.82716,0.7774 5.6116,3.2264 10.632,5.4421 5.0205,2.2158 11.271,5.103 13.891,6.4161 4.8779,2.4453 8.3344,3.1284 8.3344,1.6471 z m 67.653,-10.083 c -3.6096,-1.5471 -6.4303,-2.9456 -6.2682,-3.1076 0.33958,-0.33959 14.022,5.2898 14.022,5.7691 0,0.56847 -1.0938,0.19302 -7.7536,-2.6614 z"
       fill="#b0f0ff"
       id="path4"
       style="stroke-width:1.1889" />
    <path
       d="m 411.48,210.62 c 0.85341,-1.3808 -10.447,-2.0337 -36.031,-2.0818 l -25.003,-0.047 -12.303,-2.6029 c -6.7667,-1.4316 -13.732,-3.0242 -15.478,-3.5392 l -3.175,-0.93627 7.9375,-0.86566 -3.175,-1.6847 c -1.7462,-0.92659 -6.2111,-2.6954 -9.9219,-3.9306 -3.7108,-1.2352 -8.5328,-3.555 -10.716,-5.1551 -5.1817,-3.7983 -5.5309,-3.9686 -21.382,-10.425 -20.51,-8.3546 -23.306,-9.3491 -26.279,-9.3491 -3.1426,0 -3.3569,0.59169 -1.2051,3.3273 2.8849,3.6676 14.926,8.9552 37.952,16.666 3.1244,1.0463 4.9609,2.0994 4.9609,2.8447 0,2.6213 -9.5671,-0.44759 -29.941,-9.6042 -5.3352,-2.3978 -11.765,-5.6022 -14.288,-7.1208 -2.523,-1.5186 -6.9089,-3.916 -9.7465,-5.3274 -7.4029,-3.682 -18.074,-10.769 -21.95,-14.578 -1.8316,-1.8001 -6.1904,-5.7732 -9.6861,-8.8291 -3.4957,-3.0559 -6.3802,-5.9524 -6.41,-6.4367 -0.12943,-2.1062 -11.449,-13.15 -23.506,-22.932 -6.8817,-5.5836 -10.694,-9.3097 -15.852,-15.494 -4.1736,-5.0039 -5.4662,-7.3013 -7.5498,-13.419 -3.5828,-10.519 -5.9426,-14.803 -11.047,-20.052 -7.5664,-7.7806 -8.4148,-5.6786 -2.5844,6.4028 3.7567,7.7844 3.782,7.8886 1.8628,7.684 -4.9788,-0.53083 -24.663,-33.592 -36.559,-61.403 -7.7506,-18.12 -16.251,-45.684 -17.177,-55.698 -0.26102,-2.8233 -0.59267,-5.3232 -0.737,-5.5553 -0.14433,-0.23212 1.2222,-0.42204 3.0368,-0.42204 h 3.2992 l 0.2459,-3.4107 c 0.32842,-4.5553 -6.0357,-23.18 -7.9206,-23.18 -0.36279,0 -0.65962,0.69329 -0.65962,1.5407 0,0.84741 -0.32218,1.7398 -0.71596,1.9831 -0.39378,0.24336 -0.95519,-1.7894 -1.2476,-4.5172 -0.29239,-2.7278 -1.0418,-8.5052 -1.6653,-12.839 -1.4649,-10.181 -1.4333,-32.72 0.06517,-46.493 2.2851,-21.003 2.8729,-25.145 5.182,-36.512 2.9318,-14.433 6.004,-25.114 10.194,-35.441 1.7979,-4.4314 3.2689,-8.3826 3.2689,-8.7806 0,-0.39797 0.67795,-2.1301 1.5066,-3.8492 0.82865,-1.7191 1.9247,-4.6836 2.4357,-6.5876 0.54373,-2.026 1.4828,-3.6068 2.264,-3.8111 0.73419,-0.19199 1.7153,-1.1344 2.1803,-2.0943 0.465,-0.9599 2.1545,-4.2552 3.7545,-7.323 1.6,-3.0678 3.155,-6.8183 3.4554,-8.3344 0.51366,-2.592 0.46038,-2.6858 -0.89219,-1.5726 -1.2148,0.9999 -1.1567,0.6297 0.37389,-2.3812 3.8165,-7.5076 9.7049,-17.544 10.076,-17.173 0.21325,0.21326 -1.1242,3.005 -2.9721,6.2038 -4.2714,7.3942 -4.4844,7.9235 -2.0336,5.053 3.0561,-3.5794 6.2442,-9.8769 5.7078,-11.275 -0.29275,-0.76289 1.2315,-3.8154 3.9311,-7.8727 4.4153,-6.6358 5.9314,-8.3428 5.9314,-6.6779 0,1.4828 5.5338,0.16211 10.086,-2.4071 2.2976,-1.2967 4.3553,-2.3576 4.5727,-2.3576 0.21743,0 -0.25983,1.1665 -1.0606,2.5922 -0.80076,1.4257 -1.7213,4.3725 -2.0456,6.5484 -0.53229,3.5712 -2.3892,8.7937 -4.4367,12.478 -1.1873,2.1365 -0.94728,7.7301 0.35307,8.229 3.6144,1.387 9.2345,-5.3373 15.991,-19.132 3.9248,-8.014 4.7794,-13.82 2.5108,-17.059 -1.1848,-1.6916 -1.1202,-2.0504 1.0686,-5.9288 1.2814,-2.2705 2.3298,-4.9332 2.3298,-5.917 0,-3.0766 7.1842,-11.11 16.272,-18.194 9.9453,-7.7535 14.052,-11.684 15.86,-15.181 1.699,-3.2854 0.50983,-3.6797 -6.0384,-2.0019 -5.602,1.4353 -7.3049,2.3666 -11.872,6.4923 -1.7103,1.5451 -3.1096,2.6102 -3.1096,2.3667 0,-0.8574 17.964,-16.249 26.591,-22.784 13.475,-10.207 24.501,-17.214 34.925,-22.195 13.669,-6.5323 13.787,-6.5733 15.103,-5.2577 0.95167,0.95167 0.66041,1.4086 -2.035,3.1923 -4.7093,3.1164 -4.1181,3.965 2.344,3.3644 3.0193,-0.28062 6.1041,-0.74602 6.8552,-1.0342 2.2735,-0.87244 1.1027,0.7458 -6.3153,8.7286 -9.4649,10.186 -10.163,11.291 -9.6103,15.224 0.41938,2.9869 -0.002,3.8682 -6.6313,13.891 -9.5612,14.454 -9.6526,14.538 -20.008,18.582 -4.1158,1.607 -8.5548,3.3984 -9.8645,3.9809 -1.3097,0.58249 -3.1325,1.2848 -4.0507,1.5608 -3.2715,0.98312 -9.3429,5.9891 -11.535,9.5107 -1.2251,1.9682 -3.1578,6.8877 -4.2949,10.932 -1.7993,6.3995 -2.5195,7.7929 -5.5506,10.739 -5.4973,5.3429 -6.0498,6.8468 -8.0069,21.795 -0.70874,5.4132 0.68199,5.9469 10.988,4.2163 12.857,-2.159 15.943,-1.122 19.346,6.5014 2.3904,5.3552 5.0106,6.3843 11.772,4.6232 8.4798,-2.2087 19.604,-7.4065 26.367,-12.32 8.9214,-6.4818 11.33,-7.4073 17.858,-6.8628 7.0065,0.58437 18.939,4.2514 20.818,6.3977 2.2851,2.6103 1.5213,12.516 -1.3418,17.402 -2.1911,3.7388 -2.6978,7.5253 -1.3452,10.053 0.42712,0.79809 3.7311,3.4018 7.3422,5.7861 4.6112,3.0446 10.393,8.2678 19.423,17.547 16.193,16.639 16.36,16.667 25.628,4.3679 8.4891,-11.266 14.107,-24.954 12.879,-31.379 -0.59395,-3.1071 -5.3772,-7.35 -13.049,-11.575 -10.018,-5.5173 -10.15,-5.758 -9.926,-18.139 l 0.18503,-10.225 1.9844,-0.10985 c 9.5619,-0.52932 13.461,1.0859 20.473,8.4817 5.2621,5.5498 5.8086,5.9092 8.9872,5.9092 3.0565,0 3.7507,-0.3963 7.1641,-4.0898 4.172,-4.5144 10.178,-15.619 10.438,-19.298 0.15586,-2.2085 -0.13982,-2.4635 -4.8114,-4.1493 -2.7376,-0.98788 -7.6639,-3.5674 -10.947,-5.7322 -8.4151,-5.5483 -10.014,-5.944 -21.536,-5.328 l -9.767,0.52214 v -1.8203 c 0,-6.6365 -9.5029,-8.6944 -19.447,-4.2114 -4.906,2.2118 -8.1952,5.5346 -12.273,12.398 -1.7322,2.9156 -4.47,6.4607 -6.0841,7.8779 -2.7393,2.4052 -3.2036,2.5418 -6.9733,2.0528 -12.926,-1.6766 -13.051,-1.6621 -19.517,2.2626 -8.6333,5.2407 -13.799,4.7702 -15.85,-1.4437 -0.74309,-2.2516 -0.61645,-3.4654 0.7658,-7.3397 4.0624,-11.387 3.8937,-12.338 -2.9525,-16.652 -2.5218,-1.5888 -5.3887,-3.6172 -6.371,-4.5076 -3.7049,-3.358 -1.3996,-9.555 4.6836,-12.59 9.216,-4.5986 25.421,-9.389 31.761,-9.389 5.7723,0 8.2318,-0.95051 12.172,-4.7042 1.7462,-1.6634 7.1041,-5.7688 11.906,-9.1231 4.8022,-3.3543 11.834,-9.141 15.626,-12.86 6.2225,-6.1019 7.06,-6.6723 8.5922,-5.8523 5.5813,2.987 22.493,-1.1231 28.765,-6.9906 2.1609,-2.0218 2.9169,-5.7583 1.5754,-7.7861 -2.7597,-4.1712 -14.445,-4.6168 -21.255,-0.81049 -4.1606,2.3254 -5.0897,1.9643 -5.1127,-1.9871 -0.0162,-2.7841 2.1618,-4.1127 11.679,-7.1246 10.6,-3.3546 11.219,-3.7201 13.319,-7.863 1.0128,-1.9986 2.978,-4.745 4.3672,-6.1033 1.8436,-1.8025 2.3873,-2.9059 2.013,-4.0853 -0.42644,-1.3436 -1.4423,-1.7074 -6.0296,-2.1595 -3.0342,-0.29899 -5.5168,-0.80394 -5.5168,-1.1221 0,-0.31818 1.752,-1.4874 3.8932,-2.5984 6.2026,-3.218 15.546,-4.1097 43.335,-4.1357 23.938,-0.0223 24.693,0.0248 27.781,1.7348 6.9394,3.8419 10.169,5.113 15.681,6.1719 3.5211,0.67641 10.237,3.1377 17.323,6.3491 9.9635,4.5152 12.303,5.94 16.826,10.246 5.8043,5.5256 12.934,9.6289 22.045,12.687 7.3059,2.4525 9.4839,2.1242 9.4839,-1.4295 0,-5.1664 -8.4534,-13.383 -18.308,-17.795 -6.6571,-2.9805 -14.119,-5.1517 -25.214,-7.3365 -8.7999,-1.7328 -8.9399,-1.7937 -6.4925,-2.8228 1.3758,-0.57846 2.2765,-1.4156 2.0017,-1.8603 -0.70423,-1.1395 -0.97518,-1.1892 15.282,2.8044 10.056,2.4703 16.114,4.401 19.155,6.1045 2.446,1.3703 6.2332,3.3543 8.416,4.4089 2.1828,1.0546 5.664,3.128 7.7359,4.6076 4.6877,3.3475 20.626,11.001 31.158,14.961 4.3656,1.6417 11.509,4.7369 15.875,6.8782 8.4631,4.151 11.744,5.018 8.3344,2.2025 -4.0729,-3.3634 5.9959,2.8905 14.684,9.1208 15.101,10.828 39.291,31.805 39.291,34.071 0,0.46695 3.1254,4.0859 6.9453,8.0421 21.113,21.867 34.431,40.02 44.872,61.168 2.5866,5.2388 4.9733,9.7036 5.3038,9.9219 0.96288,0.63587 3.2037,5.3588 3.2037,6.7523 0,0.70117 1.7542,5.6302 3.8982,10.953 2.144,5.3232 4.8475,12.358 6.0078,15.632 2.108,5.9486 4.5187,21.513 3.5698,23.048 -0.2762,0.44691 -1.122,-1.4306 -1.8796,-4.1723 -1.6816,-6.0859 -3.1999,-8.5568 -5.2577,-8.5568 -0.85936,0 -2.0086,-0.71437 -2.5539,-1.5875 -0.54527,-0.87312 -1.4154,-1.5875 -1.9336,-1.5875 -1.5277,0 -6.1337,-8.4282 -10.194,-18.653 -2.0802,-5.2387 -4.0901,-9.8643 -4.4665,-10.279 -0.3764,-0.41473 -0.68436,-1.3761 -0.68436,-2.1364 0,-2.4741 -16.346,-18.144 -18.926,-18.144 -1.7064,0 -0.93064,4.9366 1.5437,9.8237 1.3535,2.6734 2.7511,5.2179 3.1056,5.6544 1.634,2.0118 5.6196,13.665 6.405,18.727 0.4797,3.0917 1.4896,7.4654 2.2443,9.7193 1.462,4.3664 1.2693,4.2197 12.375,9.4185 3.3288,1.5583 4.6365,2.8791 8.1094,8.1905 4.3584,6.6655 10.309,13.873 11.454,13.873 0.37244,0 0.71307,-2.0538 0.75696,-4.5641 0.0714,-4.0832 0.23271,-3.6022 1.531,4.5641 1.4775,9.2932 2.9452,16.44 7.009,34.131 2.7623,12.025 3.3357,18.74 3.3262,38.952 -0.006,13.19 -0.30945,17.172 -2.0079,26.368 -1.1003,5.9575 -1.9974,12.539 -1.9936,14.626 0.0113,6.1844 0.94331,12.129 1.9017,12.129 1.1011,0 3.3381,-6.2203 4.081,-11.348 0.30338,-2.0938 0.7306,-3.628 0.94939,-3.4092 0.61051,0.61051 -1.327,13.162 -2.5842,16.741 -0.6134,1.7462 -1.8774,6.0998 -2.8088,9.6745 -1.1391,4.3719 -2.8237,8.2202 -5.146,11.756 -4.8165,7.3333 -5.4413,9.6593 -4.7771,17.784 0.30681,3.7528 0.5492,7.5044 0.53866,8.3369 -0.0638,5.0386 -20.438,49.545 -22.987,50.214 -1.7444,0.4581 -15.509,22.281 -19.441,30.822 -2.4197,5.2564 -29.259,36.512 -31.353,36.512 -0.32896,0 -2.0638,1.1609 -3.8552,2.5797 -3.82,3.0255 -5.0813,3.1575 -8.7142,0.9123 -3.2273,-1.9946 -5.3878,-1.6402 -10.707,1.7562 -4.947,3.159 -10.397,9.1073 -12.938,14.122 -1.1434,2.2565 -3.3332,5.4909 -4.8662,7.1877 -3.6959,4.0909 -14.62,11.517 -14.62,9.9388 0,-1.4627 -0.56604,-1.4646 -4.6737,-0.0152 -3.9841,1.4056 -14.376,8.0151 -14.376,9.1434 0,0.44537 -0.54699,0.80976 -1.2155,0.80976 -0.66855,0 -1.4099,0.50656 -1.6475,1.1257 -0.23758,0.61914 -2.9946,2.3743 -6.1266,3.9004 -4.779,2.3286 -6.9072,2.8645 -13.235,3.3331 -8.4996,0.62937 -14.725,2.6135 -17.778,5.6661 -2.7234,2.7234 -2.6101,3.577 0.71193,5.3661 3.0057,1.6187 3.4554,2.871 1.5875,4.4211 -0.65484,0.54347 -1.1906,1.4242 -1.1906,1.9572 0,2.2052 -34.113,11.739 -53.975,15.084 -17.254,2.9063 -38.579,5.0126 -37.787,3.7324 z m 16.191,-10.113 c 3.365,-0.6849 8.5282,-2.1056 11.474,-3.1572 2.9456,-1.0516 7.5891,-2.4323 10.319,-3.0683 13.469,-3.1382 28.38,-10.008 31.259,-14.402 1.0278,-1.5687 1.0846,-2.1792 0.29163,-3.1348 -1.5707,-1.8925 -6.2062,-1.4185 -19.444,1.9884 -6.7851,1.7462 -13.159,3.175 -14.164,3.175 -1.0053,0 -4.8112,0.89297 -8.4575,1.9844 -9.4292,2.8223 -9.0518,2.9806 -8.4456,-3.5424 0.46027,-4.9522 0.35376,-5.6124 -1.0245,-6.35 -3.3917,-1.8152 -9.091,-0.31245 -10.129,2.6707 -0.7532,2.1647 -0.30382,8.5395 0.6876,9.7543 0.42423,0.51978 1.7274,1.0693 2.896,1.2212 1.9508,0.25351 1.8648,0.35447 -1.0503,1.2333 -4.1504,1.2513 -12.426,1.235 -14.153,-0.0279 -0.74757,-0.54664 -1.5442,-2.0647 -1.7704,-3.3734 -0.70279,-4.0674 -1.2462,-5.385 -4.5822,-11.111 -6.6854,-11.475 -8.4991,-12.705 -17.944,-12.171 -4.6401,0.26219 -5.9466,0.70444 -9.683,3.2778 -3.1604,2.1767 -5.6946,3.198 -9.4465,3.807 -9.0676,1.4718 -21.985,-1.3323 -26.747,-5.8065 -1.35,-1.2682 -1.8005,-2.5888 -1.8147,-5.319 -0.0104,-1.9976 -0.8758,-5.7162 -1.9232,-8.2635 -4.1897,-10.19 -7.7968,-13.036 -21.355,-16.848 -9.9482,-2.7971 -15.08,-6.1052 -23.167,-14.934 -6.8298,-7.4561 -8.2633,-9.639 -4.6452,-7.0732 4.6426,3.2923 9.69,4.4041 21.74,4.7889 18.521,0.59134 20.305,-0.49202 15.665,-9.5122 -2.2742,-4.4208 -2.966,-6.7014 -2.9655,-9.7771 7.9e-4,-7.4311 -5.3886,-15.154 -13.656,-19.568 -3.2539,-1.7374 -4.1685,-1.818 -20.078,-1.77 l -16.669,0.05032 -7.901,3.4093 c -6.2459,2.6951 -9.1659,3.496 -13.939,3.8232 l -6.0381,0.41386 -3.261,-3.815 c -5.9262,-6.9331 -6.1927,-13.079 -1.0396,-23.975 1.834,-3.8781 2.9568,-5.2053 5.5021,-6.5038 3.881,-1.9799 4.6467,-2.0016 11.221,-0.31713 6.9166,1.7723 8.9682,1.1781 10.679,-3.093 3.5247,-8.798 4.5121,-23.35 2.3836,-35.131 -1.5979,-8.8437 -1.4423,-15.033 0.50889,-20.241 2.0559,-5.4875 4.6316,-16.955 4.6492,-20.7 0.009,-1.8521 -0.82511,-4.1063 -2.3963,-6.4783 -2.4148,-3.6456 -13.852,-15.032 -22.483,-22.384 -4.0368,-3.4383 -4.7952,-3.8018 -6.1574,-2.9512 -1.3528,0.84482 -1.8316,0.64141 -3.7064,-1.5744 -3.0972,-3.6605 -4.7242,-6.498 -7.0323,-12.263 -2.3957,-5.9844 -4.6168,-9.0553 -6.5492,-9.0553 -4.4393,0 -9.8515,12.863 -8.4825,20.16 1.038,5.5328 9.6465,14.542 17.42,18.231 2.7929,1.3253 2.8885,1.5116 2.8885,5.6292 0,7.3333 2.1604,16.128 5.9566,24.249 4.2251,9.0386 4.1501,9.692 -1.7302,15.075 -6.6112,6.0523 -8.4023,7.4478 -14.148,11.023 -7.1537,4.4513 -9.6474,6.8008 -11.898,11.21 -1.0055,1.97 -3.627,6.5433 -5.8254,10.163 -2.1984,3.6196 -4.2388,7.681 -4.534,9.0253 -0.53549,2.4381 -0.54023,2.4341 -1.9027,-1.5906 -3.9698,-11.727 -14.953,-20.392 -31.384,-24.76 -7.153,-1.9016 -6.8812,-1.7374 -13.982,-8.4476 -4.9675,-4.6941 -8.4165,-6.565 -10.14,-5.5001 -1.4183,0.87659 -1.825,5.1344 -0.91097,9.5375 0.54315,2.6163 2.5661,7.1216 5.086,11.327 4.9714,8.2964 7.1546,9.7576 14.581,9.7595 3.5263,7.93e-4 7.4146,0.80163 13.375,2.7546 7.9323,2.5988 8.7337,3.0666 14.279,8.3344 3.2505,3.0876 6.5836,5.581 7.4605,5.581 1.891,0 1.9019,0.0866 0.44679,3.5691 -0.7992,1.9128 -1.8042,2.8717 -3.3734,3.2189 -6.1226,1.3547 -6.1889,1.4122 -6.4305,5.5775 -0.18619,3.2092 0.32825,5.0396 2.8826,10.256 3.3113,6.7627 5.3133,9.2893 11.632,14.679 3.7755,3.2209 19.306,17.538 26.161,24.117 1.764,1.693 5.1902,4.6367 7.6136,6.5416 2.4235,1.9049 7.0513,6.3784 10.284,9.9413 l 5.8777,6.4779 -5.1246,-0.56575 c -2.8186,-0.31117 -8.2031,-1.6158 -11.966,-2.8992 -8.5727,-2.9241 -11.018,-3.0299 -11.018,-0.47686 0,2.7448 3.6667,7.0014 9.7806,11.354 15.556,11.075 18.741,13.13 22.594,14.579 6.4393,2.4222 13.662,1.8384 13.662,-1.1043 0,-0.57182 0.66334,-1.64 1.4741,-2.3737 1.3838,-1.2523 1.7039,-1.2355 5.2252,0.27385 2.0631,0.88434 4.4837,1.6079 5.3791,1.6079 5.257,0 13.322,5.0686 13.322,8.3726 0,0.79106 -1.6384,2.9641 -3.641,4.8289 -2.8493,2.6534 -4.4457,3.4964 -7.3422,3.8768 -6.6422,0.87256 -8.1676,1.3105 -8.6136,2.4729 -0.73724,1.9212 1.9619,4.0281 10.542,8.2289 14.656,7.1756 36.836,13.495 47.365,13.495 3.4059,0 7.4219,0.53327 9.4134,1.25 5.5288,1.9897 10.526,2.2845 13.509,0.79679 3.0912,-1.5421 7.1642,-0.90625 17.799,2.7788 11.833,4.1002 38.821,5.9288 50.978,3.4542 z m 37.74,-41.965 c 6.1152,-1.17 13.402,-3.8225 23.05,-8.3909 4.9079,-2.3238 5.9565,-2.5384 10.384,-2.1249 2.7088,0.25294 7.322,1.062 10.252,1.7979 5.06,1.271 5.4853,1.2665 8.4953,-0.0908 3.8946,-1.7562 7.9411,-6.1288 10.688,-11.549 2.5717,-5.075 2.1654,-7.1025 -1.7954,-8.96 -11.859,-5.5618 -14.179,-11.645 -8.2771,-21.705 4.0532,-6.9081 7.9855,-11.444 13.372,-15.422 4.8868,-3.6101 12.904,-13.934 14.92,-19.211 0.93679,-2.4529 1.2218,-4.8337 0.93132,-7.7799 -1.4056,-14.257 -3.2116,-19.126 -7.5292,-20.298 -6.1294,-1.6637 -14.675,0.60631 -16.067,4.268 -0.3895,1.0245 -1.0099,1.8627 -1.3787,1.8627 -1.662,0 -7.7474,-6.2883 -11.424,-11.805 -6.9935,-10.493 -6.8845,-10.42 -15.509,-10.42 -8.3653,0 -11.489,-1.1212 -15.838,-5.6851 -3.1723,-3.3287 -3.9212,-6.0928 -2.2232,-8.2055 0.96952,-1.2063 1.3812,-1.3308 1.7147,-0.5184 0.9107,2.2189 5.1298,6.3438 7.7702,7.5968 5.6786,2.6947 8.4974,-0.10035 8.6582,-8.5853 0.11523,-6.0808 0.2817,-6.1151 7.7589,-1.599 6.4082,3.8705 9.4368,3.7182 13.677,-0.68786 1.798,-1.8683 4.8657,-5.4719 6.8172,-8.0079 1.9515,-2.5361 4.6304,-5.3523 5.9531,-6.2583 10.069,-6.8967 23.602,-19.378 25.97,-23.952 3.0183,-5.8291 -0.0738,-14.33 -7.5356,-20.717 -5.8041,-4.9681 -11.19,-5.1497 -17.707,-0.59705 -1.697,1.1855 -8.0725,4.6772 -14.168,7.7594 -9.7465,4.9285 -11.503,6.1275 -14.572,9.948 -6.7015,8.343 -22.033,23.263 -29.837,29.036 -9.6978,7.1742 -11.002,8.9303 -10.347,13.934 0.44489,3.4013 -0.39371,6.6374 -2.0234,7.8083 -1.725,1.2393 -11.434,14.148 -13.291,17.671 -2.1695,4.1161 -2.1889,4.2867 -1.966,17.254 0.19056,11.086 0.46422,13.591 1.7825,16.317 3.1382,6.4887 4.936,7.4275 17.195,8.9802 11.835,1.499 18.242,6.3642 20.564,15.616 0.41713,1.662 0.21009,1.9494 -1.4046,1.9494 -2.6125,0 -5.139,1.9393 -5.7624,4.423 -0.66946,2.6673 0.57017,4.1305 4.053,4.7839 2.3122,0.43378 2.693,0.79088 2.3501,2.2038 -0.2251,0.92739 -0.65967,4.0079 -0.9657,6.8455 -0.30603,2.8376 -0.84774,5.9444 -1.2038,6.9038 -1.1119,2.9961 -6.4047,8.2167 -10.365,10.223 -6.9122,3.5027 -11.987,2.3497 -19.325,-4.3911 -1.3097,-1.203 -4.1672,-3.3792 -6.35,-4.836 -2.1828,-1.4568 -6.9744,-4.9051 -10.648,-7.663 -3.6735,-2.7578 -8.0612,-5.4283 -9.7503,-5.9344 -4.1359,-1.2392 -15.989,0.26203 -26.036,3.2975 -4.1473,1.253 -10.477,3.0731 -14.066,4.0447 -11.237,3.0421 -12.157,6.0922 -3.1136,10.324 3.4924,1.6343 8.0014,2.7672 15.61,3.9221 5.8842,0.8932 11.333,1.8176 12.107,2.0542 2.8056,0.85672 6.8529,6.0049 8.1039,10.308 2.5415,8.7423 6.3146,12.387 15.51,14.983 5.252,1.4824 23.356,1.0842 32.793,-0.7213 z M 388.384,143.89 c 1.4092,-1.4092 -0.16532,-3.2977 -4.3893,-5.2642 -4.3094,-2.0063 -10.432,-2.6119 -11.352,-1.1229 -1.6352,2.6458 1.9434,5.9707 7.9654,7.4008 2.1973,0.52181 6.8465,-0.0843 7.776,-1.0138 z m 172.64,-4.8198 c 5.243,-3.798 6.4172,-7.915 1.9366,-6.7905 -1.619,0.40635 -1.3283,-0.0202 1.4666,-2.152 3.8224,-2.9155 7.0759,-7.2156 7.0759,-9.3522 0,-2.0012 -4.6877,-2.5063 -10.136,-1.0921 -2.5018,0.64943 -4.6678,1.5211 -4.8134,1.9369 -0.14552,0.4159 -0.70377,0.75617 -1.2406,0.75617 -1.7413,0 -5.1039,4.2917 -5.6371,7.1946 -0.66964,3.6456 0.88065,5.0982 4.7678,4.4674 1.5243,-0.24735 2.7714,-0.25586 2.7714,-0.0189 0,0.23696 -0.89297,1.4921 -1.9844,2.7891 -1.0914,1.2971 -1.9844,2.8667 -1.9844,3.488 0,1.9567 4.3242,1.2746 7.7772,-1.2266 z m -384.01,-33.378 c 0,-2.5549 -10.643,-15.065 -12.816,-15.065 -2.4728,0 2.4116,10.357 6.5113,13.807 2.4332,2.0474 6.3047,2.8202 6.3047,1.2585 z m 417.25,-4.0195 c 6.8275,-3.3051 18.566,-19.769 15.462,-21.687 -1.0969,-0.67793 -4.7826,2.5118 -14.315,12.389 -4.9308,5.1089 -8.7338,9.663 -8.4512,10.12 0.80145,1.2968 3.5708,0.98491 7.3044,-0.8225 z m -391.08,-5.8191 c 2.962,-7.7905 -12.065,-21.939 -22.265,-20.963 -3.3258,0.31805 -3.7696,1.8715 -1.919,6.7173 2.2166,5.8041 6.8526,10.932 12.38,13.694 6.2645,3.1304 10.744,3.3397 11.804,0.55158 z m 226.89,-3.9195 c 4.6478,-2.5792 6.3614,-9.571 3.2995,-13.463 -1.4016,-1.7819 -7.9041,-5.7654 -19.999,-12.252 -1.8592,-0.99706 -4.7288,-1.7859 -6.4965,-1.7859 -2.8191,0 -3.6642,-0.51196 -7.7066,-4.6689 -3.778,-3.8849 -4.6336,-5.2905 -5.0955,-8.3709 -0.69158,-4.6118 0.0124,-9.224 2.0035,-13.127 1.7507,-3.4316 5.6756,-7.0167 8.2109,-7.5 11.758,-2.2414 15.16,-3.7674 18.984,-8.516 2.9909,-3.7145 3.2804,-8.8223 0.70495,-12.439 -1.9048,-2.6751 -8.2608,-6.0223 -13.187,-6.9446 -4.6618,-0.87282 -7.5552,-4.1093 -7.5552,-8.4512 0,-7.1562 4.3562,-12.301 17.179,-20.289 8.5277,-5.3123 9.3686,-7.2309 12.538,-28.607 1.4523,-9.7939 3.6052,-14.518 8.0984,-17.772 4.4434,-3.2173 7.2184,-3.0608 15.501,0.87423 11.124,5.285 16.538,4.2958 16.529,-3.0202 -0.0101,-8.291 -2.392,-11.703 -11.672,-16.72 -5.7907,-3.1305 -8.5893,-6.3658 -9.443,-10.917 -1.4547,-7.7542 8.6249,-15.577 24.327,-18.88 2.9256,-0.61542 8.1335,-2.2837 11.573,-3.7073 5.8954,-2.44 6.7999,-2.5867 15.779,-2.5589 10.761,0.0333 15.279,1.3082 22.832,6.4424 5.9575,4.0497 12.031,6.5775 15.804,6.5775 1.7978,0 6.6139,-1.0716 10.702,-2.3812 4.0886,-1.3097 9.1583,-2.3812 11.266,-2.3812 4.543,0 14.364,2.3936 19.591,4.7746 2.0487,0.93328 5.6274,2.0959 7.9528,2.5837 4.1242,0.86507 4.3752,0.81103 10.236,-2.2039 9.7089,-4.9946 13.585,-3.982 18.551,4.8463 5.0553,8.9873 7.0408,10.167 18.591,11.045 8.52,0.64749 8.0203,1.4875 9.2139,-15.489 1.0116,-14.388 1.5798,-16.739 5.3833,-22.268 4.478,-6.5098 5.271,-9.0798 5.3754,-17.419 0.19781,-15.801 -2.8749,-29.664 -7.6283,-34.418 -2.0235,-2.0235 -2.6331,-2.2194 -5.2302,-1.681 -1.6169,0.33519 -4.5251,0.64713 -6.4627,0.6932 -3.2444,0.0772 -3.725,-0.18017 -6.0776,-3.2544 -2.8126,-3.6752 -7.7835,-15.742 -11.051,-26.826 -1.936,-6.5676 -2.0668,-7.9005 -1.6263,-16.57 0.33121,-6.5174 0.87311,-10.095 1.7555,-11.588 1.1086,-1.8767 1.1328,-2.4542 0.18368,-4.3917 -1.8151,-3.7055 -4.7962,-5.3246 -10.821,-5.8768 -3.3081,-0.30322 -6.3899,-1.099 -7.7778,-2.0085 -5.9316,-3.8866 -14.715,-13.571 -26.588,-29.316 -12.543,-16.633 -11.655,-14.939 -13.978,-26.67 -0.47734,-2.4104 -5.9496,-7.7574 -8.6268,-8.4294 -1.4152,-0.35518 -1.9606,-1.0312 -1.9606,-2.4298 0,-7.0406 -14.232,-21.703 -21.066,-21.703 -1.8695,0 -0.75351,8.1582 1.7021,12.443 1.9812,3.457 7.0855,8.1944 8.8291,8.1944 1.9338,0 0.99263,1.2644 -1.5026,2.0187 -3.8464,1.1627 -4.3898,2.7056 -2.7666,7.8549 0.87857,2.7871 1.3342,6.4645 1.2325,9.9472 -0.1071,3.6679 0.19704,5.9572 0.9047,6.8098 0.58631,0.70647 3.5065,2.5135 6.4893,4.0156 6.9924,3.5213 11.517,7.6465 13.835,12.613 3.6185,7.754 1.6577,12.159 -6.1585,13.835 -5.124,1.0989 -8.0809,-0.1012 -13.431,-5.4509 -5.3447,-5.3447 -8.9279,-12.791 -8.2359,-17.116 0.27946,-1.7462 0.81595,-3.7619 1.1922,-4.4792 0.47095,-0.89787 0.17308,-1.9539 -0.95602,-3.3893 -2.6224,-3.3339 -5.6033,-4.4346 -12.009,-4.4346 -10.874,0 -19.262,-3.3587 -22.839,-9.1451 -2.5871,-4.1861 -2.3079,-7.8217 1.0929,-14.23 1.634,-3.079 2.8864,-6.5733 2.8864,-8.053 0,-1.4377 -1.1867,-5.5808 -2.6371,-9.2069 -1.4504,-3.6261 -3.2775,-8.9147 -4.0601,-11.752 -3.1526,-11.431 -5.6649,-13.775 -21.278,-19.86 -12.862,-5.0123 -14.956,-6.0818 -24.006,-12.26 -8.8989,-6.0757 -11.394,-6.6258 -32.693,-7.2081 -17.177,-0.46961 -21.554,0.12073 -29.828,4.0224 -7.0328,3.3167 -13.204,4.9703 -21.891,5.8655 -12.36,1.2738 -10.627,3.8502 5.1357,7.6367 11.52,2.7672 12.927,3.2611 23.789,8.3496 3.6811,1.7245 6.854,3.1354 7.051,3.1354 0.19696,0 2.2439,0.86077 4.5488,1.9128 2.3049,1.052 6.5124,2.6755 9.3501,3.6077 6.6298,2.1779 8.7344,4.4476 8.7218,9.4066 -0.006,2.0493 -0.53673,5.6906 -1.1812,8.0917 -1.8183,6.7744 -1.5679,8.0036 2.8479,13.981 2.2212,3.0065 4.5715,6.7165 5.223,8.2444 1.795,4.2099 0.95676,9.6941 -2.8318,18.527 -2.9166,6.7996 -3.4412,8.9282 -4.0516,16.438 -0.38562,4.7446 -1.3022,12.542 -2.0368,17.327 -1.4574,9.4935 -1.1447,13.411 1.243,15.572 2.0122,1.821 1.5206,2.481 -3.5022,4.7023 -2.6241,1.1605 -5.2218,3.1408 -7.0556,5.3788 -3.3841,4.1299 -6.3093,10.301 -5.6712,11.964 1.0544,2.7477 14.145,6.1358 23.707,6.1358 3.7472,0 6.8131,0.13497 6.8131,0.29994 0,0.16497 -0.53703,1.5852 -1.1934,3.1561 -0.65636,1.5709 -1.9013,5.9901 -2.7665,9.8204 -2.7264,12.07 -4.6138,14.027 -11.872,12.314 -5.4989,-1.2981 -15.141,-4.2056 -18.696,-5.6375 -4.7907,-1.9297 -10.622,-7.758 -13.212,-13.206 -2.5526,-5.3684 -2.8696,-9.6001 -1.0123,-13.514 0.68939,-1.4528 1.1359,-3.4713 0.99219,-4.4856 -0.63843,-4.5062 -11.991,-1.4503 -17.369,4.6756 -2.3398,2.6649 -2.4995,3.2028 -2.0998,7.075 0.24146,2.3394 1.7549,7.1001 3.4257,10.776 2.6194,5.763 3.036,7.517 3.336,14.046 0.40174,8.7428 -0.55374,13.734 -4.3088,22.507 -4.236,9.8969 -3.5844,12.461 4.1537,16.343 4.1636,2.0888 7.2293,5.7238 7.9164,9.3866 0.80381,4.2847 -0.20441,14.359 -1.9391,19.375 -0.84215,2.4354 -3.536,8.3024 -5.9864,13.038 -5.2002,10.049 -5.4198,11.972 -2.4866,21.772 2.6269,8.7764 3.1891,13.516 2.0225,17.051 -1.0696,3.2408 -4.4437,7.6191 -5.8476,7.5879 -0.5069,-0.01127 -1.6177,-1.5293 -2.4684,-3.3734 -3.8863,-8.4247 -12.999,-14.589 -20.502,-13.868 -5.438,0.52252 -7.8578,3.0511 -8.3264,8.7007 -0.47853,5.7704 1.6945,16.692 4.1572,20.895 1.1096,1.8933 1.7086,3.6332 1.3313,3.8664 -0.37732,0.2332 -1.9821,2.3093 -3.5661,4.6136 -4.7324,6.8841 -8.4247,22.269 -9.1973,38.321 -0.55175,11.464 -0.86765,13.434 -3.2467,20.241 -4.7213,13.509 -3.1974,20.496 6.1651,28.268 9.2567,7.6838 11.316,9.9893 11.316,12.669 0,3.2251 2.5317,6.4212 5.6243,7.1005 4.4387,0.97491 8.5784,9.1152 9.8819,19.432 1.2059,9.5446 3.4946,10.555 13.734,6.0636 6.4136,-2.8133 13.606,-4.7979 20.622,-5.6905 3.7427,-0.47611 4.8058,-0.24961 9.3656,1.9952 5.3409,2.6293 8.8653,5.6783 14.083,12.184 4.0625,5.0648 6.4891,6.1006 9.8816,4.2181 z m 181.32,-241.53 c -0.98227,-0.21462 -1.7859,-0.69515 -1.7859,-1.0679 0,-1.7418 -5.0024,-6.2575 -11.886,-10.729 -4.1586,-2.7016 -9.3964,-6.9305 -11.64,-9.3974 -2.2431,-2.467 -4.5747,-4.4854 -5.1812,-4.4854 -1.3903,0 -4.2716,1.9127 -7.6538,5.0809 -2.473,2.3166 -2.9813,2.4582 -8.7312,2.4329 -4.316,-0.019 -8.4317,-0.70092 -14.043,-2.3267 -14.915,-4.3215 -21.422,-9.3903 -25.465,-19.835 -1.114,-2.8781 -3.9165,-6.4397 -10.452,-13.283 -10.038,-10.511 -10.774,-12.243 -6.35,-14.94 3.3408,-2.0369 3.6507,-1.9968 4.6382,0.6005 2.4974,6.5685 11.037,12.108 18.665,12.108 6.2032,0 16.122,-3.403 20.879,-7.1638 2.1952,-1.7352 4.3269,-3.155 4.7371,-3.155 1.1193,0 10.793,-11.11 12.38,-14.219 0.98256,-1.9243 1.2828,-3.924 1.036,-6.9 -0.39894,-4.8107 0.28763,-4.8374 4.6122,-0.17909 3.969,4.2753 6.9038,9.2397 10.813,18.291 6.8735,15.915 9.9646,19.098 26.816,27.611 14.841,7.4971 18.212,12.405 18.346,26.709 0.0653,6.9808 -1.7583,11.778 -5.1424,13.528 -2.4638,1.2741 -11.19,2.0636 -14.592,1.3202 z m -63.448,-100.14 c -13.919,-3.1376 -14.254,-3.41 -8.0745,-6.5623 3.3869,-1.7279 7.0979,-1.9656 9.6619,-0.61887 1.4198,0.74574 5.0422,3.6286 12.013,9.5602 1.0725,0.91268 0.75678,0.85745 -13.6,-2.379 z m 85.108,329.12 c 4.0088,-2.7469 6.9796,-8.1542 7.3586,-13.394 0.35889,-4.9616 -0.31259,-5.9779 -3.4321,-5.195 -4.2778,1.0737 -10.408,14.825 -8.3349,18.698 1.0757,2.0099 1.324,2.0037 4.4084,-0.10978 z m 33.807,-38.167 c 3.4737,-5.612 4.9277,-11.23 4.3544,-16.826 -0.45,-4.3923 0.20924,-10.215 2.3637,-20.876 0.82751,-4.0949 -1.2591,-3.2127 -5.819,2.4603 -1.9606,2.4392 -10.02,16.096 -11.887,20.143 -2.4326,5.2726 -2.9006,13.758 -0.87084,15.788 1.1686,1.1686 4.982,2.3205 8.5813,2.5921 0.65484,0.04945 2.1299,-1.4275 3.2778,-3.2822 z m -71.497,-5.7854 c 3.5208,-2.5976 5.1743,-5.2956 12.32,-20.102 7.8607,-16.289 8.9879,-20.185 10.086,-34.868 l 0.90824,-12.14 2.7673,-2.1107 c 1.522,-1.1609 4.8168,-4.1287 7.3218,-6.595 2.505,-2.4664 5.6474,-4.937 6.9832,-5.4903 2.2088,-0.9149 2.6732,-0.81958 5.1274,1.0523 3.7638,2.8708 5.9099,7.8186 6.9709,16.072 1.1906,9.2608 2.4222,12.224 5.0812,12.224 3.3376,0 4.7345,-1.2638 7.0159,-6.3476 3.0579,-6.8139 3.2647,-11.16 1.283,-26.965 -1.962,-15.647 -2.9448,-18.816 -6.2195,-20.052 -2.1625,-0.81624 -2.2274,-0.99351 -1.6487,-4.5004 1.1445,-6.9354 0.80577,-12.988 -0.88173,-15.755 -0.86508,-1.4188 -2.1001,-2.5797 -2.7446,-2.5797 -1.2869,0 -1.3917,0.34887 -5.2459,17.462 -1.4256,6.3302 -2.9812,11.799 -3.4567,12.153 -0.47554,0.35408 -3.9618,0.44928 -7.7473,0.21154 -5.059,-0.31771 -7.7911,-0.11174 -10.311,0.77735 -2.7297,0.9631 -3.7884,1.0169 -5.195,0.26413 -2.3626,-1.2644 -3.3899,-0.34679 -8.6574,7.7328 -4.0814,6.2604 -8.1062,14.217 -10.292,20.347 -1.7053,4.7821 -3.4532,18.39 -3.9462,30.722 -0.48204,12.057 -0.68595,12.792 -5.2224,18.834 -3.1988,4.26 -3.8252,9.4349 -1.8682,15.432 2.2752,6.9718 3.169,7.4702 7.5717,4.222 z m -280.13,-5.6998 c 2.9613,-1.3197 3.8709,-2.216 4.6525,-4.5841 1.9891,-6.027 -1.3837,-14.623 -7.1709,-18.277 -5.6675,-3.5777 -15.794,-1.8346 -18.549,3.1927 -0.47842,0.87312 -1.3163,1.8731 -1.862,2.2223 -0.54571,0.34912 -0.99219,1.123 -0.99219,1.7198 0,0.59676 -0.26789,1.2041 -0.59531,1.3496 -1.0181,0.45249 -4.1672,7.7517 -4.1672,9.6591 0,4.9782 5.1132,7.0126 16.669,6.6322 6.2605,-0.20611 9.2503,-0.68259 12.015,-1.9148 z m -179.25,-12.794 c -0.27185,-12.999 -4.6727,-27.989 -8.8781,-30.239 -1.4379,-0.76952 -1.8741,-0.51032 -3.5605,2.1158 -6.161,9.5939 -5.5997,21.801 1.3562,29.492 2.9608,3.2739 7.9308,6.5173 9.6169,6.276 1.5123,-0.21648 1.6102,-0.72699 1.4655,-7.645 z m 29.446,-35.133 c 2.4442,-1.9226 6.8225,-10.126 6.8291,-12.795 0.008,-3.4645 1.747,-8.0478 3.8506,-10.151 1.1648,-1.1649 4.5144,-2.9154 7.4434,-3.8901 3.5369,-1.177 5.9925,-2.5649 7.3114,-4.1323 2.2414,-2.6638 3.8848,-7.8053 3.1265,-9.7815 -0.28594,-0.74516 0.52302,-3.4439 1.8695,-6.2366 1.3054,-2.7076 3.2092,-6.8239 4.2306,-9.1472 2.0672,-4.7021 10.575,-13.379 14.857,-15.153 5.5167,-2.2851 10.477,0.64719 17.997,10.638 5.0365,6.692 7.0298,8.1921 8.8632,6.6705 1.3695,-1.1366 12.345,-16.141 13.661,-18.676 0.48376,-0.93166 2.11,-5.1365 3.6138,-9.344 1.5038,-4.2076 3.6284,-9.1603 4.7212,-11.006 2.3932,-4.0422 9.5303,-12.125 11.909,-13.488 0.94167,-0.53934 5.6412,-1.2396 10.443,-1.5561 11.815,-0.77876 11.59,-0.77555 14.29,-0.20364 3.2337,0.68491 5.2017,-1.5717 7.8546,-9.0066 4.537,-12.715 6.8054,-15.583 17.696,-22.373 2.9569,-1.8436 5.4475,-4.0941 6.2514,-5.6486 1.3183,-2.5493 1.3076,-2.6085 -0.79223,-4.4148 -1.63,-1.4021 -3.0939,-1.8317 -6.2514,-1.8347 -4.1428,-0.004 -11.664,2.147 -11.664,3.3357 0,0.35032 -0.50403,0.63695 -1.1201,0.63695 -0.61603,0 -2.0217,1.0716 -3.1238,2.3812 -2.2535,2.6782 -3.6852,3.0609 -3.7111,0.99219 -0.0352,-2.8099 -3.0424,-7.8755 -7.7531,-13.06 -4.6258,-5.0914 -6.5019,-8.8702 -6.5125,-13.117 -0.007,-2.9362 -2.3991,-7.9782 -4.4094,-9.2954 -2.7245,-1.7851 -4.5467,-1.5341 -6.8589,0.945 -5.008,5.3694 -5.1555,10.006 -0.58521,18.39 3.6401,6.6784 4.705,11.295 4.0014,17.35 l -0.48672,4.1884 -2.9773,-2.4609 c -1.6376,-1.3535 -3.9593,-4.1312 -5.1594,-6.1728 -2.0006,-3.4033 -2.2165,-4.5834 -2.5967,-14.196 -0.40598,-10.264 -0.4635,-10.535 -2.7403,-12.911 -1.2791,-1.3351 -3.7714,-2.8187 -5.5384,-3.2969 -6.8281,-1.8479 -20.82,0.94234 -23.239,4.6342 -1.1127,1.6982 -1.0773,2.2582 0.40507,6.403 0.89343,2.4981 2.5399,6.6851 3.6588,9.3045 1.1189,2.6194 2.0431,6.0126 2.0538,7.5406 0.0283,4.0379 3.988,11.782 8.1551,15.949 1.9881,1.9881 7.049,5.7749 11.246,8.4152 7.2688,4.5722 7.5214,4.8226 5.3098,5.265 -3.19,0.63801 -5.5558,-0.16255 -14.918,-5.0482 l -8.0839,-4.2186 -16.409,0.9563 c -10.247,0.59721 -17.415,1.3764 -19.087,2.0751 -1.4727,0.61534 -5.8099,4.3146 -9.6382,8.2206 -9.7571,9.9553 -14.937,12.259 -23.548,10.471 -4.2712,-0.88669 -4.447,-1.0228 -4.4542,-3.4466 -0.0124,-4.2065 -4.1396,-10.418 -8.2414,-12.404 -5.0967,-2.4673 -8.8203,-1.6771 -10.532,2.2351 -3.0271,6.9182 -5.1889,23.758 -3.9189,30.528 0.62246,3.318 2.734,4.3187 6.2732,2.9731 l 2.1646,-0.82296 -1.2116,2.3429 c -1.5013,2.9032 -3.4285,3.9775 -7.1355,3.9775 -3.7836,0 -7.2467,-1.867 -8.7093,-4.6953 -1.0062,-1.9458 -1.0748,-4.6393 -0.46,-18.044 0.64483,-14.058 1.0782,-17.34 4.0197,-30.442 5.3848,-23.983 4.7835,-32.631 -2.649,-38.097 -4.4456,-3.2693 -8.4396,-3.2317 -13.688,0.12889 -4.4444,2.8455 -10.681,5.424 -13.12,5.424 h -1.6366 l 1.6468,-2.0935 c 2.4464,-3.11 4.0247,-9.3591 4.0247,-15.935 0,-4.669 -0.25931,-5.9335 -1.2985,-6.3322 -2.1417,-0.82184 -3.6624,0.77519 -7.0182,7.3703 -7.6994,15.132 -10.246,22.606 -12.724,37.343 -1.1596,6.8962 -2.3781,13.086 -2.7078,13.754 -0.3297,0.668 -1.2315,3.7155 -2.004,6.7715 -0.77244,3.0559 -2.4804,8.6899 -3.7953,12.52 -2.3453,6.8309 -2.3843,7.2018 -2.0429,19.447 0.30112,10.803 0.59263,13.041 2.1657,16.625 3.8187,8.7018 4.9799,7.2986 6.4708,-7.8199 0.70802,-7.1796 1.6936,-11.948 3.6694,-17.754 1.4858,-4.3656 4.3241,-12.76 6.3074,-18.653 4.6574,-13.84 5.1275,-14.58 8.88,-13.98 1.5987,0.25542 5.2284,0.78862 8.0661,1.1849 2.8377,0.39627 5.7518,0.96274 6.4758,1.2588 3.8971,1.5937 4.093,14.548 0.35443,23.443 -5.11,12.158 -4.9387,10.981 -2.3723,16.295 l 2.289,4.7394 -0.2537,14.009 -0.25372,14.009 5.31,15.757 c 2.9205,8.6661 6.0109,16.918 6.8677,18.338 3.6679,6.0773 9.1283,3.5316 17.055,-7.9513 2.807,-4.0665 7.3905,-7.1414 7.3905,-4.9581 0,0.67198 -0.33561,1.842 -0.74581,2.6001 -0.41019,0.75806 -0.93119,2.2713 -1.1578,3.3627 -0.46023,2.2169 -1.6307,3.8419 -6.8277,9.4795 -5.1956,5.6361 -5.2743,5.7583 -6.7791,10.532 -1.3126,4.1639 -1.3105,4.5807 0.0431,8.8844 2.2563,7.1733 7.137,9.63 11.818,5.9483 z m 474.01,-0.20518 c 0.64109,-1.6707 0.95374,-5.5566 0.53579,-6.6595 -1.2317,-3.2504 -4.7818,2.038 -3.8528,5.7393 0.53538,2.1331 2.6287,2.7139 3.317,0.9202 z m -506.51,-13.952 c 1.3233,-2.1411 0.37628,-12.467 -2.2247,-24.259 -1.5407,-6.985 -3.0277,-15.379 -3.3044,-18.653 -0.58466,-6.9192 -2.4697,-11.207 -5.3818,-12.241 -4.4034,-1.5641 -5.674,2.788 -3.3421,11.447 0.64659,2.4011 1.5531,9.3662 2.0145,15.478 1.4877,19.707 4.7825,28.846 10.436,28.948 0.73822,0.01326 1.5491,-0.31066 1.802,-0.71985 z m 402.77,-40.333 c 1.4502,-1.4609 3.17,-5.2017 5.2002,-11.311 5.0846,-15.3 4.825,-26.988 -0.59943,-26.988 -3.2407,0 -11.257,9.9629 -14.157,17.595 -2.7602,7.2644 -1.5327,15.833 2.9039,20.27 3.1795,3.1795 3.8814,3.2253 6.6521,0.43412 z m 162.71,-13.179 c 1.3987,-1.6853 2.0199,-14.559 0.95023,-19.691 -1.1685,-5.6063 -3.4482,-8.1813 -7.869,-8.8882 -4.3281,-0.69209 -6.2323,0.3674 -8.1157,4.5155 -3.5998,7.9284 -0.78623,21.435 4.9877,23.944 3.3302,1.447 8.89,1.513 10.047,0.1192 z m -482.19,-81.06 c 3.3225,-5.9572 6.6681,-10.651 11.504,-16.139 3.061,-3.4737 5.8062,-7.2754 6.1006,-8.4481 0.40346,-1.6075 -0.79139,-5.46 -4.8552,-15.654 -6.1035,-15.311 -8.6204,-18.925 -13.159,-18.895 -6.4598,0.042 -13.206,5.5948 -15.279,12.576 -1.7285,5.8204 -5.2439,12.557 -8.4836,16.258 -3.7286,4.2589 -4.7184,6.1989 -4.7184,9.2487 0,3.7443 1.1081,5.1692 6.9671,8.9594 2.9464,1.906 7.4653,5.8668 10.042,8.8017 4.4619,5.0822 4.8353,5.3248 7.8461,5.0985 2.1575,-0.16219 3.4389,-0.73557 4.0358,-1.8058 z m -116.73,-15.696 c 1.1062,-3.1651 2.2309,-6.8262 2.4995,-8.1359 0.26853,-1.3097 0.67394,-3.0063 0.90091,-3.7703 0.22697,-0.76398 0.0606,-1.3891 -0.36985,-1.3891 -0.75844,0 -3.0799,6.3466 -4.8813,13.345 -0.48461,1.8827 -1.0781,3.9365 -1.3189,4.5641 -0.24082,0.62754 -0.07866,1.141 0.36031,1.141 0.43898,0 1.7032,-2.5896 2.8094,-5.7547 z m 64.666,-3.3112 c 2.8571,-1.5041 9.1971,-8.164 10.789,-11.334 2.5642,-5.105 1.1919,-12.938 -2.2668,-12.938 -3.1145,0 -13.232,11.41 -14.821,16.715 -0.78988,2.6363 -0.68657,3.3377 0.86033,5.8406 1.9676,3.1836 2.3947,3.3184 5.4382,1.7161 z m -28.614,-53.054 c 1.3175,-3.1601 2.6511,-6.9396 2.9636,-8.3988 0.48881,-2.2827 0.36957,-2.6149 -0.85405,-2.3792 -1.822,0.35087 -4.99,6.5001 -6.3393,12.305 -1.9218,8.2675 0.51282,7.3888 4.2298,-1.5266 z m 504.23,-29.006 c 0,-4.3175 -8.2075,-12.248 -11.406,-11.021 -2.2104,0.84821 -1.4706,2.2905 3.8252,7.4576 5.175,5.0493 7.5806,6.18 7.5806,3.563 z m -379.36,-32.727 c 1.6903,-0.90462 2.194,-5.8213 0.69156,-6.7499 -1.5012,-0.92781 -3.9187,2.1052 -3.9187,4.9164 0,2.7916 0.69697,3.1876 3.2272,1.8334 z m 341.26,-7.733 c 0,-2.3921 -6.3419,-7.3204 -9.4202,-7.3204 -3.4682,0 -1.3068,4.3709 3.4671,7.0112 1.8277,1.0109 5.9531,1.2251 5.9531,0.30916 z m 0.33195,-7.0084 c 2.227,-0.85457 1.4184,-4.1178 -1.8236,-7.3599 -7.0383,-7.0383 -18.384,-13.875 -20.13,-12.129 -1.9805,1.9805 8.7633,15.373 14.683,18.303 3.5008,1.7329 5.1456,2.0011 7.2703,1.1858 z m -390.24,-5.5826 c 2.8259,-2.1554 5.3397,-6.8382 4.644,-8.6511 -1.3476,-3.5118 -14.03,0.19606 -18.389,5.3761 l -2.0558,2.4432 2.6326,0.91024 c 1.448,0.50062 3.347,1.3417 4.2201,1.8691 2.1698,1.3106 5.6767,0.54731 8.9476,-1.9476 z m 164.69,-83.361 c -0.54571,-0.2202 -1.4387,-0.2202 -1.9844,0 -0.5457,0.22019 -0.0992,0.40035 0.99219,0.40035 1.0914,0 1.5379,-0.18016 0.99219,-0.40035 z m 329.33,338.66 c 0,-1.0914 0.18016,-1.5379 0.40035,-0.99219 0.2202,0.5457 0.2202,1.4387 0,1.9844 -0.22019,0.5457 -0.40035,0.09922 -0.40035,-0.99219 z m -434.31,-305.44 c 0,-0.46613 3.8676,-3.5278 8.5947,-6.8036 9.0805,-6.2928 13.247,-7.9163 19.223,-7.4904 3.0169,0.21504 3.5737,0.52514 3.7989,2.1156 0.35228,2.4885 -2.3788,5.3014 -7.8044,8.0384 -4.8709,2.4572 -9.5345,3.6009 -18.058,4.4286 -3.8995,0.37869 -5.7547,0.28564 -5.7547,-0.28864 z m -0.79375,-13.345 c 7.7207,-3.594 14.671,-5.8566 17.99,-5.8566 6.0869,0 1.0759,5.7609 -6.4811,7.4511 l -2.3812,0.53257 2.5797,-1.6885 c 1.4188,-0.92869 2.5797,-1.8777 2.5797,-2.1089 0,-0.72723 -5.78,0.46541 -12.329,2.544 -8.5075,2.7001 -9.0836,2.4431 -1.9584,-0.8736 z"
       fill="#bef3ff"
       id="path5"
       style="stroke-width:1.1889" />
    <path
       d="m 412.32,210.54 c 0.24412,-0.395 -0.005,-0.89909 -0.55327,-1.1202 -0.54843,-0.22111 1.146,-0.43365 3.7654,-0.47231 5.1862,-0.0765 21.248,-2.6792 36.909,-5.9808 5.457,-1.1504 13.494,-2.7811 17.859,-3.6238 14.751,-2.8474 24.427,-5.1838 29.3,-7.0747 1.3108,-0.50873 2.6111,-0.59831 3.0025,-0.20686 1.4901,1.4901 -30.292,10.598 -48.9,14.014 -15.649,2.8724 -42.167,5.7334 -41.383,4.4648 z m -63.463,-2.9016 c -3.9291,-0.6052 -11.787,-2.0886 -17.462,-3.2966 -7.8736,-1.6758 -9.6134,-2.2546 -7.3422,-2.4425 6.4946,-0.53751 1.9122,-3.8957 -10.085,-7.3906 -3.0755,-0.89593 -6.6305,-2.46 -7.9,-3.4758 -2.1536,-1.7231 -2.2196,-1.9354 -0.98629,-3.1687 1.23331,-1.2333 1.9728,-1.1516 11.039,1.2211 10.88,2.8472 12.18,3.0698 20.036,3.4292 3.0559,0.13984 7.5208,0.8553 9.9219,1.5899 7.3786,2.2575 9.805,2.4064 13.173,0.80835 3.59,-1.7036 4.9829,-1.6002 13.155,0.97644 5.041,1.5894 6.9877,2.7353 11.327,6.6675 2.8818,2.6116 5.8575,4.7986 6.6128,4.8601 0.75529,0.0614 -0.59129,0.38333 -2.9924,0.71525 -7.1892,0.99381 -30.806,0.69097 -38.497,-0.49364 z m -59.886,-15.887 c -2.3777,-0.63911 -4.4911,-1.33 -4.6964,-1.5353 -0.76607,-0.76607 6.9002,-0.33914 9.4963,0.52884 6.7962,2.2722 2.9272,3.0834 -4.8,1.0064 z m 61.87,-22.89 c -6.581,-1.2568 -12.277,-3.8066 -13.748,-6.1546 -0.6328,-1.0098 -1.3306,-3.9792 -1.5506,-6.5986 -0.69454,-8.2692 -5.3058,-15.826 -11.584,-18.983 -2.0221,-1.0168 -7.0699,-2.8099 -11.217,-3.9847 -10.333,-2.9269 -14.755,-5.7966 -23.298,-15.12 -3.9938,-4.3585 -6.3685,-7.3079 -5.2771,-6.5543 5.1412,3.5503 12.412,5.3414 21.775,5.3646 l 5.6089,0.0139 3.1468,5.2841 c 7.0625,11.86 14.784,17.672 27.739,20.883 8.9088,2.208 22.007,2.0336 26.934,-0.35864 1.9518,-0.94776 3.2383,-1.1901 3.5719,-0.67272 2.0406,3.165 13.165,4.9905 15.601,2.56 2.4523,-2.4472 -0.53789,-5.2809 -7.9357,-7.5204 -2.4916,-0.75426 -3.096,-1.2808 -2.8079,-2.4463 0.20192,-0.81683 0.38051,-2.8246 0.39688,-4.4617 0.0163,-1.6371 0.0737,-2.9766 0.1273,-2.9766 0.0537,0 1.7201,0.71774 3.7032,1.595 1.9831,0.87723 8.3686,2.302 14.19,3.1662 10.613,1.5754 17.331,3.9543 17.331,6.1363 0,0.55483 0.31363,1.0088 0.69697,1.0088 0.38334,0 1.5088,2.2324 2.5011,4.9609 0.99228,2.7285 2.5053,6.1406 3.3623,7.5824 0.85698,1.4418 1.4281,2.7437 1.2692,2.8931 -0.50142,0.47144 -9.7818,4.2605 -17.701,7.227 l -7.6232,2.8557 -3.5143,-1.3421 c -2.4696,-0.94316 -5.1318,-1.2507 -8.9553,-1.0347 -4.6785,0.26437 -6.0642,0.72112 -9.8885,3.2595 -3.3753,2.2404 -5.7573,3.1414 -9.8804,3.7375 -6.4538,0.93303 -6.4022,0.93431 -12.974,-0.32061 z m -61.479,-6.1576 c -0.82281,-1.3929 -1.7651,-3.8039 -2.0939,-5.3578 -0.32885,-1.5539 -0.84472,-3.6245 -1.1464,-4.6013 -0.52622,-1.704 -0.44021,-1.7398 2.1212,-0.88257 2.6611,0.89058 7.7016,4.2045 8.8091,5.7916 1.0054,1.4408 0.67335,2.62 -1.4475,5.1404 -2.6213,3.1152 -4.3639,3.09 -6.2426,-0.0904 z m 218.31,-3.7176 c -0.30375,-0.49149 -0.32658,-1.2588 -0.0507,-1.7051 1.4478,-2.3426 19.725,-9.4617 27.237,-10.609 2.9919,-0.45688 3.401,-0.34621 3.1692,0.85727 -0.88903,4.6164 -28.21,14.928 -30.355,11.457 z m 48.742,-4.6107 c 1.5216,-1.2298 6.165,-5.3634 10.319,-9.1858 4.1537,-3.8224 15.795,-14.226 25.868,-23.119 25.862,-22.83 34.789,-33.166 34.309,-39.721 l -0.23734,-3.2355 -3.9688,0.05802 c -2.6051,0.0381 -5.4517,0.78811 -8.2845,2.1828 -2.3737,1.1686 -4.3666,2.1248 -4.4286,2.1248 -0.0621,0 -0.0846,-0.76752 -0.0498,-1.7056 0.11532,-3.1209 -1.784,-2.4132 -6.5705,2.4482 -4.424,4.4932 -4.9806,4.8136 -8.3612,4.8136 -2.9375,0 -3.8554,-0.35652 -4.8582,-1.887 -2.4966,-3.8103 -2.8126,-6.9001 -1.796,-17.56 1.5249,-15.989 1.2506,-21.703 -1.2918,-26.899 -2.4771,-5.0631 -8.9801,-11.364 -14.317,-13.873 -6.6571,-3.1292 -10.592,-3.5366 -21.286,-2.2036 -5.345,0.66619 -12.933,1.4236 -16.862,1.6832 -13.682,0.90392 -20.081,2.0436 -23.143,4.1219 l -2.8772,1.9525 -2.8982,-2.8301 c -2.882,-2.8142 -2.938,-2.8302 -10.009,-2.8475 -7.9745,-0.01953 -11.971,-1.3626 -15.593,-5.2403 -3.1106,-3.3302 -4.0021,-6.1342 -2.5294,-7.9555 0.91951,-1.1372 1.2892,-1.2285 1.6284,-0.4021 0.92683,2.2582 5.1512,6.354 7.8976,7.6572 5.4724,2.5968 9.2322,-1.2173 9.3511,-9.486 l 0.0721,-5.0184 2.7781,1.4607 c 1.528,0.80339 3.8497,2.1904 5.1594,3.0823 1.5887,1.0818 3.6673,1.6233 6.245,1.6268 3.438,0.0048 4.1814,-0.32602 6.7469,-3.001 1.5858,-1.6534 4.4905,-5.0978 6.4551,-7.6541 1.9645,-2.5563 5.5364,-6.0893 7.9375,-7.8511 11.703,-8.5867 21.66,-17.86 23.97,-22.323 3.3245,-6.4239 0.47081,-14.639 -7.4367,-21.407 -6.3368,-5.424 -10.87,-5.3234 -19.777,0.4389 -2.7999,1.8115 -9.0971,5.2137 -13.994,7.5604 -8.452,4.0506 -9.1814,4.5977 -14.397,10.8 -6.3598,7.5628 -22.247,23.244 -26.309,25.969 -11.325,7.5949 -13.036,9.7935 -12.249,15.731 0.49165,3.7062 0.39948,3.9224 -4.0557,9.5143 -2.5073,3.147 -4.8652,5.7219 -5.2397,5.7219 -0.37449,0 -0.68089,0.49205 -0.68089,1.0934 0,0.60138 -0.56493,1.5623 -1.2554,2.1353 -0.69046,0.57304 -2.3871,3.2064 -3.7703,5.8519 l -2.5149,4.81 0.19212,12.592 c 0.10566,6.9254 0.55258,13.93 0.99316,15.567 1.1,4.0852 5.4546,8.5391 8.8291,9.0305 1.4771,0.21511 5.4575,0.77184 8.8453,1.2372 6.3947,0.87836 11.988,3.2607 15.867,6.7579 1.2005,1.0825 2.1828,2.3424 2.1828,2.7999 0,0.45751 0.30065,0.83183 0.66811,0.83183 0.56937,0 2.5069,5.1323 2.5069,6.6405 0,0.27677 -1.0716,0.50322 -2.3812,0.50322 -2.7229,0 -5.5562,2.4208 -5.5562,4.7474 0,0.98346 -0.66891,1.7215 -1.7859,1.9706 -0.98226,0.21902 -4.2111,0.93834 -7.1752,1.5985 -8.916,1.9857 -14.837,5.9085 -19.67,13.031 -1.4971,2.2065 -3.0793,4.0118 -3.5158,4.0119 -0.43656,2e-5 -4.3463,-2.6763 -8.6884,-5.9474 -4.3421,-3.2711 -9.2655,-6.3582 -10.941,-6.8601 -4.7428,-1.421 -16.289,0.44606 -33.452,5.4091 -8.2396,2.3827 -15.05,4.2277 -15.134,4.0998 -1.348,-2.0539 -6.0747,-13.336 -8.4113,-20.076 -1.6647,-4.8022 -4.5019,-12.66 -6.305,-17.462 -6.7394,-17.949 -8.5681,-23.086 -9.1056,-25.578 -0.54638,-2.5322 -0.52859,-2.5506 1.7138,-1.7689 3.441,1.1995 7.1503,8.5429 8.2276,16.288 1.1884,8.5445 2.376,10.661 5.9811,10.661 1.5527,0 5.3833,-1.1301 8.5124,-2.5113 7.741,-3.4169 15.723,-5.4262 21.557,-5.4262 4.1322,0 5.5433,0.40972 9.3911,2.7268 5.9722,3.5962 9.1711,6.1687 9.225,7.4184 0.0241,0.55941 0.5797,1.2227 1.2346,1.474 0.65484,0.25129 1.1906,0.88763 1.1906,1.4141 0,0.52645 0.98227,1.8915 2.1828,3.0335 6.1519,5.8516 13.692,2.1284 13.692,-6.7609 0,-4.3054 -1.2848,-5.6195 -10.854,-11.101 -12.014,-6.8825 -13.901,-7.7299 -17.216,-7.7299 -2.8228,0 -3.6767,-0.49834 -7.3474,-4.2882 -4.1005,-4.2335 -5.8444,-7.962 -5.8539,-12.516 -0.004,-2.0419 0.192,-2.1368 5.3534,-2.5886 21.611,-1.8918 37.559,-8.31 44.221,-17.797 6.3962,-9.1085 0.81388,-22.273 -18.524,-43.685 -4.0841,-4.522 -6.3865,-7.6497 -5.7799,-7.8519 2.0269,-0.67565 7.6927,-5.4667 9.3195,-7.8807 0.94928,-1.4086 2.0575,-4.9951 2.5651,-8.3009 0.4915,-3.2014 1.435,-9.2962 2.0966,-13.544 0.66161,-4.2479 1.9718,-9.3592 2.9115,-11.358 2.0482,-4.3573 7.8378,-9.0963 11.113,-9.0963 1.2385,0 5.259,1.4288 8.9346,3.175 5.2713,2.5044 7.6011,3.175 11.031,3.175 5.785,0 6.3817,-0.82752 6.0031,-8.3248 -0.28365,-5.6172 -0.4687,-6.1347 -3.1543,-8.8202 -1.5691,-1.5691 -5.3126,-4.1671 -8.3188,-5.7733 -4.8609,-2.5971 -5.7175,-3.4212 -7.7392,-7.4459 -2.8852,-5.7438 -2.4569,-7.6894 2.8133,-12.778 4.5893,-4.4312 9.9802,-7.13 17.788,-8.9051 3.0164,-0.68578 9.0562,-2.5609 13.422,-4.1669 7.3568,-2.7064 8.5472,-2.915 16.272,-2.8501 9.0101,0.0757 15.302,1.8095 20.292,5.5914 1.3382,1.0142 4.8467,3.1021 7.7967,4.6397 6.9888,3.6428 11.379,3.7102 21.835,0.33528 6.3431,-2.0474 8.4408,-2.3869 12.496,-2.0225 4.6474,0.41771 12.226,2.534 17.352,4.8453 7.8972,3.561 12.358,3.5559 19.102,-0.022 2.9387,-1.559 6.3422,-2.863 7.5634,-2.8977 3.7282,-0.106 8.7161,3.9858 10.343,8.4848 0.5576,1.542 1.2993,2.8037 1.6481,2.8037 0.3488,0 0.63429,0.47352 0.63429,1.0523 0,1.3775 3.0468,4.2 5.5562,5.1473 1.0914,0.41196 5.6294,1.0089 10.084,1.3265 9.6145,0.68552 8.5522,2.3332 9.7143,-15.067 0.95491,-14.297 1.3854,-15.952 5.9618,-22.92 2.3972,-3.6498 3.862,-6.9538 4.4836,-10.113 1.0963,-5.5725 1.8408,-5.9367 10.619,-5.1947 6.8364,0.57789 7.6155,0.0219 9.1474,-6.5287 2.3419,-10.014 -1.7454,-26.616 -8.7103,-35.381 -1.3235,-1.6654 -2.4064,-3.1938 -2.4064,-3.3964 0,-0.2026 1.518,0.50397 3.3734,1.5701 2.3526,1.3518 4.6334,3.8383 7.5368,8.2165 2.2899,3.453 5.7186,8.0291 7.6193,10.169 3.5266,3.9708 5.222,4.2948 5.3519,1.0229 0.038,-0.95651 0.91575,3.2072 1.9506,9.2526 1.0349,6.0454 2.4142,12.832 3.0651,15.081 2.0697,7.1515 4.3467,18.92 5.2007,26.879 0.98277,9.1591 1.0937,24.181 0.18271,24.744 -0.35439,0.21903 -1.1012,-1.8134 -1.6595,-4.5166 -1.1227,-5.4357 -2.9526,-9.0984 -4.8132,-9.6344 -0.66952,-0.19286 -2.9176,-0.59069 -4.9958,-0.88409 -3.6972,-0.52197 -3.8478,-0.4589 -7,2.9314 -1.7718,1.9056 -6.1869,7.9669 -9.8113,13.469 -7.2563,11.016 -11.482,16.096 -14.832,17.828 -4.0048,2.071 -4.6631,1.6081 -4.6631,-3.2786 0,-5.6638 -1.682,-9.0277 -4.5322,-9.0638 -0.52818,-0.0063 -1.3079,1.3273 -1.7328,2.9644 -0.42484,1.6371 -1.0642,4.1269 -1.4209,5.5328 l -0.6485,2.5562 -3.9703,-2.6741 c -5.7355,-3.863 -11.166,-5.4795 -15.293,-4.5522 -5.0456,1.1337 -10.325,4.583 -16.5,10.78 -9.9015,9.9371 -12.078,18.805 -7.4377,30.304 0.89747,2.224 0.7145,3.1424 -1.9251,9.662 -3.3654,8.3122 -4.9514,17.881 -5.6879,34.315 -0.54303,12.118 -0.77572,13.751 -2.1696,15.224 -5.8797,6.2161 -7.3897,12.923 -4.7038,20.891 1.8807,5.5799 3.5199,6.312 7.7076,3.4425 3.1155,-2.1348 6.9496,-8.618 13.79,-23.318 5.3902,-11.583 8.0118,-20.575 8.0118,-27.479 0,-2.5495 0.31848,-4.6355 0.70774,-4.6355 0.38925,0 2.5876,4.6845 4.8852,10.41 5.0756,12.648 7.9887,17.146 12.706,19.617 3.1305,1.6399 4.2474,1.797 9.8795,1.3901 8.203,-0.59266 11.083,-1.4437 15.613,-4.6138 2.0388,-1.4267 5.9164,-4.1406 8.617,-6.031 2.7005,-1.8903 6.1045,-3.6308 7.5644,-3.8677 2.3627,-0.38341 2.7121,-0.20083 3.1795,1.6612 0.55087,2.1948 -0.053,7.9531 -1.2576,11.994 -0.39049,1.3097 -1.2783,4.8468 -1.9728,7.8602 -1.7315,7.5121 -7.7557,23.95 -12.028,32.821 -1.9454,4.0391 -6.1949,11.663 -9.4434,16.941 -3.2485,5.2787 -5.9064,9.759 -5.9064,9.9561 0,0.19712 -1.7859,3.005 -3.9688,6.2398 -2.1829,3.2348 -3.9688,6.0952 -3.9688,6.3565 0,2.5417 -22.637,26.456 -29.512,31.177 -4.4033,3.0238 -4.6344,3.0467 -8.4721,0.83802 -3.6576,-2.1051 -5.485,-1.7369 -11.363,2.2897 -5.2728,3.6117 -8.0329,6.7103 -12.745,14.308 -1.9636,3.1662 -5.1375,7.1197 -7.0531,8.7856 -5.053,4.3944 -11.024,8.3049 -11.024,7.2201 0,-0.92621 -3.1793,-0.71496 -6.7469,0.44828 -0.96732,0.3154 -0.50673,-0.35591 1.179,-1.7184 z m 78.018,-75.667 c 4.222,-3.7164 6.9251,-8.7882 6.9251,-12.994 0,-6.2022 -2.9234,-7.7642 -6.9657,-3.7219 -4.322,4.322 -7.5436,14.261 -5.8368,18.007 0.47422,1.0408 1.1768,1.8924 1.5612,1.8924 0.3844,0 2.3267,-1.4328 4.3162,-3.1839 z m 32.159,-36.305 c 3.4336,-4.9011 4.8828,-10.802 4.8653,-19.811 -0.0102,-5.2813 0.45528,-10.331 1.2141,-13.168 1.418,-5.3034 1.5794,-8.4941 0.42972,-8.4941 -1.3299,0 -5.153,4.127 -7.6055,8.2101 -1.27,2.1144 -3.1266,5.1505 -4.1257,6.7469 -0.99907,1.5963 -3.0856,5.4774 -4.6368,8.6246 -2.3708,4.8101 -2.834,6.613 -2.9064,11.311 -0.0972,6.3067 0.40752,7.1554 4.7552,7.9972 5.3814,1.0418 6.4161,0.85891 8.0099,-1.4162 z m -131.29,-113.78 c 3.7806,-2.9738 9.1203,-18.338 9.7819,-28.145 0.55386,-8.2102 -0.80912,-11.469 -4.797,-11.469 -2.9156,0 -5.5983,2.413 -10.065,9.0535 -7.0398,10.465 -7.5488,23.236 -1.18,29.605 3.0787,3.0787 3.4835,3.1405 6.2605,0.9561 z m -318.35,221.25 c -2.6416,-0.94946 -11.107,-8.2724 -10.789,-9.3332 0.23493,-0.78439 -11.422,-12.585 -17.609,-17.825 l -4.7246,-4.0019 0.9844,-4.3987 c 1.3938,-6.2279 0.25426,-10.316 -5.5577,-19.937 -11.223,-18.58 -13.709,-25.392 -13.677,-37.485 0.0258,-9.9525 0.91716,-13.861 4.7279,-20.733 l 2.6941,-4.8582 3.7889,1.1734 c 6.9244,2.1445 9.2976,3.5672 15.102,9.0542 3.1664,2.9931 6.4518,5.442 7.3009,5.442 1.3709,0 1.4508,0.26693 0.7132,2.3827 -0.99147,2.8441 -1.2871,3.0523 -6.0189,4.237 -5.9555,1.4912 -6.0589,5.1524 -0.47737,16.911 1.524,3.2107 3.1002,5.8376 3.5027,5.8376 0.40249,0 0.73179,0.3726 0.73179,0.82801 0,0.45541 1.8606,2.5092 4.1347,4.5641 2.2741,2.0548 8.4144,7.6651 13.645,12.467 20.717,19.02 19.784,18.182 26.085,23.416 2.8909,2.4011 5.2768,4.7385 5.3019,5.1942 0.0252,0.45575 1.4895,2.1968 3.2542,3.869 1.7647,1.6722 3.0343,3.2146 2.8214,3.4276 -0.71444,0.71445 -10.903,-1.4335 -16.127,-3.4001 -2.845,-1.0708 -6.3804,-1.947 -7.8564,-1.947 -2.4246,0 -2.6836,0.21954 -2.6836,2.2742 0,1.2508 0.7403,3.2154 1.6451,4.3656 l 1.6451,2.0914 h -2.8718 c -2.0278,0 -3.473,0.60115 -4.9173,2.0455 -1.9625,1.9625 -2.0235,2.2973 -1.5035,8.2579 0.29806,3.4169 0.25248,6.3867 -0.10127,6.5997 -0.35375,0.213 -1.7776,-0.0205 -3.1642,-0.51887 z m -13.728,-52.527 c 2.1719,-2.617 0.2354,-9.017 -4.3926,-14.517 -3.1048,-3.6898 -12.43,-8.0774 -17.168,-8.0774 -3.8297,0 -3.862,0.02167 -3.8544,2.5797 0.0175,5.8167 6.6916,15.352 13.045,18.637 5.3074,2.7446 10.733,3.3488 12.37,1.3773 z m 37.103,-15.504 c -2.0602,-1.2006 -5.8691,-7.094 -6.979,-10.799 -0.85763,-2.8625 -0.7693,-3.9602 0.70117,-8.713 2.2291,-7.2049 4.7042,-11.37 7.8479,-13.206 l 2.5792,-1.5064 v 3.9335 c 0,9.4077 3.1902,18.288 8.7288,24.296 1.8231,1.9778 3.102,3.9402 2.8421,4.3608 -1.1859,1.9188 -13.105,3.1573 -15.72,1.6334 z m -103.25,-10.464 c -11.051,-16.801 -23.266,-40.228 -29.666,-56.894 -2.7805,-7.241 -6.64,-18.549 -6.4057,-18.769 0.10683,-0.10016 1.9573,3.6224 4.1123,8.2724 4.9439,10.668 11.353,22.008 20.59,36.432 11.885,18.559 14.826,23.493 15.254,25.591 0.22357,1.0969 1.2878,3.8922 2.365,6.2116 2.0717,4.461 1.9733,5.7046 -0.45129,5.7046 -0.9897,0 -2.9378,-2.2003 -5.7978,-6.5484 z m 62.995,-36.904 c -1.9052,-4.3338 -9.3799,-12.857 -13.534,-15.432 l -1.9744,-1.224 3.7238,-5.4661 c 2.0481,-3.0063 5.2176,-7.6092 7.0435,-10.229 5.339,-7.6595 8.7152,-14.906 9.2189,-19.786 0.55863,-5.4126 -1.0625,-10.235 -7.7971,-23.193 -4.6023,-8.8555 -4.6672,-9.0695 -3.3562,-11.07 0.84363,-1.2875 1.3038,-3.4914 1.2472,-5.9737 -0.057,-2.5011 0.44059,-4.862 1.3664,-6.4834 0.80082,-1.4025 1.9073,-3.9787 2.4588,-5.7249 1.465,-4.6387 3.9316,-8.1683 9.2132,-13.184 5.7432,-5.4543 9.1465,-7.3265 12.128,-6.6717 2.5209,0.55368 10.26,6.6541 10.329,8.1414 0.025,0.542 0.75978,1.4316 1.6329,1.9769 0.87313,0.54527 1.5875,1.4413 1.5875,1.9911 0,0.54983 0.35719,0.99969 0.79375,0.99969 0.43656,0 0.79375,0.50986 0.79375,1.133 0,1.4854 3.7708,4.4232 5.6774,4.4232 0.97544,0 3.5824,-2.826 7.5054,-8.1359 6.9069,-9.3488 7.9782,-11.309 11.005,-20.138 l 2.2097,-6.4461 4.0654,-1.1996 c 4.9054,-1.4475 20.273,-7.1967 24.75,-9.2592 1.7722,-0.81645 5.9543,-3.6824 9.2936,-6.3687 6.5387,-5.2601 9.2711,-9.4118 14.135,-21.477 2.5426,-6.3072 2.8522,-6.6242 12.64,-12.942 3.2975,-2.1284 5.6659,-4.3327 6.5631,-6.1082 l 1.4037,-2.7781 -2.1498,-1.8776 c -1.973,-1.7231 -2.6879,-1.8493 -8.6908,-1.5342 l -6.541,0.34331 -1.3313,-2.9523 c -2.6949,-5.9763 -9.7994,-10.978 -19.615,-13.81 -3.9633,-1.1433 -4.5641,-1.5738 -4.5641,-3.2702 0,-4.7796 -4.0254,-9.8401 -7.8273,-9.8401 -1.6996,0 -6.0185,4.5017 -6.8587,7.149 -0.34316,1.0812 -0.96823,1.5322 -1.7225,1.2428 -0.65111,-0.24986 -1.4844,-0.45428 -1.8518,-0.45428 -0.36736,0 -1.6818,-0.85315 -2.921,-1.8959 -1.2392,-1.04275 -3.6776,-2.2758 -5.4187,-2.7402 -18.946,-5.0531 -21.048,-5.1515 -29.809,-1.3952 -0.98565,0.42259 -1.8783,-1.078 -4.304,-7.235 -7.5603,-19.19 -9.2629,-21.67 -14.855,-21.641 -7.1478,0.0365 -13.095,4.658 -15.225,11.831 -1.7149,5.7748 -5.2389,12.519 -8.4691,16.209 -3.8814,4.4333 -4.7184,6.194 -4.7184,9.9253 0,4.7088 0.49229,5.4194 6.6505,9.6007 3.1089,2.1109 6.6893,4.9354 7.9564,6.2766 2.7271,2.8867 2.3778,3.589 -3.3302,6.6957 -3.7816,2.0582 -7.8386,2.8917 -21.805,4.4799 -3.8258,0.43504 -9.096,1.6554 -11.712,2.7119 -5.3438,2.1585 -14.777,8.0244 -16.784,10.437 -0.72641,0.87312 -1.475,1.4089 -1.6635,1.1906 -0.1885,-0.2183 0.68494,-4.8617 1.941,-10.319 3.0038,-13.049 3.4533,-26 1.0432,-30.055 -3.9781,-6.6934 -11.943,-9.3113 -17.117,-5.6264 -4.0189,2.8617 -3.4116,1.2599 1.1623,-3.0659 2.4665,-2.3327 6.9765,-5.3761 10.567,-7.1306 9.9794,-4.8767 14.976,-8.7512 26.82,-20.796 16.382,-16.661 17.966,-17.413 30.706,-14.588 3.1936,0.70817 9.3785,1.3164 13.744,1.3516 9.9844,0.0805 13.928,-1.4197 26.953,-10.254 17.11,-11.604 15.995,-11.04 21.804,-11.024 6.0765,0.0171 19.866,3.8562 22.429,6.2447 1.4443,1.3456 1.5911,2.224 1.2772,7.645 -0.27694,4.7842 -0.81895,6.9172 -2.4763,9.7453 -2.0865,3.5603 -2.6118,7.3647 -1.4312,10.366 0.31844,0.80957 3.1874,3.184 6.3755,5.2765 5.1798,3.3998 27.859,24.773 27.859,26.255 0,0.32427 1.099,1.5143 2.4422,2.6445 1.7194,1.4468 3.364,2.0549 5.5571,2.0549 2.608,0 3.633,-0.53377 6.2976,-3.2795 10.88,-11.211 19.36,-31.101 16.341,-38.328 -1.1447,-2.7397 -5.91,-6.7413 -11.46,-9.6233 -10.799,-5.6076 -11.548,-6.8779 -10.785,-18.277 l 0.55444,-8.2769 3.2652,-0.92305 c 6.9403,-1.962 11.211,-0.15349 18.878,7.9942 4.8497,5.1537 5.5609,5.626 8.4719,5.626 2.2498,0 3.8816,-0.59222 5.588,-2.0281 5.2301,-4.4008 14.266,-20.678 13.127,-23.646 -0.2557,-0.66635 -2.6016,-1.9331 -5.2132,-2.8151 -2.6116,-0.88194 -6.931,-3.0934 -9.5987,-4.9144 -7.5532,-5.1558 -10.543,-6.2465 -17.176,-6.2662 -5.5585,-0.0165 -6.0123,-0.15777 -8.9062,-2.7723 -3.8892,-3.5136 -10.725,-6.9588 -19.919,-10.039 -10.097,-3.3827 -18.784,-3.8372 -30.479,-1.5945 -10.641,2.0406 -22.366,2.2937 -23.055,0.4978 -0.62272,-1.6228 -2.0678,-1.4946 -4.4724,0.39688 -1.11,0.87312 -2.7279,1.5875 -3.5953,1.5875 -0.8674,0 -4.0118,0.75201 -6.9876,1.6711 l -5.4105,1.6711 -1.8169,-2.1123 c -2.4356,-2.8316 -2.2884,-5.4042 0.48907,-8.5446 2.6403,-2.9854 5.0426,-4.2968 14.048,-7.6691 10.159,-3.8042 17.735,-5.6538 23.159,-5.6538 5.2654,0 8.8506,-1.2987 10.644,-3.8555 0.5722,-0.81582 5.6838,-4.7763 11.359,-8.801 5.6753,-4.0247 11.033,-7.9672 11.906,-8.761 1.3438,-1.2218 2.1968,-1.3355 5.5562,-0.7406 2.1828,0.38652 12.898,0.89102 23.812,1.1211 10.914,0.23009 24.441,0.83381 30.06,1.3416 11.198,1.012 16.178,0.34792 19.108,-2.5477 3.1855,-3.1479 2.9381,-17.172 -0.4032,-22.858 l -1.5487,-2.635 1.7918,0.54938 c 0.9855,0.30216 2.149,0.82009 2.5856,1.151 1.087,0.82382 18.857,8.2122 24.098,10.02 2.3398,0.80686 5.1342,2.2825 6.2096,3.2791 1.6658,1.5438 1.9254,2.4267 1.7534,5.9635 -0.11104,2.2832 -0.66868,5.9373 -1.2392,8.1201 -1.3711,5.2456 -1.325,8.7459 0.13446,10.205 0.65484,0.65484 1.1906,1.5531 1.1906,1.9961 0,0.44299 0.79939,1.3654 1.7764,2.0497 1.2883,0.90236 1.5609,1.5385 0.99218,2.3149 -3.1254,4.2668 -3.8543,5.7278 -4.4509,8.921 -0.79436,4.2521 0.17036,12.136 2.0296,16.585 1.0451,2.5014 1.1525,3.8665 0.52917,6.7266 -0.43014,1.9736 -0.99568,6.9605 -1.2568,11.082 -0.26106,4.1215 -0.79729,8.9436 -1.1916,10.716 -0.39433,1.772 -0.94234,5.9008 -1.2178,9.175 -0.42131,5.0079 -0.25468,6.4228 1.0495,8.9113 1.7648,3.3674 1.6408,3.5588 -3.8574,5.9547 -5.7327,2.4981 -12.652,12.845 -11.544,17.262 0.48586,1.9358 4.1952,3.8194 9.4704,4.809 1.6092,0.30189 3.0843,0.80527 3.278,1.1186 0.19366,0.31335 -2.2213,1.5731 -5.3666,2.7995 -3.1453,1.2264 -8.8878,4.1382 -12.761,6.4708 -3.8734,2.3326 -7.3902,4.0262 -7.815,3.7636 -1.4056,-0.86867 -6.1768,-11.712 -6.1768,-14.038 0,-1.256 0.56237,-3.4688 1.2497,-4.9173 0.68733,-1.4485 1.1338,-3.6456 0.99219,-4.8825 -0.23255,-2.0306 -0.58551,-2.2726 -3.6376,-2.4933 -4.1108,-0.29724 -10.182,2.7249 -13.837,6.8882 -2.2162,2.5242 -2.3867,3.1155 -1.9943,6.9179 0.23602,2.2868 1.7531,7.136 3.3713,10.776 5.0472,11.354 4.7595,23.328 -0.87693,36.497 -3.036,7.0932 -3.4888,11.674 -1.3408,13.562 0.76399,0.67164 2.9146,1.9882 4.7791,2.9258 4.5633,2.2945 7.9728,6.0202 8.608,9.4064 0.75587,4.0291 -0.20761,14.224 -1.7805,18.84 -0.74381,2.1828 -3.4364,8.0314 -5.9834,12.997 -5.3788,10.486 -5.615,12.408 -2.7147,22.098 2.9515,9.8609 3.3093,14.437 1.4534,18.586 -1.4266,3.1895 -4.6084,6.9475 -5.2293,6.1763 -0.14429,-0.17923 -1.3973,-2.3427 -2.7844,-4.8077 -4.8979,-8.7037 -12.119,-13.102 -20.386,-12.416 -5.769,0.47842 -7.5964,2.2341 -8.1325,7.8131 -0.5605,5.8332 1.2398,16.811 3.4814,21.229 2.2656,4.4653 2.2471,4.239 0.50422,6.1609 -3.3334,3.6758 -7.3346,12.361 -7.3355,15.923 -5.2e-4,2.1961 -6.9548,12.826 -10.15,15.514 -6.5755,5.5329 -16.225,6.0135 -29.141,1.4513 -15.356,-5.4241 -21.994,-10.024 -42.37,-29.365 -6.2092,-5.8936 -11.824,-10.834 -12.477,-10.98 -0.65337,-0.14518 -1.636,0.1079 -2.1837,0.56243 -1.5154,1.2576 -6.6642,-5.7547 -10.129,-13.795 -3.42,-7.9362 -4.2772,-9.1251 -6.5788,-9.1251 -2.7653,0 -4.8931,2.0321 -6.8214,6.5146 -2.6689,6.204 -3.0223,13.101 -0.89646,17.493 2.2813,4.7125 8.8089,11.056 14.495,14.087 4.6241,2.4646 4.653,2.5023 4.653,6.0724 0,3.0326 -0.54312,4.293 -3.4859,8.0894 -8.2363,10.625 -8.5073,15.42 -1.6315,28.858 1.9414,3.7944 3.5298,7.0816 3.5298,7.305 0,0.22338 -3.4826,2.7078 -7.7391,5.521 -8.7483,5.7819 -10.398,7.3704 -12.902,12.422 -0.97381,1.9645 -3.0868,5.5364 -4.6954,7.9375 -1.6086,2.4011 -3.399,5.5342 -3.9786,6.9623 -0.57956,1.4282 -1.2751,2.7318 -1.5457,2.8969 -0.27057,0.16512 -1.3622,-1.6794 -2.4259,-4.0989 z m -35.747,-219.79 c 3.6917,-2.4585 9.6302,-8.6126 11.155,-11.56 3.0493,-5.8947 1.3475,-13.327 -3.0515,-13.327 -2.6735,0 -11.483,8.803 -13.703,13.692 -1.9717,4.3437 -1.9525,6.5302 0.086,9.8286 1.8654,3.0183 2.7162,3.2292 5.5133,1.3664 z m 531.54,153.2 c -0.88907,-0.88906 -0.65209,-6.2738 0.83336,-18.937 l 1.3967,-11.906 0.50772,7.7838 c 0.27924,4.2811 0.75493,8.031 1.0571,8.3331 0.30216,0.30216 1.0959,-0.16444 1.7638,-1.0369 1.1339,-1.481 1.1779,-1.3755 0.66278,1.5887 -1.3212,7.6036 -4.8203,15.575 -6.2215,14.174 z m -589.13,-10.151 c -4.2758,-2.5634 -7.7899,-7.6548 -10.809,-15.661 -1.3727,-3.6399 -2.8112,-7.0232 -3.1966,-7.5184 -0.38548,-0.49518 -1.6173,-4.0671 -2.7374,-7.9375 -1.1201,-3.8705 -2.4501,-7.5384 -2.9556,-8.151 -1.5025,-1.8208 -1.615,-30.272 -0.17146,-43.336 0.67536,-6.1119 1.4215,-13.077 1.6581,-15.478 1.0433,-10.589 6.7652,-39.283 8.0677,-40.458 0.25607,-0.23103 0.23734,0.5327 -0.04159,1.6972 -0.27896,1.1645 -0.22124,2.8903 0.12827,3.8351 0.62044,1.6772 0.6589,1.6665 1.6242,-0.45207 3.7702,-8.2748 2.6121,14.378 -1.4638,28.631 -1.3733,4.8022 -3.3884,11.36 -4.4781,14.572 -1.8457,5.4415 -1.9641,6.7176 -1.7305,18.653 0.23843,12.183 0.36317,13.055 2.5419,17.773 1.2602,2.7285 2.7529,4.9609 3.3172,4.9609 1.2698,0 2.4764,-5.9004 3.1653,-15.478 0.41747,-5.8044 1.3401,-9.4998 4.921,-19.711 l 4.4072,-12.567 2.9621,3.2405 c 1.6292,1.7823 3.3514,3.2405 3.8272,3.2405 1.8917,0 3.805,-5.8731 6.0119,-18.455 0.48932,-2.7896 0.70099,-2.9766 3.3706,-2.9766 4.5997,0 8.7272,1.5792 9.6983,3.7105 0.48125,1.0562 0.875,4.5289 0.875,7.7171 0,5.3116 -0.21586,6.0818 -2.5797,9.2045 -8.702,11.496 -10.767,17.36 -13.306,37.791 -0.47864,3.8518 -1.1615,7.3735 -1.5175,7.826 -0.73585,0.93542 -1.5361,10.5 -2.0946,25.032 -0.5555,14.456 -1.0416,17.917 -2.8372,20.2 -1.9629,2.4954 -2.637,2.505 -6.6569,0.09508 z m 505.09,-107.42 c -0.73584,-0.32349 -2.165,-1.8383 -3.176,-3.3663 -1.0409,-1.5732 -5.095,-4.9221 -9.3471,-7.7212 -4.1299,-2.7187 -9.7555,-7.0942 -12.501,-9.7234 -5.3104,-5.0849 -6.182,-5.4509 -8.6094,-3.615 -2.5542,1.9319 -4.0883,1.4801 -4.631,-1.3638 -0.66149,-3.4661 -2.0238,-52.517 -1.5212,-54.773 0.21829,-0.9798 0.74669,-2.9389 1.1742,-4.3536 0.76954,-2.5464 0.79634,-2.5584 2.6777,-1.1906 1.0452,0.75986 1.9116,1.828 1.9253,2.3737 0.0137,0.54571 0.31984,0.99219 0.68028,0.99219 0.63053,0 4.5955,7.6476 10.905,21.034 1.6462,3.4925 3.7173,7.3358 4.6024,8.5406 1.9052,2.5934 9.0366,7.3248 16.777,11.131 8.7095,4.2829 9.6257,4.856 13.559,8.4816 4.802,4.4264 6.6817,9.5589 6.6817,18.245 0,7.8756 -1.5816,12.282 -5.053,14.077 -2.6718,1.3816 -11.963,2.1907 -14.144,1.2317 z m -71.798,-24.317 c -7.2464,-3.4727 -10.52,-6.8263 -14.158,-14.502 -2.3914,-5.046 -4.4854,-7.7978 -11.101,-14.588 -9.4651,-9.7148 -10.313,-11.358 -7.2316,-14.008 2.802,-2.4102 4.2795,-2.3134 5.2909,0.34686 1.5466,4.0678 4.6524,7.2038 9.5666,9.6595 5.8772,2.9368 10.85,3.1917 18.121,0.92867 3.514,-1.0937 4.9722,-1.2607 5.1984,-0.59531 1.4711,4.327 2.759,15.915 2.759,24.825 0,12.444 0.32635,12.137 -8.4449,7.9337 z m -443.14,-8.8813 c 0.0381,-0.92468 0.22617,-1.1128 0.47955,-0.47956 0.22929,0.57299 0.2011,1.2576 -0.06263,1.5214 -0.26376,0.26375 -0.45136,-0.20506 -0.41689,-1.0418 z m 592.13,-5.6885 c -1.5781,-5.4902 -3.0871,-8.1358 -4.6411,-8.1366 -1.8294,-7.9e-4 -6.6228,-4.4028 -9.0749,-8.3338 -1.0893,-1.7463 -3.3281,-6.5683 -4.9751,-10.716 -4.2811,-10.78 -7.4644,-17.444 -9.7892,-20.492 -2.8888,-3.7874 -13.668,-12.845 -15.286,-12.845 -3.165,0 -2.504,4.0631 2.0322,12.492 4.457,8.2817 7.2933,15.933 8.6274,23.274 0.66972,3.685 1.4422,7.4489 1.7167,8.3644 0.39709,1.3244 0.01,1.867 -1.895,2.6561 -3.0484,1.2627 -8.3906,6.6016 -10.966,10.959 -1.7327,2.9318 -2.3523,3.3734 -4.7325,3.3734 -3.6642,0 -6.071,-2.5237 -9.5143,-9.9762 -4.068,-8.8046 -9.0645,-24.354 -9.4909,-29.537 -0.55105,-6.697 0.30742,-12.08 1.9271,-12.083 2.2553,-0.005 6.4741,-3.0719 7.3668,-5.3552 1.4335,-3.6665 0.64671,-13.502 -2.2043,-27.556 -0.46703,-2.3022 -0.37695,-2.2625 4.0527,1.7859 2.7696,2.5313 5.2552,4.1405 6.3954,4.1405 1.7085,0 1.8058,-0.20661 1.1587,-2.4628 -1.4817,-5.1665 -6.9672,-10.237 -11.075,-10.237 -0.90851,0 -1.7735,-0.44648 -1.9221,-0.99219 -0.14867,-0.5457 -1.4348,-4.2069 -2.858,-8.1359 -3.4518,-9.5291 -10.229,-19.324 -25,-36.13 -2.1828,-2.4836 -5.9333,-6.7968 -8.3344,-9.5848 -6.7834,-7.8766 -16.103,-17.391 -21.309,-21.754 -5.1209,-4.2918 -7.3908,-7.8546 -3.4118,-5.355 16.622,10.442 47.705,36.031 50.625,41.677 0.70425,1.3619 4.7622,6.0694 9.0178,10.461 4.6718,4.8214 10.51,12.074 14.735,18.304 3.8486,5.6753 9.1629,13.221 11.81,16.769 8.7946,11.789 14.068,19.684 16.897,25.3 1.5395,3.0559 3.4754,6.5137 4.3019,7.684 0.8265,1.1703 2.4162,4.5636 3.5327,7.5406 1.1165,2.9771 3.9498,10.283 6.2963,16.234 2.3465,5.9518 4.8189,13.204 5.4942,16.116 1.2472,5.3777 2.5314,16.322 1.9152,16.322 -0.18566,0 -0.82523,-1.6966 -1.4213,-3.7703 z m -590.54,0.13229 c 0.0381,-0.92468 0.22617,-1.1128 0.47955,-0.47956 0.22929,0.57299 0.2011,1.2576 -0.06263,1.5214 -0.26376,0.26375 -0.45136,-0.20506 -0.41689,-1.0418 z m 22.559,-55.893 c 1.1061,-2.1828 2.1897,-3.9688 2.408,-3.9688 0.2183,0 -0.50813,1.7859 -1.6142,3.9688 -1.1061,2.1828 -2.1897,3.9688 -2.408,3.9688 -0.2183,0 0.50813,-1.7859 1.6142,-3.9688 z m 4.3656,-7.9375 c 0.46728,-0.87312 1.0282,-1.5875 1.2465,-1.5875 0.2183,0 0.0145,0.71438 -0.45273,1.5875 -0.46728,0.87313 -1.0282,1.5875 -1.2465,1.5875 -0.2183,0 -0.0145,-0.71437 0.45273,-1.5875 z m 3.175,-5.5562 c 0.46728,-0.87312 1.0282,-1.5875 1.2465,-1.5875 0.2183,0 0.0145,0.71438 -0.45273,1.5875 -0.46728,0.87313 -1.0282,1.5875 -1.2465,1.5875 -0.2183,0 -0.0145,-0.71437 0.45273,-1.5875 z m 2.0758,-3.3734 c 1.5267,-2.603 7.0599,-10.573 8.4504,-12.173 0.8654,-0.9953 2.0766,-1.5994 2.7153,-1.3543 0.86577,0.33223 0.46914,1.0876 -1.5918,3.0315 -1.5097,1.424 -4.2239,4.5912 -6.0317,7.0383 -2.9391,3.9785 -5.065,6.0533 -3.5423,3.4571 z m 47.094,-13.368 c -1.952,-3.3422 -4.3038,-6.2289 -5.7897,-7.1063 -1.3763,-0.81275 -3.1463,-2.6752 -3.9332,-4.1387 -1.4152,-2.632 -1.4088,-2.6995 0.58575,-6.189 1.1091,-1.9404 2.0209,-4.2963 2.0261,-5.2353 0.012,-2.1367 5.804,-9.9175 10.699,-14.372 2.0352,-1.8522 3.8947,-3.3676 4.1322,-3.3676 0.2375,0 2.7149,-1.8167 5.5053,-4.0371 3.4645,-2.7568 5.0735,-3.6378 5.0735,-2.7781 0,0.69243 0.55001,1.259 1.2222,1.259 0.67223,0 2.5921,0.69883 4.2663,1.553 1.8842,0.96125 3.9099,1.3959 5.3165,1.1409 4.733,-0.85827 9.6793,-6.4941 10.053,-11.454 0.0879,-1.1672 1.1435,-2.4082 2.935,-3.4506 4.8629,-2.8294 16.786,-11.042 25.308,-17.432 4.5227,-3.3912 8.372,-6.0169 8.5539,-5.835 0.1819,0.1819 -0.92889,2.2026 -2.4685,4.4904 -2.9918,4.4459 -3.2498,5.2155 -2.0055,5.9845 1.5572,0.96241 0.72611,3.0438 -4.2319,10.598 -2.7641,4.2118 -5.8139,8.9722 -6.7773,10.579 -3.6263,6.0474 -7.3201,8.3777 -22.404,14.134 -14.817,5.655 -18.911,9.8028 -22.492,22.79 -1.8601,6.747 -2.4999,8.0428 -4.8205,9.7638 -1.4716,1.0914 -3.6427,3.5024 -4.8245,5.3578 -1.1819,1.8554 -2.2599,3.3734 -2.3956,3.3734 -0.13572,0 -1.726,-2.5329 -3.534,-5.6286 z m 14.33,-59.443 c 8.589,-8.0153 27.728,-22.346 38.894,-29.123 5.8224,-3.5338 21.533,-11.03 24.718,-11.794 3.2253,-0.77361 3.3965,0.87787 0.28997,2.7978 -1.5307,0.94602 -2.7831,2.2794 -2.7831,2.963 0,1.0741 0.94346,1.1705 6.9436,0.70925 l 6.9436,-0.53373 -5.5333,5.576 c -3.0433,3.0668 -5.6875,5.576 -5.876,5.576 -0.18851,0 0.2484,-0.6532 0.9709,-1.4516 1.8459,-2.0397 1.6379,-3.227 -0.7224,-4.1243 -8.0606,-3.0646 -29.646,3.6843 -41.046,12.834 -4.4417,3.5647 -10.725,10.208 -13.274,14.035 -0.78493,1.1784 -2.8134,2.2075 -5.9531,3.0204 -2.6194,0.67814 -5.2983,1.5966 -5.9531,2.041 -0.6548,0.4444 0.41672,-0.69201 2.3812,-2.5253 z m 338.53,0.20009 c -0.87312,-0.21628 -5.9174,-2.1351 -11.21,-4.2641 -5.2921,-2.129 -11.543,-4.2922 -13.891,-4.807 -2.3477,-0.51489 -4.5442,-1.1698 -4.8811,-1.4554 -0.67547,-0.57259 -5.5085,-14.393 -5.1564,-14.745 0.12089,-0.12089 4.5045,1.5409 9.7413,3.6928 12.622,5.1866 11.725,4.7915 19.642,8.6512 6.7195,3.2758 6.9453,3.4742 6.9453,6.1035 0,1.4947 0.54496,3.7714 1.211,5.0594 1.2736,2.463 1.058,2.6214 -2.4016,1.7644 z m -257.18,-38.744 c 11.899,-9.6432 18.499,-13.066 25.194,-13.066 3.8602,0 3.2794,1.121 -1.1696,2.2574 -4.0548,1.0357 -14.618,6.9556 -18.512,10.375 -1.9236,1.6889 -3.5817,2.436 -5.3415,2.4067 l -2.5521,-0.0426 2.3812,-1.9298 z m -5.9531,-10.093 c 0.21828,-0.25001 3.3614,-1.7573 6.9847,-3.3495 7.0923,-3.1166 15.071,-4.8728 16.346,-3.5978 1.049,1.049 -1.5873,3.8221 -4.9821,5.2405 -3.0287,1.2655 -3.9338,1.0682 -2.0962,-0.4569 1.8857,-1.565 1.4271,-2.4765 -0.973,-1.9341 -2.452,0.55417 -12.41,3.3867 -14.389,4.0928 -0.7083,0.25276 -1.1092,0.25502 -0.89094,0.005 z m 90.259,-5.2383 -4.5938,-1.342 2.4358,-3.6774 c 1.3397,-2.0226 2.9604,-3.8787 3.6016,-4.1248 0.65516,-0.25142 1.1658,-1.4578 1.1658,-2.7543 0,-1.9488 -0.38511,-2.384 -2.4805,-2.803 -1.3643,-0.27285 -4.1146,-0.49609 -6.1119,-0.49609 -4.1364,0 -3.8781,-0.52991 1.6894,-3.4654 5.675,-2.9922 16.356,-4.0271 41.828,-4.053 18.953,-0.0193 22.429,0.16814 26.392,1.4232 4.6026,1.4576 5.5603,2.3681 3.3734,3.2073 -2.6759,1.0268 -0.0159,4.7875 5.8785,8.3109 l 2.7035,1.616 -14.61,-0.46038 c -16.802,-0.52945 -23.388,0.28402 -30.177,3.7271 -4.8812,2.4757 -7.9836,3.5025 -15.785,5.2244 -6.4642,1.4268 -9.5142,1.3605 -15.31,-0.33249 z m 18.881,-15.991 c 0.26982,-0.43656 -0.26596,-0.79375 -1.1906,-0.79375 -0.92464,0 -1.4604,0.35719 -1.1906,0.79375 0.26982,0.43656 0.8056,0.79375 1.1906,0.79375 0.385,0 0.92081,-0.35719 1.1906,-0.79375 z m 97.086,2.6328 c 0.57299,-0.22929 1.2576,-0.2011 1.5214,0.0626 0.26375,0.26376 -0.20506,0.45136 -1.0418,0.41689 -0.92468,-0.0381 -1.1128,-0.22617 -0.47956,-0.47955 z m -6.35,-1.5875 c 0.57299,-0.22929 1.2576,-0.2011 1.5214,0.0626 0.26375,0.26376 -0.20506,0.45136 -1.0418,0.41689 -0.92468,-0.0381 -1.1128,-0.22617 -0.47956,-0.47955 z m -7.1438,-1.5875 c 0.57299,-0.22929 1.2576,-0.2011 1.5214,0.0626 0.26375,0.26376 -0.20506,0.45136 -1.0418,0.41689 -0.92468,-0.0381 -1.1128,-0.22617 -0.47956,-0.47955 z"
       fill="#d6f7ff"
       id="path6"
       style="stroke-width:1.1889" />
  </g>
</svg>
