<?xml version="1.0" encoding="UTF-8" standalone="no"?>
<!-- Created with Inkscape (http://www.inkscape.org/) -->

<svg
   version="1.1"
   id="svg1"
   width="400"
   height="30"
   viewBox="0 0 400 30"
   sodipodi:docname="Healthbar.svg"
   inkscape:version="1.3.2 (091e20e, 2023-11-25, custom)"
   inkscape:export-filename="Heartbar.png"
   inkscape:export-xdpi="96"
   inkscape:export-ydpi="96"
   xml:space="preserve"
   xmlns:inkscape="http://www.inkscape.org/namespaces/inkscape"
   xmlns:sodipodi="http://sodipodi.sourceforge.net/DTD/sodipodi-0.dtd"
   xmlns="http://www.w3.org/2000/svg"
   xmlns:svg="http://www.w3.org/2000/svg"><sodipodi:namedview
     id="namedview1"
     pagecolor="#505050"
     bordercolor="#ffffff"
     borderopacity="1"
     inkscape:showpageshadow="false"
     inkscape:pageopacity="0"
     inkscape:pagecheckerboard="true"
     inkscape:deskcolor="#505050"
     inkscape:zoom="2.0485258"
     inkscape:cx="199.4117"
     inkscape:cy="6.1019491"
     inkscape:window-width="1920"
     inkscape:window-height="1009"
     inkscape:window-x="-8"
     inkscape:window-y="-8"
     inkscape:window-maximized="1"
     inkscape:current-layer="layer-MC1"
     showborder="true"
     shape-rendering="auto"
     guidecolor="#7386e5"
     guideopacity="0.6"
     showgrid="true"
     borderlayer="true"
     inkscape:clip-to-page="false"
     labelstyle="default" /><defs
     id="defs1"><clipPath
       clipPathUnits="userSpaceOnUse"
       id="clipPath2"><path
         d="m 492.821,708.202 c 0,0 -32.237,-51.393 4.548,-95.802 v 0 C 538.915,562.239 606.435,508.731 606.435,508.731 v 0 c 0,0 96.083,79.284 109.682,104.573 v 0 c 18.467,34.344 30.195,75.738 -14.414,109.811 v 0 c -8.491,6.485 -6.634,4.893 -5.566,4.009 v 0 c -3.509,2.756 -26.151,18.462 -62.736,-2.854 v 0 c 0,0 -12.244,-3.869 -27.507,-26.01 v 0 c 0,0 -24.164,37.491 -60.21,37.491 v 0 c -15.705,0 -33.664,-7.116 -52.863,-27.549"
         transform="translate(-605.50001,-697.95212)"
         id="path2" /></clipPath><clipPath
       clipPathUnits="userSpaceOnUse"
       id="clipPath4"><path
         d="m 492.821,708.202 c 0,0 -32.237,-51.393 4.548,-95.802 v 0 C 538.915,562.239 606.435,508.731 606.435,508.731 v 0 c 0,0 96.083,79.284 109.682,104.573 v 0 c 18.467,34.344 30.195,75.738 -14.414,109.811 v 0 c -8.491,6.485 -6.634,4.893 -5.566,4.009 v 0 c -3.509,2.756 -26.151,18.462 -62.736,-2.854 v 0 c 0,0 -12.244,-3.869 -27.507,-26.01 v 0 c 0,0 -24.164,37.491 -60.21,37.491 v 0 c -15.705,0 -33.664,-7.116 -52.863,-27.549"
         transform="translate(-623.59472,-731.34332)"
         id="path4" /></clipPath><clipPath
       clipPathUnits="userSpaceOnUse"
       id="clipPath6"><path
         d="m 492.821,708.202 c 0,0 -32.237,-51.393 4.548,-95.802 v 0 C 538.915,562.239 606.435,508.731 606.435,508.731 v 0 c 0,0 96.083,79.284 109.682,104.573 v 0 c 18.467,34.344 30.195,75.738 -14.414,109.811 v 0 c -8.491,6.485 -6.634,4.893 -5.566,4.009 v 0 c -3.509,2.756 -26.151,18.462 -62.736,-2.854 v 0 c 0,0 -12.244,-3.869 -27.507,-26.01 v 0 c 0,0 -24.164,37.491 -60.21,37.491 v 0 c -15.705,0 -33.664,-7.116 -52.863,-27.549"
         transform="translate(-624.59962,-731.59332)"
         id="path6" /></clipPath><clipPath
       clipPathUnits="userSpaceOnUse"
       id="clipPath8"><path
         d="m 492.821,708.202 c 0,0 -32.237,-51.393 4.548,-95.802 v 0 C 538.915,562.239 606.435,508.731 606.435,508.731 v 0 c 0,0 96.083,79.284 109.682,104.573 v 0 c 18.467,34.344 30.195,75.738 -14.414,109.811 v 0 c -8.491,6.485 -6.634,4.893 -5.566,4.009 v 0 c -3.509,2.756 -26.151,18.462 -62.736,-2.854 v 0 c 0,0 -12.244,-3.869 -27.507,-26.01 v 0 c 0,0 -24.164,37.491 -60.21,37.491 v 0 c -15.705,0 -33.664,-7.116 -52.863,-27.549"
         transform="translate(-641.17382,-675.59422)"
         id="path8" /></clipPath><clipPath
       clipPathUnits="userSpaceOnUse"
       id="clipPath10"><path
         d="m 492.821,708.202 c 0,0 -32.237,-51.393 4.548,-95.802 v 0 C 538.915,562.239 606.435,508.731 606.435,508.731 v 0 c 0,0 96.083,79.284 109.682,104.573 v 0 c 18.467,34.344 30.195,75.738 -14.414,109.811 v 0 c -8.491,6.485 -6.634,4.893 -5.566,4.009 v 0 c -3.509,2.756 -26.151,18.462 -62.736,-2.854 v 0 c 0,0 -12.244,-3.869 -27.507,-26.01 v 0 c 0,0 -24.164,37.491 -60.21,37.491 v 0 c -15.705,0 -33.664,-7.116 -52.863,-27.549"
         transform="translate(-645.02342,-633.52052)"
         id="path10" /></clipPath><clipPath
       clipPathUnits="userSpaceOnUse"
       id="clipPath12"><path
         d="m 492.821,708.202 c 0,0 -32.237,-51.393 4.548,-95.802 v 0 C 538.915,562.239 606.435,508.731 606.435,508.731 v 0 c 0,0 96.083,79.284 109.682,104.573 v 0 c 18.467,34.344 30.195,75.738 -14.414,109.811 v 0 c -8.491,6.485 -6.634,4.893 -5.566,4.009 v 0 c -3.509,2.756 -26.151,18.462 -62.736,-2.854 v 0 c 0,0 -12.244,-3.869 -27.507,-26.01 v 0 c 0,0 -24.164,37.491 -60.21,37.491 v 0 c -15.705,0 -33.664,-7.116 -52.863,-27.549"
         transform="translate(-640.33792,-676.19972)"
         id="path12" /></clipPath><clipPath
       clipPathUnits="userSpaceOnUse"
       id="clipPath14"><path
         d="m 492.821,708.202 c 0,0 -32.237,-51.393 4.548,-95.802 v 0 C 538.915,562.239 606.435,508.731 606.435,508.731 v 0 c 0,0 96.083,79.284 109.682,104.573 v 0 c 18.467,34.344 30.195,75.738 -14.414,109.811 v 0 c -8.491,6.485 -6.634,4.893 -5.566,4.009 v 0 c -3.509,2.756 -26.151,18.462 -62.736,-2.854 v 0 c 0,0 -12.244,-3.869 -27.507,-26.01 v 0 c 0,0 -24.164,37.491 -60.21,37.491 v 0 c -15.705,0 -33.664,-7.116 -52.863,-27.549"
         transform="translate(-669.04792,-723.30712)"
         id="path14" /></clipPath><clipPath
       clipPathUnits="userSpaceOnUse"
       id="clipPath16"><path
         d="m 492.821,708.202 c 0,0 -32.237,-51.393 4.548,-95.802 v 0 C 538.915,562.239 606.435,508.731 606.435,508.731 v 0 c 0,0 96.083,79.284 109.682,104.573 v 0 c 18.467,34.344 30.195,75.738 -14.414,109.811 v 0 c -8.491,6.485 -6.634,4.893 -5.566,4.009 v 0 c -3.509,2.756 -26.151,18.462 -62.736,-2.854 v 0 c 0,0 -12.244,-3.869 -27.507,-26.01 v 0 c 0,0 -24.164,37.491 -60.21,37.491 v 0 c -15.705,0 -33.664,-7.116 -52.863,-27.549"
         transform="translate(-656.24122,-748.67042)"
         id="path16" /></clipPath><clipPath
       clipPathUnits="userSpaceOnUse"
       id="clipPath18"><path
         d="m 492.821,708.202 c 0,0 -32.237,-51.393 4.548,-95.802 v 0 C 538.915,562.239 606.435,508.731 606.435,508.731 v 0 c 0,0 96.083,79.284 109.682,104.573 v 0 c 18.467,34.344 30.195,75.738 -14.414,109.811 v 0 c -8.491,6.485 -6.634,4.893 -5.566,4.009 v 0 c -3.509,2.756 -26.151,18.462 -62.736,-2.854 v 0 c 0,0 -12.244,-3.869 -27.507,-26.01 v 0 c 0,0 -24.164,37.491 -60.21,37.491 v 0 c -15.705,0 -33.664,-7.116 -52.863,-27.549"
         transform="translate(-684.61912,-752.43702)"
         id="path18" /></clipPath><clipPath
       clipPathUnits="userSpaceOnUse"
       id="clipPath20"><path
         d="m 492.821,708.202 c 0,0 -32.237,-51.393 4.548,-95.802 v 0 C 538.915,562.239 606.435,508.731 606.435,508.731 v 0 c 0,0 96.083,79.284 109.682,104.573 v 0 c 18.467,34.344 30.195,75.738 -14.414,109.811 v 0 c -8.491,6.485 -6.634,4.893 -5.566,4.009 v 0 c -3.509,2.756 -26.151,18.462 -62.736,-2.854 v 0 c 0,0 -12.244,-3.869 -27.507,-26.01 v 0 c 0,0 -24.164,37.491 -60.21,37.491 v 0 c -15.705,0 -33.664,-7.116 -52.863,-27.549"
         transform="translate(-710.23342,-738.62652)"
         id="path20" /></clipPath><clipPath
       clipPathUnits="userSpaceOnUse"
       id="clipPath22"><path
         d="m 492.821,708.202 c 0,0 -32.237,-51.393 4.548,-95.802 v 0 C 538.915,562.239 606.435,508.731 606.435,508.731 v 0 c 0,0 96.083,79.284 109.682,104.573 v 0 c 18.467,34.344 30.195,75.738 -14.414,109.811 v 0 c -8.491,6.485 -6.634,4.893 -5.566,4.009 v 0 c -3.509,2.756 -26.151,18.462 -62.736,-2.854 v 0 c 0,0 -12.244,-3.869 -27.507,-26.01 v 0 c 0,0 -24.164,37.491 -60.21,37.491 v 0 c -15.705,0 -33.664,-7.116 -52.863,-27.549"
         transform="translate(-669.04792,-723.30712)"
         id="path22" /></clipPath><clipPath
       clipPathUnits="userSpaceOnUse"
       id="clipPath24"><path
         d="m 492.821,708.202 c 0,0 -32.237,-51.393 4.548,-95.802 v 0 C 538.915,562.239 606.435,508.731 606.435,508.731 v 0 c 0,0 96.083,79.284 109.682,104.573 v 0 c 18.467,34.344 30.195,75.738 -14.414,109.811 v 0 c -8.491,6.485 -6.634,4.893 -5.566,4.009 v 0 c -3.509,2.756 -26.151,18.462 -62.736,-2.854 v 0 c 0,0 -12.244,-3.869 -27.507,-26.01 v 0 c 0,0 -24.164,37.491 -60.21,37.491 v 0 c -15.705,0 -33.664,-7.116 -52.863,-27.549"
         transform="translate(-669.04792,-723.30712)"
         id="path24" /></clipPath><clipPath
       clipPathUnits="userSpaceOnUse"
       id="clipPath26"><path
         d="m 492.821,708.202 c 0,0 -32.237,-51.393 4.548,-95.802 v 0 C 538.915,562.239 606.435,508.731 606.435,508.731 v 0 c 0,0 96.083,79.284 109.682,104.573 v 0 c 18.467,34.344 30.195,75.738 -14.414,109.811 v 0 c -8.491,6.485 -6.634,4.893 -5.566,4.009 v 0 c -3.509,2.756 -26.151,18.462 -62.736,-2.854 v 0 c 0,0 -12.244,-3.869 -27.507,-26.01 v 0 c 0,0 -24.164,37.491 -60.21,37.491 v 0 c -15.705,0 -33.664,-7.116 -52.863,-27.549"
         transform="translate(-708.97662,-694.42822)"
         id="path26" /></clipPath><clipPath
       clipPathUnits="userSpaceOnUse"
       id="clipPath28"><path
         d="m 492.821,708.202 c 0,0 -32.237,-51.393 4.548,-95.802 v 0 C 538.915,562.239 606.435,508.731 606.435,508.731 v 0 c 0,0 96.083,79.284 109.682,104.573 v 0 c 18.467,34.344 30.195,75.738 -14.414,109.811 v 0 c -8.491,6.485 -6.634,4.893 -5.566,4.009 v 0 c -3.509,2.756 -26.151,18.462 -62.736,-2.854 v 0 c 0,0 -12.244,-3.869 -27.507,-26.01 v 0 c 0,0 -24.164,37.491 -60.21,37.491 v 0 c -15.705,0 -33.664,-7.116 -52.863,-27.549"
         transform="translate(-708.47562,-694.61672)"
         id="path28" /></clipPath><clipPath
       clipPathUnits="userSpaceOnUse"
       id="clipPath30"><path
         d="m 492.821,708.202 c 0,0 -32.237,-51.393 4.548,-95.802 v 0 C 538.915,562.239 606.435,508.731 606.435,508.731 v 0 c 0,0 96.083,79.284 109.682,104.573 v 0 c 18.467,34.344 30.195,75.738 -14.414,109.811 v 0 c -8.491,6.485 -6.634,4.893 -5.566,4.009 v 0 c -3.509,2.756 -26.151,18.462 -62.736,-2.854 v 0 c 0,0 -12.244,-3.869 -27.507,-26.01 v 0 c 0,0 -24.164,37.491 -60.21,37.491 v 0 c -15.705,0 -33.664,-7.116 -52.863,-27.549"
         transform="translate(-710.23342,-738.62652)"
         id="path30" /></clipPath><clipPath
       clipPathUnits="userSpaceOnUse"
       id="clipPath32"><path
         d="m 492.821,708.202 c 0,0 -32.237,-51.393 4.548,-95.802 v 0 C 538.915,562.239 606.435,508.731 606.435,508.731 v 0 c 0,0 96.083,79.284 109.682,104.573 v 0 c 18.467,34.344 30.195,75.738 -14.414,109.811 v 0 c -8.491,6.485 -6.634,4.893 -5.566,4.009 v 0 c -3.509,2.756 -26.151,18.462 -62.736,-2.854 v 0 c 0,0 -12.244,-3.869 -27.507,-26.01 v 0 c 0,0 -24.164,37.491 -60.21,37.491 v 0 c -15.705,0 -33.664,-7.116 -52.863,-27.549"
         transform="translate(-708.97662,-694.42822)"
         id="path32" /></clipPath><clipPath
       clipPathUnits="userSpaceOnUse"
       id="clipPath34"><path
         d="m 492.821,708.202 c 0,0 -32.237,-51.393 4.548,-95.802 v 0 C 538.915,562.239 606.435,508.731 606.435,508.731 v 0 c 0,0 96.083,79.284 109.682,104.573 v 0 c 18.467,34.344 30.195,75.738 -14.414,109.811 v 0 c -8.491,6.485 -6.634,4.893 -5.566,4.009 v 0 c -3.509,2.756 -26.151,18.462 -62.736,-2.854 v 0 c 0,0 -12.244,-3.869 -27.507,-26.01 v 0 c 0,0 -24.164,37.491 -60.21,37.491 v 0 c -15.705,0 -33.664,-7.116 -52.863,-27.549"
         transform="translate(-700.18852,-673.58542)"
         id="path34" /></clipPath><clipPath
       clipPathUnits="userSpaceOnUse"
       id="clipPath36"><path
         d="m 492.821,708.202 c 0,0 -32.237,-51.393 4.548,-95.802 v 0 C 538.915,562.239 606.435,508.731 606.435,508.731 v 0 c 0,0 96.083,79.284 109.682,104.573 v 0 c 18.467,34.344 30.195,75.738 -14.414,109.811 v 0 c -8.491,6.485 -6.634,4.893 -5.566,4.009 v 0 c -3.509,2.756 -26.151,18.462 -62.736,-2.854 v 0 c 0,0 -12.244,-3.869 -27.507,-26.01 v 0 c 0,0 -24.164,37.491 -60.21,37.491 v 0 c -15.705,0 -33.664,-7.116 -52.863,-27.549"
         transform="translate(-699.18362,-672.32962)"
         id="path36" /></clipPath><clipPath
       clipPathUnits="userSpaceOnUse"
       id="clipPath38"><path
         d="m 492.821,708.202 c 0,0 -32.237,-51.393 4.548,-95.802 v 0 C 538.915,562.239 606.435,508.731 606.435,508.731 v 0 c 0,0 96.083,79.284 109.682,104.573 v 0 c 18.467,34.344 30.195,75.738 -14.414,109.811 v 0 c -8.491,6.485 -6.634,4.893 -5.566,4.009 v 0 c -3.509,2.756 -26.151,18.462 -62.736,-2.854 v 0 c 0,0 -12.244,-3.869 -27.507,-26.01 v 0 c 0,0 -24.164,37.491 -60.21,37.491 v 0 c -15.705,0 -33.664,-7.116 -52.863,-27.549"
         transform="translate(-700.18852,-673.58542)"
         id="path38" /></clipPath><clipPath
       clipPathUnits="userSpaceOnUse"
       id="clipPath40"><path
         d="m 492.821,708.202 c 0,0 -32.237,-51.393 4.548,-95.802 v 0 C 538.915,562.239 606.435,508.731 606.435,508.731 v 0 c 0,0 96.083,79.284 109.682,104.573 v 0 c 18.467,34.344 30.195,75.738 -14.414,109.811 v 0 c -8.491,6.485 -6.634,4.893 -5.566,4.009 v 0 c -3.509,2.756 -26.151,18.462 -62.736,-2.854 v 0 c 0,0 -12.244,-3.869 -27.507,-26.01 v 0 c 0,0 -24.164,37.491 -60.21,37.491 v 0 c -15.705,0 -33.664,-7.116 -52.863,-27.549"
         transform="translate(-642.17872,-635.66501)"
         id="path40" /></clipPath><clipPath
       clipPathUnits="userSpaceOnUse"
       id="clipPath42"><path
         d="m 492.821,708.202 c 0,0 -32.237,-51.393 4.548,-95.802 v 0 C 538.915,562.239 606.435,508.731 606.435,508.731 v 0 c 0,0 96.083,79.284 109.682,104.573 v 0 c 18.467,34.344 30.195,75.738 -14.414,109.811 v 0 c -8.491,6.485 -6.634,4.893 -5.566,4.009 v 0 c -3.509,2.756 -26.151,18.462 -62.736,-2.854 v 0 c 0,0 -12.244,-3.869 -27.507,-26.01 v 0 c 0,0 -24.164,37.491 -60.21,37.491 v 0 c -15.705,0 -33.664,-7.116 -52.863,-27.549"
         transform="translate(-665.53222,-590.21392)"
         id="path42" /></clipPath><clipPath
       clipPathUnits="userSpaceOnUse"
       id="clipPath44"><path
         d="m 492.821,708.202 c 0,0 -32.237,-51.393 4.548,-95.802 v 0 C 538.915,562.239 606.435,508.731 606.435,508.731 v 0 c 0,0 96.083,79.284 109.682,104.573 v 0 c 18.467,34.344 30.195,75.738 -14.414,109.811 v 0 c -8.491,6.485 -6.634,4.893 -5.566,4.009 v 0 c -3.509,2.756 -26.151,18.462 -62.736,-2.854 v 0 c 0,0 -12.244,-3.869 -27.507,-26.01 v 0 c 0,0 -24.164,37.491 -60.21,37.491 v 0 c -15.705,0 -33.664,-7.116 -52.863,-27.549"
         transform="translate(-665.78522,-619.84472)"
         id="path44" /></clipPath><clipPath
       clipPathUnits="userSpaceOnUse"
       id="clipPath46"><path
         d="m 492.821,708.202 c 0,0 -32.237,-51.393 4.548,-95.802 v 0 C 538.915,562.239 606.435,508.731 606.435,508.731 v 0 c 0,0 96.083,79.284 109.682,104.573 v 0 c 18.467,34.344 30.195,75.738 -14.414,109.811 v 0 c -8.491,6.485 -6.634,4.893 -5.566,4.009 v 0 c -3.509,2.756 -26.151,18.462 -62.736,-2.854 v 0 c 0,0 -12.244,-3.869 -27.507,-26.01 v 0 c 0,0 -24.164,37.491 -60.21,37.491 v 0 c -15.705,0 -33.664,-7.116 -52.863,-27.549"
         transform="translate(-665.78522,-619.84472)"
         id="path46" /></clipPath><clipPath
       clipPathUnits="userSpaceOnUse"
       id="clipPath48"><path
         d="m 492.821,708.202 c 0,0 -32.237,-51.393 4.548,-95.802 v 0 C 538.915,562.239 606.435,508.731 606.435,508.731 v 0 c 0,0 96.083,79.284 109.682,104.573 v 0 c 18.467,34.344 30.195,75.738 -14.414,109.811 v 0 c -8.491,6.485 -6.634,4.893 -5.566,4.009 v 0 c -3.509,2.756 -26.151,18.462 -62.736,-2.854 v 0 c 0,0 -12.244,-3.869 -27.507,-26.01 v 0 c 0,0 -24.164,37.491 -60.21,37.491 v 0 c -15.705,0 -33.664,-7.116 -52.863,-27.549"
         transform="translate(-698.42972,-637.04981)"
         id="path48" /></clipPath><clipPath
       clipPathUnits="userSpaceOnUse"
       id="clipPath50"><path
         d="m 492.821,708.202 c 0,0 -32.237,-51.393 4.548,-95.802 v 0 C 538.915,562.239 606.435,508.731 606.435,508.731 v 0 c 0,0 96.083,79.284 109.682,104.573 v 0 c 18.467,34.344 30.195,75.738 -14.414,109.811 v 0 c -8.491,6.485 -6.634,4.893 -5.566,4.009 v 0 c -3.509,2.756 -26.151,18.462 -62.736,-2.854 v 0 c 0,0 -12.244,-3.869 -27.507,-26.01 v 0 c 0,0 -24.164,37.491 -60.21,37.491 v 0 c -15.705,0 -33.664,-7.116 -52.863,-27.549"
         transform="translate(-699.26561,-637.04981)"
         id="path50" /></clipPath><clipPath
       clipPathUnits="userSpaceOnUse"
       id="clipPath52"><path
         d="m 492.821,708.202 c 0,0 -32.237,-51.393 4.548,-95.802 v 0 C 538.915,562.239 606.435,508.731 606.435,508.731 v 0 c 0,0 96.083,79.284 109.682,104.573 v 0 c 18.467,34.344 30.195,75.738 -14.414,109.811 v 0 c -8.491,6.485 -6.634,4.893 -5.566,4.009 v 0 c -3.509,2.756 -26.151,18.462 -62.736,-2.854 v 0 c 0,0 -12.244,-3.869 -27.507,-26.01 v 0 c 0,0 -24.164,37.491 -60.21,37.491 v 0 c -15.705,0 -33.664,-7.116 -52.863,-27.549"
         transform="translate(-665.53222,-590.21392)"
         id="path52" /></clipPath><clipPath
       clipPathUnits="userSpaceOnUse"
       id="clipPath54"><path
         d="m 492.821,708.202 c 0,0 -32.237,-51.393 4.548,-95.802 v 0 C 538.915,562.239 606.435,508.731 606.435,508.731 v 0 c 0,0 96.083,79.284 109.682,104.573 v 0 c 18.467,34.344 30.195,75.738 -14.414,109.811 v 0 c -8.491,6.485 -6.634,4.893 -5.566,4.009 v 0 c -3.509,2.756 -26.151,18.462 -62.736,-2.854 v 0 c 0,0 -12.244,-3.869 -27.507,-26.01 v 0 c 0,0 -24.164,37.491 -60.21,37.491 v 0 c -15.705,0 -33.664,-7.116 -52.863,-27.549"
         transform="translate(-642.88382,-582.79792)"
         id="path54" /></clipPath><clipPath
       clipPathUnits="userSpaceOnUse"
       id="clipPath56"><path
         d="m 492.821,708.202 c 0,0 -32.237,-51.393 4.548,-95.802 v 0 C 538.915,562.239 606.435,508.731 606.435,508.731 v 0 c 0,0 96.083,79.284 109.682,104.573 v 0 c 18.467,34.344 30.195,75.738 -14.414,109.811 v 0 c -8.491,6.485 -6.634,4.893 -5.566,4.009 v 0 c -3.509,2.756 -26.151,18.462 -62.736,-2.854 v 0 c 0,0 -12.244,-3.869 -27.507,-26.01 v 0 c 0,0 -24.164,37.491 -60.21,37.491 v 0 c -15.705,0 -33.664,-7.116 -52.863,-27.549"
         transform="translate(-621.02732,-553.54001)"
         id="path56" /></clipPath><clipPath
       clipPathUnits="userSpaceOnUse"
       id="clipPath58"><path
         d="m 492.821,708.202 c 0,0 -32.237,-51.393 4.548,-95.802 v 0 C 538.915,562.239 606.435,508.731 606.435,508.731 v 0 c 0,0 96.083,79.284 109.682,104.573 v 0 c 18.467,34.344 30.195,75.738 -14.414,109.811 v 0 c -8.491,6.485 -6.634,4.893 -5.566,4.009 v 0 c -3.509,2.756 -26.151,18.462 -62.736,-2.854 v 0 c 0,0 -12.244,-3.869 -27.507,-26.01 v 0 c 0,0 -24.164,37.491 -60.21,37.491 v 0 c -15.705,0 -33.664,-7.116 -52.863,-27.549"
         transform="translate(-581.01371,-547.58111)"
         id="path58" /></clipPath><clipPath
       clipPathUnits="userSpaceOnUse"
       id="clipPath60"><path
         d="m 492.821,708.202 c 0,0 -32.237,-51.393 4.548,-95.802 v 0 C 538.915,562.239 606.435,508.731 606.435,508.731 v 0 c 0,0 96.083,79.284 109.682,104.573 v 0 c 18.467,34.344 30.195,75.738 -14.414,109.811 v 0 c -8.491,6.485 -6.634,4.893 -5.566,4.009 v 0 c -3.509,2.756 -26.151,18.462 -62.736,-2.854 v 0 c 0,0 -12.244,-3.869 -27.507,-26.01 v 0 c 0,0 -24.164,37.491 -60.21,37.491 v 0 c -15.705,0 -33.664,-7.116 -52.863,-27.549"
         transform="translate(-580.36871,-547.43551)"
         id="path60" /></clipPath><clipPath
       clipPathUnits="userSpaceOnUse"
       id="clipPath62"><path
         d="m 492.821,708.202 c 0,0 -32.237,-51.393 4.548,-95.802 v 0 C 538.915,562.239 606.435,508.731 606.435,508.731 v 0 c 0,0 96.083,79.284 109.682,104.573 v 0 c 18.467,34.344 30.195,75.738 -14.414,109.811 v 0 c -8.491,6.485 -6.634,4.893 -5.566,4.009 v 0 c -3.509,2.756 -26.151,18.462 -62.736,-2.854 v 0 c 0,0 -12.244,-3.869 -27.507,-26.01 v 0 c 0,0 -24.164,37.491 -60.21,37.491 v 0 c -15.705,0 -33.664,-7.116 -52.863,-27.549"
         transform="translate(-581.29151,-546.68071)"
         id="path62" /></clipPath><clipPath
       clipPathUnits="userSpaceOnUse"
       id="clipPath64"><path
         d="m 492.821,708.202 c 0,0 -32.237,-51.393 4.548,-95.802 v 0 C 538.915,562.239 606.435,508.731 606.435,508.731 v 0 c 0,0 96.083,79.284 109.682,104.573 v 0 c 18.467,34.344 30.195,75.738 -14.414,109.811 v 0 c -8.491,6.485 -6.634,4.893 -5.566,4.009 v 0 c -3.509,2.756 -26.151,18.462 -62.736,-2.854 v 0 c 0,0 -12.244,-3.869 -27.507,-26.01 v 0 c 0,0 -24.164,37.491 -60.21,37.491 v 0 c -15.705,0 -33.664,-7.116 -52.863,-27.549"
         transform="translate(-613.01372,-588.24511)"
         id="path64" /></clipPath><clipPath
       clipPathUnits="userSpaceOnUse"
       id="clipPath66"><path
         d="m 492.821,708.202 c 0,0 -32.237,-51.393 4.548,-95.802 v 0 C 538.915,562.239 606.435,508.731 606.435,508.731 v 0 c 0,0 96.083,79.284 109.682,104.573 v 0 c 18.467,34.344 30.195,75.738 -14.414,109.811 v 0 c -8.491,6.485 -6.634,4.893 -5.566,4.009 v 0 c -3.509,2.756 -26.151,18.462 -62.736,-2.854 v 0 c 0,0 -12.244,-3.869 -27.507,-26.01 v 0 c 0,0 -24.164,37.491 -60.21,37.491 v 0 c -15.705,0 -33.664,-7.116 -52.863,-27.549"
         transform="translate(-612.71192,-587.33501)"
         id="path66" /></clipPath><clipPath
       clipPathUnits="userSpaceOnUse"
       id="clipPath68"><path
         d="m 492.821,708.202 c 0,0 -32.237,-51.393 4.548,-95.802 v 0 C 538.915,562.239 606.435,508.731 606.435,508.731 v 0 c 0,0 96.083,79.284 109.682,104.573 v 0 c 18.467,34.344 30.195,75.738 -14.414,109.811 v 0 c -8.491,6.485 -6.634,4.893 -5.566,4.009 v 0 c -3.509,2.756 -26.151,18.462 -62.736,-2.854 v 0 c 0,0 -12.244,-3.869 -27.507,-26.01 v 0 c 0,0 -24.164,37.491 -60.21,37.491 v 0 c -15.705,0 -33.664,-7.116 -52.863,-27.549"
         transform="translate(-558.42041,-550.32712)"
         id="path68" /></clipPath><clipPath
       clipPathUnits="userSpaceOnUse"
       id="clipPath70"><path
         d="m 492.821,708.202 c 0,0 -32.237,-51.393 4.548,-95.802 v 0 C 538.915,562.239 606.435,508.731 606.435,508.731 v 0 c 0,0 96.083,79.284 109.682,104.573 v 0 c 18.467,34.344 30.195,75.738 -14.414,109.811 v 0 c -8.491,6.485 -6.634,4.893 -5.566,4.009 v 0 c -3.509,2.756 -26.151,18.462 -62.736,-2.854 v 0 c 0,0 -12.244,-3.869 -27.507,-26.01 v 0 c 0,0 -24.164,37.491 -60.21,37.491 v 0 c -15.705,0 -33.664,-7.116 -52.863,-27.549"
         transform="translate(-564.08501,-570.19042)"
         id="path70" /></clipPath><clipPath
       clipPathUnits="userSpaceOnUse"
       id="clipPath72"><path
         d="m 492.821,708.202 c 0,0 -32.237,-51.393 4.548,-95.802 v 0 C 538.915,562.239 606.435,508.731 606.435,508.731 v 0 c 0,0 96.083,79.284 109.682,104.573 v 0 c 18.467,34.344 30.195,75.738 -14.414,109.811 v 0 c -8.491,6.485 -6.634,4.893 -5.566,4.009 v 0 c -3.509,2.756 -26.151,18.462 -62.736,-2.854 v 0 c 0,0 -12.244,-3.869 -27.507,-26.01 v 0 c 0,0 -24.164,37.491 -60.21,37.491 v 0 c -15.705,0 -33.664,-7.116 -52.863,-27.549"
         transform="translate(-564.08842,-569.09471)"
         id="path72" /></clipPath><clipPath
       clipPathUnits="userSpaceOnUse"
       id="clipPath74"><path
         d="m 492.821,708.202 c 0,0 -32.237,-51.393 4.548,-95.802 v 0 C 538.915,562.239 606.435,508.731 606.435,508.731 v 0 c 0,0 96.083,79.284 109.682,104.573 v 0 c 18.467,34.344 30.195,75.738 -14.414,109.811 v 0 c -8.491,6.485 -6.634,4.893 -5.566,4.009 v 0 c -3.509,2.756 -26.151,18.462 -62.736,-2.854 v 0 c 0,0 -12.244,-3.869 -27.507,-26.01 v 0 c 0,0 -24.164,37.491 -60.21,37.491 v 0 c -15.705,0 -33.664,-7.116 -52.863,-27.549"
         transform="translate(-539.46871,-559.57522)"
         id="path74" /></clipPath><clipPath
       clipPathUnits="userSpaceOnUse"
       id="clipPath76"><path
         d="m 492.821,708.202 c 0,0 -32.237,-51.393 4.548,-95.802 v 0 C 538.915,562.239 606.435,508.731 606.435,508.731 v 0 c 0,0 96.083,79.284 109.682,104.573 v 0 c 18.467,34.344 30.195,75.738 -14.414,109.811 v 0 c -8.491,6.485 -6.634,4.893 -5.566,4.009 v 0 c -3.509,2.756 -26.151,18.462 -62.736,-2.854 v 0 c 0,0 -12.244,-3.869 -27.507,-26.01 v 0 c 0,0 -24.164,37.491 -60.21,37.491 v 0 c -15.705,0 -33.664,-7.116 -52.863,-27.549"
         transform="translate(-543.23632,-599.50492)"
         id="path76" /></clipPath><clipPath
       clipPathUnits="userSpaceOnUse"
       id="clipPath78"><path
         d="m 492.821,708.202 c 0,0 -32.237,-51.393 4.548,-95.802 v 0 C 538.915,562.239 606.435,508.731 606.435,508.731 v 0 c 0,0 96.083,79.284 109.682,104.573 v 0 c 18.467,34.344 30.195,75.738 -14.414,109.811 v 0 c -8.491,6.485 -6.634,4.893 -5.566,4.009 v 0 c -3.509,2.756 -26.151,18.462 -62.736,-2.854 v 0 c 0,0 -12.244,-3.869 -27.507,-26.01 v 0 c 0,0 -24.164,37.491 -60.21,37.491 v 0 c -15.705,0 -33.664,-7.116 -52.863,-27.549"
         transform="translate(-539.21681,-633.83302)"
         id="path78" /></clipPath><clipPath
       clipPathUnits="userSpaceOnUse"
       id="clipPath80"><path
         d="m 492.821,708.202 c 0,0 -32.237,-51.393 4.548,-95.802 v 0 C 538.915,562.239 606.435,508.731 606.435,508.731 v 0 c 0,0 96.083,79.284 109.682,104.573 v 0 c 18.467,34.344 30.195,75.738 -14.414,109.811 v 0 c -8.491,6.485 -6.634,4.893 -5.566,4.009 v 0 c -3.509,2.756 -26.151,18.462 -62.736,-2.854 v 0 c 0,0 -12.244,-3.869 -27.507,-26.01 v 0 c 0,0 -24.164,37.491 -60.21,37.491 v 0 c -15.705,0 -33.664,-7.116 -52.863,-27.549"
         transform="translate(-539.21681,-633.83302)"
         id="path80" /></clipPath><clipPath
       clipPathUnits="userSpaceOnUse"
       id="clipPath82"><path
         d="m 492.821,708.202 c 0,0 -32.237,-51.393 4.548,-95.802 v 0 C 538.915,562.239 606.435,508.731 606.435,508.731 v 0 c 0,0 96.083,79.284 109.682,104.573 v 0 c 18.467,34.344 30.195,75.738 -14.414,109.811 v 0 c -8.491,6.485 -6.634,4.893 -5.566,4.009 v 0 c -3.509,2.756 -26.151,18.462 -62.736,-2.854 v 0 c 0,0 -12.244,-3.869 -27.507,-26.01 v 0 c 0,0 -24.164,37.491 -60.21,37.491 v 0 c -15.705,0 -33.664,-7.116 -52.863,-27.549"
         transform="translate(-585.59182,-610.92682)"
         id="path82" /></clipPath><clipPath
       clipPathUnits="userSpaceOnUse"
       id="clipPath84"><path
         d="m 492.821,708.202 c 0,0 -32.237,-51.393 4.548,-95.802 v 0 C 538.915,562.239 606.435,508.731 606.435,508.731 v 0 c 0,0 96.083,79.284 109.682,104.573 v 0 c 18.467,34.344 30.195,75.738 -14.414,109.811 v 0 c -8.491,6.485 -6.634,4.893 -5.566,4.009 v 0 c -3.509,2.756 -26.151,18.462 -62.736,-2.854 v 0 c 0,0 -12.244,-3.869 -27.507,-26.01 v 0 c 0,0 -24.164,37.491 -60.21,37.491 v 0 c -15.705,0 -33.664,-7.116 -52.863,-27.549"
         transform="translate(-585.17381,-610.55182)"
         id="path84" /></clipPath><clipPath
       clipPathUnits="userSpaceOnUse"
       id="clipPath86"><path
         d="m 492.821,708.202 c 0,0 -32.237,-51.393 4.548,-95.802 v 0 C 538.915,562.239 606.435,508.731 606.435,508.731 v 0 c 0,0 96.083,79.284 109.682,104.573 v 0 c 18.467,34.344 30.195,75.738 -14.414,109.811 v 0 c -8.491,6.485 -6.634,4.893 -5.566,4.009 v 0 c -3.509,2.756 -26.151,18.462 -62.736,-2.854 v 0 c 0,0 -12.244,-3.869 -27.507,-26.01 v 0 c 0,0 -24.164,37.491 -60.21,37.491 v 0 c -15.705,0 -33.664,-7.116 -52.863,-27.549"
         transform="translate(-609.20902,-655.87792)"
         id="path86" /></clipPath><clipPath
       clipPathUnits="userSpaceOnUse"
       id="clipPath88"><path
         d="m 492.821,708.202 c 0,0 -32.237,-51.393 4.548,-95.802 v 0 C 538.915,562.239 606.435,508.731 606.435,508.731 v 0 c 0,0 96.083,79.284 109.682,104.573 v 0 c 18.467,34.344 30.195,75.738 -14.414,109.811 v 0 c -8.491,6.485 -6.634,4.893 -5.566,4.009 v 0 c -3.509,2.756 -26.151,18.462 -62.736,-2.854 v 0 c 0,0 -12.244,-3.869 -27.507,-26.01 v 0 c 0,0 -24.164,37.491 -60.21,37.491 v 0 c -15.705,0 -33.664,-7.116 -52.863,-27.549"
         transform="translate(-605.18752,-699.13961)"
         id="path88" /></clipPath><clipPath
       clipPathUnits="userSpaceOnUse"
       id="clipPath90"><path
         d="m 492.821,708.202 c 0,0 -32.237,-51.393 4.548,-95.802 v 0 C 538.915,562.239 606.435,508.731 606.435,508.731 v 0 c 0,0 96.083,79.284 109.682,104.573 v 0 c 18.467,34.344 30.195,75.738 -14.414,109.811 v 0 c -8.491,6.485 -6.634,4.893 -5.566,4.009 v 0 c -3.509,2.756 -26.151,18.462 -62.736,-2.854 v 0 c 0,0 -12.244,-3.869 -27.507,-26.01 v 0 c 0,0 -24.164,37.491 -60.21,37.491 v 0 c -15.705,0 -33.664,-7.116 -52.863,-27.549"
         transform="translate(-539.38571,-634.34282)"
         id="path90" /></clipPath><clipPath
       clipPathUnits="userSpaceOnUse"
       id="clipPath92"><path
         d="m 492.821,708.202 c 0,0 -32.237,-51.393 4.548,-95.802 v 0 C 538.915,562.239 606.435,508.731 606.435,508.731 v 0 c 0,0 96.083,79.284 109.682,104.573 v 0 c 18.467,34.344 30.195,75.738 -14.414,109.811 v 0 c -8.491,6.485 -6.634,4.893 -5.566,4.009 v 0 c -3.509,2.756 -26.151,18.462 -62.736,-2.854 v 0 c 0,0 -12.244,-3.869 -27.507,-26.01 v 0 c 0,0 -24.164,37.491 -60.21,37.491 v 0 c -15.705,0 -33.664,-7.116 -52.863,-27.549"
         transform="translate(-509.08402,-591.71782)"
         id="path92" /></clipPath><clipPath
       clipPathUnits="userSpaceOnUse"
       id="clipPath94"><path
         d="m 492.821,708.202 c 0,0 -32.237,-51.393 4.548,-95.802 v 0 C 538.915,562.239 606.435,508.731 606.435,508.731 v 0 c 0,0 96.083,79.284 109.682,104.573 v 0 c 18.467,34.344 30.195,75.738 -14.414,109.811 v 0 c -8.491,6.485 -6.634,4.893 -5.566,4.009 v 0 c -3.509,2.756 -26.151,18.462 -62.736,-2.854 v 0 c 0,0 -12.244,-3.869 -27.507,-26.01 v 0 c 0,0 -24.164,37.491 -60.21,37.491 v 0 c -15.705,0 -33.664,-7.116 -52.863,-27.549"
         transform="translate(-508.41211,-628.15142)"
         id="path94" /></clipPath><clipPath
       clipPathUnits="userSpaceOnUse"
       id="clipPath96"><path
         d="m 492.821,708.202 c 0,0 -32.237,-51.393 4.548,-95.802 v 0 C 538.915,562.239 606.435,508.731 606.435,508.731 v 0 c 0,0 96.083,79.284 109.682,104.573 v 0 c 18.467,34.344 30.195,75.738 -14.414,109.811 v 0 c -8.491,6.485 -6.634,4.893 -5.566,4.009 v 0 c -3.509,2.756 -26.151,18.462 -62.736,-2.854 v 0 c 0,0 -12.244,-3.869 -27.507,-26.01 v 0 c 0,0 -24.164,37.491 -60.21,37.491 v 0 c -15.705,0 -33.664,-7.116 -52.863,-27.549"
         transform="translate(-510.42191,-655.42822)"
         id="path96" /></clipPath><clipPath
       clipPathUnits="userSpaceOnUse"
       id="clipPath98"><path
         d="m 492.821,708.202 c 0,0 -32.237,-51.393 4.548,-95.802 v 0 C 538.915,562.239 606.435,508.731 606.435,508.731 v 0 c 0,0 96.083,79.284 109.682,104.573 v 0 c 18.467,34.344 30.195,75.738 -14.414,109.811 v 0 c -8.491,6.485 -6.634,4.893 -5.566,4.009 v 0 c -3.509,2.756 -26.151,18.462 -62.736,-2.854 v 0 c 0,0 -12.244,-3.869 -27.507,-26.01 v 0 c 0,0 -24.164,37.491 -60.21,37.491 v 0 c -15.705,0 -33.664,-7.116 -52.863,-27.549"
         transform="translate(-529.85992,-669.23291)"
         id="path98" /></clipPath><clipPath
       clipPathUnits="userSpaceOnUse"
       id="clipPath100"><path
         d="m 492.821,708.202 c 0,0 -32.237,-51.393 4.548,-95.802 v 0 C 538.915,562.239 606.435,508.731 606.435,508.731 v 0 c 0,0 96.083,79.284 109.682,104.573 v 0 c 18.467,34.344 30.195,75.738 -14.414,109.811 v 0 c -8.491,6.485 -6.634,4.893 -5.566,4.009 v 0 c -3.509,2.756 -26.151,18.462 -62.736,-2.854 v 0 c 0,0 -12.244,-3.869 -27.507,-26.01 v 0 c 0,0 -24.164,37.491 -60.21,37.491 v 0 c -15.705,0 -33.664,-7.116 -52.863,-27.549"
         transform="translate(-573.99412,-666.05812)"
         id="path100" /></clipPath><clipPath
       clipPathUnits="userSpaceOnUse"
       id="clipPath102"><path
         d="m 492.821,708.202 c 0,0 -32.237,-51.393 4.548,-95.802 v 0 C 538.915,562.239 606.435,508.731 606.435,508.731 v 0 c 0,0 96.083,79.284 109.682,104.573 v 0 c 18.467,34.344 30.195,75.738 -14.414,109.811 v 0 c -8.491,6.485 -6.634,4.893 -5.566,4.009 v 0 c -3.509,2.756 -26.151,18.462 -62.736,-2.854 v 0 c 0,0 -12.244,-3.869 -27.507,-26.01 v 0 c 0,0 -24.164,37.491 -60.21,37.491 v 0 c -15.705,0 -33.664,-7.116 -52.863,-27.549"
         transform="translate(-580.06642,-638.51272)"
         id="path102" /></clipPath><clipPath
       clipPathUnits="userSpaceOnUse"
       id="clipPath104"><path
         d="m 492.821,708.202 c 0,0 -32.237,-51.393 4.548,-95.802 v 0 C 538.915,562.239 606.435,508.731 606.435,508.731 v 0 c 0,0 96.083,79.284 109.682,104.573 v 0 c 18.467,34.344 30.195,75.738 -14.414,109.811 v 0 c -8.491,6.485 -6.634,4.893 -5.566,4.009 v 0 c -3.509,2.756 -26.151,18.462 -62.736,-2.854 v 0 c 0,0 -12.244,-3.869 -27.507,-26.01 v 0 c 0,0 -24.164,37.491 -60.21,37.491 v 0 c -15.705,0 -33.664,-7.116 -52.863,-27.549"
         transform="translate(-580.06642,-638.51272)"
         id="path104" /></clipPath><clipPath
       clipPathUnits="userSpaceOnUse"
       id="clipPath106"><path
         d="m 492.821,708.202 c 0,0 -32.237,-51.393 4.548,-95.802 v 0 C 538.915,562.239 606.435,508.731 606.435,508.731 v 0 c 0,0 96.083,79.284 109.682,104.573 v 0 c 18.467,34.344 30.195,75.738 -14.414,109.811 v 0 c -8.491,6.485 -6.634,4.893 -5.566,4.009 v 0 c -3.509,2.756 -26.151,18.462 -62.736,-2.854 v 0 c 0,0 -12.244,-3.869 -27.507,-26.01 v 0 c 0,0 -24.164,37.491 -60.21,37.491 v 0 c -15.705,0 -33.664,-7.116 -52.863,-27.549"
         transform="translate(-509.25001,-628.47562)"
         id="path106" /></clipPath><clipPath
       clipPathUnits="userSpaceOnUse"
       id="clipPath108"><path
         d="m 492.821,708.202 c 0,0 -32.237,-51.393 4.548,-95.802 v 0 C 538.915,562.239 606.435,508.731 606.435,508.731 v 0 c 0,0 96.083,79.284 109.682,104.573 v 0 c 18.467,34.344 30.195,75.738 -14.414,109.811 v 0 c -8.491,6.485 -6.634,4.893 -5.566,4.009 v 0 c -3.509,2.756 -26.151,18.462 -62.736,-2.854 v 0 c 0,0 -12.244,-3.869 -27.507,-26.01 v 0 c 0,0 -24.164,37.491 -60.21,37.491 v 0 c -15.705,0 -33.664,-7.116 -52.863,-27.549"
         transform="translate(-509.75201,-628.14161)"
         id="path108" /></clipPath><clipPath
       clipPathUnits="userSpaceOnUse"
       id="clipPath110"><path
         d="m 492.821,708.202 c 0,0 -32.237,-51.393 4.548,-95.802 v 0 C 538.915,562.239 606.435,508.731 606.435,508.731 v 0 c 0,0 96.083,79.284 109.682,104.573 v 0 c 18.467,34.344 30.195,75.738 -14.414,109.811 v 0 c -8.491,6.485 -6.634,4.893 -5.566,4.009 v 0 c -3.509,2.756 -26.151,18.462 -62.736,-2.854 v 0 c 0,0 -12.244,-3.869 -27.507,-26.01 v 0 c 0,0 -24.164,37.491 -60.21,37.491 v 0 c -15.705,0 -33.664,-7.116 -52.863,-27.549"
         transform="translate(-470.91311,-669.31492)"
         id="path110" /></clipPath><clipPath
       clipPathUnits="userSpaceOnUse"
       id="clipPath112"><path
         d="m 492.821,708.202 c 0,0 -32.237,-51.393 4.548,-95.802 v 0 C 538.915,562.239 606.435,508.731 606.435,508.731 v 0 c 0,0 96.083,79.284 109.682,104.573 v 0 c 18.467,34.344 30.195,75.738 -14.414,109.811 v 0 c -8.491,6.485 -6.634,4.893 -5.566,4.009 v 0 c -3.509,2.756 -26.151,18.462 -62.736,-2.854 v 0 c 0,0 -12.244,-3.869 -27.507,-26.01 v 0 c 0,0 -24.164,37.491 -60.21,37.491 v 0 c -15.705,0 -33.664,-7.116 -52.863,-27.549"
         transform="translate(-471.41411,-669.32572)"
         id="path112" /></clipPath><clipPath
       clipPathUnits="userSpaceOnUse"
       id="clipPath114"><path
         d="m 492.821,708.202 c 0,0 -32.237,-51.393 4.548,-95.802 v 0 C 538.915,562.239 606.435,508.731 606.435,508.731 v 0 c 0,0 96.083,79.284 109.682,104.573 v 0 c 18.467,34.344 30.195,75.738 -14.414,109.811 v 0 c -8.491,6.485 -6.634,4.893 -5.566,4.009 v 0 c -3.509,2.756 -26.151,18.462 -62.736,-2.854 v 0 c 0,0 -12.244,-3.869 -27.507,-26.01 v 0 c 0,0 -24.164,37.491 -60.21,37.491 v 0 c -15.705,0 -33.664,-7.116 -52.863,-27.549"
         transform="translate(-504.56351,-702.96632)"
         id="path114" /></clipPath><clipPath
       clipPathUnits="userSpaceOnUse"
       id="clipPath116"><path
         d="m 492.821,708.202 c 0,0 -32.237,-51.393 4.548,-95.802 v 0 C 538.915,562.239 606.435,508.731 606.435,508.731 v 0 c 0,0 96.083,79.284 109.682,104.573 v 0 c 18.467,34.344 30.195,75.738 -14.414,109.811 v 0 c -8.491,6.485 -6.634,4.893 -5.566,4.009 v 0 c -3.509,2.756 -26.151,18.462 -62.736,-2.854 v 0 c 0,0 -12.244,-3.869 -27.507,-26.01 v 0 c 0,0 -24.164,37.491 -60.21,37.491 v 0 c -15.705,0 -33.664,-7.116 -52.863,-27.549"
         transform="translate(-504.39451,-703.55222)"
         id="path116" /></clipPath><clipPath
       clipPathUnits="userSpaceOnUse"
       id="clipPath118"><path
         d="m 492.821,708.202 c 0,0 -32.237,-51.393 4.548,-95.802 v 0 C 538.915,562.239 606.435,508.731 606.435,508.731 v 0 c 0,0 96.083,79.284 109.682,104.573 v 0 c 18.467,34.344 30.195,75.738 -14.414,109.811 v 0 c -8.491,6.485 -6.634,4.893 -5.566,4.009 v 0 c -3.509,2.756 -26.151,18.462 -62.736,-2.854 v 0 c 0,0 -12.244,-3.869 -27.507,-26.01 v 0 c 0,0 -24.164,37.491 -60.21,37.491 v 0 c -15.705,0 -33.664,-7.116 -52.863,-27.549"
         transform="translate(-475.93551,-712.25732)"
         id="path118" /></clipPath><clipPath
       clipPathUnits="userSpaceOnUse"
       id="clipPath120"><path
         d="m 492.821,708.202 c 0,0 -32.237,-51.393 4.548,-95.802 v 0 C 538.915,562.239 606.435,508.731 606.435,508.731 v 0 c 0,0 96.083,79.284 109.682,104.573 v 0 c 18.467,34.344 30.195,75.738 -14.414,109.811 v 0 c -8.491,6.485 -6.634,4.893 -5.566,4.009 v 0 c -3.509,2.756 -26.151,18.462 -62.736,-2.854 v 0 c 0,0 -12.244,-3.869 -27.507,-26.01 v 0 c 0,0 -24.164,37.491 -60.21,37.491 v 0 c -15.705,0 -33.664,-7.116 -52.863,-27.549"
         transform="translate(-498.78711,-740.38232)"
         id="path120" /></clipPath><clipPath
       clipPathUnits="userSpaceOnUse"
       id="clipPath122"><path
         d="m 492.821,708.202 c 0,0 -32.237,-51.393 4.548,-95.802 v 0 C 538.915,562.239 606.435,508.731 606.435,508.731 v 0 c 0,0 96.083,79.284 109.682,104.573 v 0 c 18.467,34.344 30.195,75.738 -14.414,109.811 v 0 c -8.491,6.485 -6.634,4.893 -5.566,4.009 v 0 c -3.509,2.756 -26.151,18.462 -62.736,-2.854 v 0 c 0,0 -12.244,-3.869 -27.507,-26.01 v 0 c 0,0 -24.164,37.491 -60.21,37.491 v 0 c -15.705,0 -33.664,-7.116 -52.863,-27.549"
         transform="translate(-535.70311,-751.93512)"
         id="path122" /></clipPath><clipPath
       clipPathUnits="userSpaceOnUse"
       id="clipPath124"><path
         d="m 492.821,708.202 c 0,0 -32.237,-51.393 4.548,-95.802 v 0 C 538.915,562.239 606.435,508.731 606.435,508.731 v 0 c 0,0 96.083,79.284 109.682,104.573 v 0 c 18.467,34.344 30.195,75.738 -14.414,109.811 v 0 c -8.491,6.485 -6.634,4.893 -5.566,4.009 v 0 c -3.509,2.756 -26.151,18.462 -62.736,-2.854 v 0 c 0,0 -12.244,-3.869 -27.507,-26.01 v 0 c 0,0 -24.164,37.491 -60.21,37.491 v 0 c -15.705,0 -33.664,-7.116 -52.863,-27.549"
         transform="translate(-504.56351,-702.96632)"
         id="path124" /></clipPath><clipPath
       clipPathUnits="userSpaceOnUse"
       id="clipPath126"><path
         d="m 492.821,708.202 c 0,0 -32.237,-51.393 4.548,-95.802 v 0 C 538.915,562.239 606.435,508.731 606.435,508.731 v 0 c 0,0 96.083,79.284 109.682,104.573 v 0 c 18.467,34.344 30.195,75.738 -14.414,109.811 v 0 c -8.491,6.485 -6.634,4.893 -5.566,4.009 v 0 c -3.509,2.756 -26.151,18.462 -62.736,-2.854 v 0 c 0,0 -12.244,-3.869 -27.507,-26.01 v 0 c 0,0 -24.164,37.491 -60.21,37.491 v 0 c -15.705,0 -33.664,-7.116 -52.863,-27.549"
         transform="translate(-555.29002,-748.16752)"
         id="path126" /></clipPath><clipPath
       clipPathUnits="userSpaceOnUse"
       id="clipPath128"><path
         d="m 492.821,708.202 c 0,0 -32.237,-51.393 4.548,-95.802 v 0 C 538.915,562.239 606.435,508.731 606.435,508.731 v 0 c 0,0 96.083,79.284 109.682,104.573 v 0 c 18.467,34.344 30.195,75.738 -14.414,109.811 v 0 c -8.491,6.485 -6.634,4.893 -5.566,4.009 v 0 c -3.509,2.756 -26.151,18.462 -62.736,-2.854 v 0 c 0,0 -12.244,-3.869 -27.507,-26.01 v 0 c 0,0 -24.164,37.491 -60.21,37.491 v 0 c -15.705,0 -33.664,-7.116 -52.863,-27.549"
         transform="translate(-582.91312,-733.10112)"
         id="path128" /></clipPath><clipPath
       clipPathUnits="userSpaceOnUse"
       id="clipPath130"><path
         d="m 492.821,708.202 c 0,0 -32.237,-51.393 4.548,-95.802 v 0 C 538.915,562.239 606.435,508.731 606.435,508.731 v 0 c 0,0 96.083,79.284 109.682,104.573 v 0 c 18.467,34.344 30.195,75.738 -14.414,109.811 v 0 c -8.491,6.485 -6.634,4.893 -5.566,4.009 v 0 c -3.509,2.756 -26.151,18.462 -62.736,-2.854 v 0 c 0,0 -12.244,-3.869 -27.507,-26.01 v 0 c 0,0 -24.164,37.491 -60.21,37.491 v 0 c -15.705,0 -33.664,-7.116 -52.863,-27.549"
         transform="translate(-540.22271,-715.02002)"
         id="path130" /></clipPath><clipPath
       clipPathUnits="userSpaceOnUse"
       id="clipPath132"><path
         d="m 492.821,708.202 c 0,0 -32.237,-51.393 4.548,-95.802 v 0 C 538.915,562.239 606.435,508.731 606.435,508.731 v 0 c 0,0 96.083,79.284 109.682,104.573 v 0 c 18.467,34.344 30.195,75.738 -14.414,109.811 v 0 c -8.491,6.485 -6.634,4.893 -5.566,4.009 v 0 c -3.509,2.756 -26.151,18.462 -62.736,-2.854 v 0 c 0,0 -12.244,-3.869 -27.507,-26.01 v 0 c 0,0 -24.164,37.491 -60.21,37.491 v 0 c -15.705,0 -33.664,-7.116 -52.863,-27.549"
         transform="translate(-504.39451,-702.46442)"
         id="path132" /></clipPath><clipPath
       clipPathUnits="userSpaceOnUse"
       id="clipPath134"><path
         d="m 492.821,708.202 c 0,0 -32.237,-51.393 4.548,-95.802 v 0 C 538.915,562.239 606.435,508.731 606.435,508.731 v 0 c 0,0 96.083,79.284 109.682,104.573 v 0 c 18.467,34.344 30.195,75.738 -14.414,109.811 v 0 c -8.491,6.485 -6.634,4.893 -5.566,4.009 v 0 c -3.509,2.756 -26.151,18.462 -62.736,-2.854 v 0 c 0,0 -12.244,-3.869 -27.507,-26.01 v 0 c 0,0 -24.164,37.491 -60.21,37.491 v 0 c -15.705,0 -33.664,-7.116 -52.863,-27.549"
         transform="translate(-540.22271,-715.02002)"
         id="path134" /></clipPath><clipPath
       clipPathUnits="userSpaceOnUse"
       id="clipPath136"><path
         d="m 492.821,708.202 c 0,0 -32.237,-51.393 4.548,-95.802 v 0 C 538.915,562.239 606.435,508.731 606.435,508.731 v 0 c 0,0 96.083,79.284 109.682,104.573 v 0 c 18.467,34.344 30.195,75.738 -14.414,109.811 v 0 c -8.491,6.485 -6.634,4.893 -5.566,4.009 v 0 c -3.509,2.756 -26.151,18.462 -62.736,-2.854 v 0 c 0,0 -12.244,-3.869 -27.507,-26.01 v 0 c 0,0 -24.164,37.491 -60.21,37.491 v 0 c -15.705,0 -33.664,-7.116 -52.863,-27.549"
         transform="translate(-568.59961,-698.19482)"
         id="path136" /></clipPath><clipPath
       clipPathUnits="userSpaceOnUse"
       id="clipPath138"><path
         d="m 492.821,708.202 c 0,0 -32.237,-51.393 4.548,-95.802 v 0 C 538.915,562.239 606.435,508.731 606.435,508.731 v 0 c 0,0 96.083,79.284 109.682,104.573 v 0 c 18.467,34.344 30.195,75.738 -14.414,109.811 v 0 c -8.491,6.485 -6.634,4.893 -5.566,4.009 v 0 c -3.509,2.756 -26.151,18.462 -62.736,-2.854 v 0 c 0,0 -12.244,-3.869 -27.507,-26.01 v 0 c 0,0 -24.164,37.491 -60.21,37.491 v 0 c -15.705,0 -33.664,-7.116 -52.863,-27.549"
         transform="translate(-568.68161,-694.93312)"
         id="path138" /></clipPath><clipPath
       clipPathUnits="userSpaceOnUse"
       id="clipPath140"><path
         d="m 492.821,708.202 c 0,0 -32.237,-51.393 4.548,-95.802 v 0 C 538.915,562.239 606.435,508.731 606.435,508.731 v 0 c 0,0 96.083,79.284 109.682,104.573 v 0 c 18.467,34.344 30.195,75.738 -14.414,109.811 v 0 c -8.491,6.485 -6.634,4.893 -5.566,4.009 v 0 c -3.509,2.756 -26.151,18.462 -62.736,-2.854 v 0 c 0,0 -12.244,-3.869 -27.507,-26.01 v 0 c 0,0 -24.164,37.491 -60.21,37.491 v 0 c -15.705,0 -33.664,-7.116 -52.863,-27.549"
         transform="translate(-573.99412,-666.05812)"
         id="path140" /></clipPath><clipPath
       clipPathUnits="userSpaceOnUse"
       id="clipPath142"><path
         d="m 492.821,708.202 c 0,0 -32.237,-51.393 4.548,-95.802 v 0 C 538.915,562.239 606.435,508.731 606.435,508.731 v 0 c 0,0 96.083,79.284 109.682,104.573 v 0 c 18.467,34.344 30.195,75.738 -14.414,109.811 v 0 c -8.491,6.485 -6.634,4.893 -5.566,4.009 v 0 c -3.509,2.756 -26.151,18.462 -62.736,-2.854 v 0 c 0,0 -12.244,-3.869 -27.507,-26.01 v 0 c 0,0 -24.164,37.491 -60.21,37.491 v 0 c -15.705,0 -33.664,-7.116 -52.863,-27.549"
         transform="translate(-529.73242,-668.99372)"
         id="path142" /></clipPath><clipPath
       clipPathUnits="userSpaceOnUse"
       id="clipPath144"><path
         d="M 0,841.89 H 1190.55 V 0 H 0 Z"
         transform="translate(-486.83351,-323.55661)"
         id="path144" /></clipPath><clipPath
       clipPathUnits="userSpaceOnUse"
       id="clipPath146"><path
         d="M 0,841.89 H 1190.55 V 0 H 0 Z"
         transform="translate(-482.50001,-294.5566)"
         id="path146" /></clipPath><clipPath
       clipPathUnits="userSpaceOnUse"
       id="clipPath148"><path
         d="M 0,841.89 H 1190.55 V 0 H 0 Z"
         transform="translate(-484.41061,-275.22171)"
         id="path148" /></clipPath><clipPath
       clipPathUnits="userSpaceOnUse"
       id="clipPath150"><path
         d="M 0,841.89 H 1190.55 V 0 H 0 Z"
         transform="translate(-489.83351,-259.88961)"
         id="path150" /></clipPath><clipPath
       clipPathUnits="userSpaceOnUse"
       id="clipPath152"><path
         d="M 0,841.89 H 1190.55 V 0 H 0 Z"
         transform="translate(-499.07761,-247.5547)"
         id="path152" /></clipPath><clipPath
       clipPathUnits="userSpaceOnUse"
       id="clipPath154"><path
         d="M 0,841.89 H 1190.55 V 0 H 0 Z"
         transform="translate(-510.83351,-232.55661)"
         id="path154" /></clipPath><clipPath
       clipPathUnits="userSpaceOnUse"
       id="clipPath156"><path
         d="M 0,841.89 H 1190.55 V 0 H 0 Z"
         transform="translate(-524.07761,-220.2217)"
         id="path156" /></clipPath><clipPath
       clipPathUnits="userSpaceOnUse"
       id="clipPath158"><path
         d="M 0,841.89 H 1190.55 V 0 H 0 Z"
         transform="translate(-536.07761,-207.88771)"
         id="path158" /></clipPath><clipPath
       clipPathUnits="userSpaceOnUse"
       id="clipPath160"><path
         d="M 0,841.89 H 1190.55 V 0 H 0 Z"
         transform="translate(-548.83351,-195.8896)"
         id="path160" /></clipPath><clipPath
       clipPathUnits="userSpaceOnUse"
       id="clipPath162"><path
         d="M 0,841.89 H 1190.55 V 0 H 0 Z"
         transform="translate(-557.17481,-182.62791)"
         id="path162" /></clipPath><clipPath
       clipPathUnits="userSpaceOnUse"
       id="clipPath164"><path
         d="M 0,841.89 H 1190.55 V 0 H 0 Z"
         transform="translate(-576.16702,-171.8896)"
         id="path164" /></clipPath><clipPath
       clipPathUnits="userSpaceOnUse"
       id="clipPath166"><path
         d="M 0,841.89 H 1190.55 V 0 H 0 Z"
         transform="translate(-590.50001,-157.55661)"
         id="path166" /></clipPath><clipPath
       clipPathUnits="userSpaceOnUse"
       id="clipPath168"><path
         d="M 0,841.89 H 1190.55 V 0 H 0 Z"
         transform="translate(-600.16702,-151.22271)"
         id="path168" /></clipPath><clipPath
       clipPathUnits="userSpaceOnUse"
       id="clipPath170"><path
         d="M 0,841.89 H 1190.55 V 0 H 0 Z"
         transform="translate(-609.16702,-142.88961)"
         id="path170" /></clipPath><clipPath
       clipPathUnits="userSpaceOnUse"
       id="clipPath172"><path
         d="M 0,841.89 H 1190.55 V 0 H 0 Z"
         transform="translate(-618.50002,-151.22271)"
         id="path172" /></clipPath><clipPath
       clipPathUnits="userSpaceOnUse"
       id="clipPath174"><path
         d="M 0,841.89 H 1190.55 V 0 H 0 Z"
         transform="translate(-630.16702,-160.88961)"
         id="path174" /></clipPath><clipPath
       clipPathUnits="userSpaceOnUse"
       id="clipPath176"><path
         d="M 0,841.89 H 1190.55 V 0 H 0 Z"
         transform="translate(-640.74512,-169.8916)"
         id="path176" /></clipPath><clipPath
       clipPathUnits="userSpaceOnUse"
       id="clipPath178"><path
         d="M 0,841.89 H 1190.55 V 0 H 0 Z"
         transform="translate(-651.15821,-178.6279)"
         id="path178" /></clipPath><clipPath
       clipPathUnits="userSpaceOnUse"
       id="clipPath180"><path
         d="M 0,841.89 H 1190.55 V 0 H 0 Z"
         transform="translate(-662.10161,-186.4551)"
         id="path180" /></clipPath><mask
       maskUnits="userSpaceOnUse"
       x="0"
       y="0"
       width="1"
       height="1"
       id="mask180" /><clipPath
       clipPathUnits="userSpaceOnUse"
       id="clipPath181"><path
         d="m 95.325,472.352 h 324.96 v 299.76 H 95.325 Z"
         transform="matrix(0.0030773,0,0,-0.003336,-0.2933444,2.57577)"
         id="path181" /></clipPath><clipPath
       clipPathUnits="userSpaceOnUse"
       id="clipPath183"><path
         d="M 0,841.89 H 1190.55 V 0 H 0 Z"
         transform="translate(-864.01562,-723.50832)"
         id="path183" /></clipPath><clipPath
       clipPathUnits="userSpaceOnUse"
       id="clipPath185"><path
         d="M 0,841.89 H 1190.55 V 0 H 0 Z"
         transform="translate(-962.8633,-337.16111)"
         id="path185" /></clipPath><clipPath
       clipPathUnits="userSpaceOnUse"
       id="clipPath187"><path
         d="M 0,841.89 H 1190.55 V 0 H 0 Z"
         transform="translate(-972.03325,-344.08891)"
         id="path187" /></clipPath><clipPath
       clipPathUnits="userSpaceOnUse"
       id="clipPath189"><path
         d="M 0,841.89 H 1190.55 V 0 H 0 Z"
         transform="translate(-966.58015,-346.65141)"
         id="path189" /></clipPath><clipPath
       clipPathUnits="userSpaceOnUse"
       id="clipPath191"><path
         d="M 0,841.89 H 1190.55 V 0 H 0 Z"
         transform="translate(-971.33012,-334.82031)"
         id="path191" /></clipPath><clipPath
       clipPathUnits="userSpaceOnUse"
       id="clipPath193"><path
         d="M 0,841.89 H 1190.55 V 0 H 0 Z"
         transform="translate(-255.33541,-139.5322)"
         id="path193" /></clipPath><clipPath
       clipPathUnits="userSpaceOnUse"
       id="clipPath195"><path
         d="M 0,841.89 H 1190.55 V 0 H 0 Z"
         transform="translate(-226.582,-171.81741)"
         id="path195" /></clipPath><clipPath
       clipPathUnits="userSpaceOnUse"
       id="clipPath197"><path
         d="M 0,841.89 H 1190.55 V 0 H 0 Z"
         transform="translate(-200.41551,-196.7559)"
         id="path197" /></clipPath><clipPath
       clipPathUnits="userSpaceOnUse"
       id="clipPath199"><path
         d="M 0,841.89 H 1190.55 V 0 H 0 Z"
         transform="translate(-175.08891,-220.7959)"
         id="path199" /></clipPath><clipPath
       clipPathUnits="userSpaceOnUse"
       id="clipPath201"><path
         d="M 0,841.89 H 1190.55 V 0 H 0 Z"
         transform="translate(-152.3335,-248.0557)"
         id="path201" /></clipPath><clipPath
       clipPathUnits="userSpaceOnUse"
       id="clipPath203"><path
         d="M 0,841.89 H 1190.55 V 0 H 0 Z"
         transform="translate(-142.3135,-307.11821)"
         id="path203" /></clipPath><clipPath
       clipPathUnits="userSpaceOnUse"
       id="clipPath205"><path
         d="M 0,841.89 H 1190.55 V 0 H 0 Z"
         transform="translate(-157.25001,-349.38871)"
         id="path205" /></clipPath><clipPath
       clipPathUnits="userSpaceOnUse"
       id="clipPath207"><path
         d="M 0,841.89 H 1190.55 V 0 H 0 Z"
         transform="translate(-200.6602,-367.22461)"
         id="path207" /></clipPath><clipPath
       clipPathUnits="userSpaceOnUse"
       id="clipPath209"><path
         d="M 0,841.89 H 1190.55 V 0 H 0 Z"
         transform="translate(-238.37701,-352.69341)"
         id="path209" /></clipPath><clipPath
       clipPathUnits="userSpaceOnUse"
       id="clipPath211"><path
         d="M 0,841.89 H 1190.55 V 0 H 0 Z"
         transform="translate(-268.2061,-349.35941)"
         id="path211" /></clipPath><clipPath
       clipPathUnits="userSpaceOnUse"
       id="clipPath213"><path
         d="M 0,841.89 H 1190.55 V 0 H 0 Z"
         transform="translate(-318.54591,-364.37011)"
         id="path213" /></clipPath><clipPath
       clipPathUnits="userSpaceOnUse"
       id="clipPath215"><path
         d="M 0,841.89 H 1190.55 V 0 H 0 Z"
         transform="translate(-359.13231,-343.26761)"
         id="path215" /></clipPath><clipPath
       clipPathUnits="userSpaceOnUse"
       id="clipPath217"><path
         d="M 0,841.89 H 1190.55 V 0 H 0 Z"
         transform="translate(-374.60401,-326.25591)"
         id="path217" /></clipPath><clipPath
       clipPathUnits="userSpaceOnUse"
       id="clipPath219"><path
         d="M 0,841.89 H 1190.55 V 0 H 0 Z"
         transform="translate(-375.50591,-275.88871)"
         id="path219" /></clipPath><clipPath
       clipPathUnits="userSpaceOnUse"
       id="clipPath221"><path
         d="M 0,841.89 H 1190.55 V 0 H 0 Z"
         transform="translate(-355.72221,-242.78421)"
         id="path221" /></clipPath><clipPath
       clipPathUnits="userSpaceOnUse"
       id="clipPath223"><path
         d="M 0,841.89 H 1190.55 V 0 H 0 Z"
         transform="translate(-331.38331,-217.4707)"
         id="path223" /></clipPath><clipPath
       clipPathUnits="userSpaceOnUse"
       id="clipPath225"><path
         d="M 0,841.89 H 1190.55 V 0 H 0 Z"
         transform="translate(-305.75681,-194.001)"
         id="path225" /></clipPath><clipPath
       clipPathUnits="userSpaceOnUse"
       id="clipPath227"><path
         d="M 0,841.89 H 1190.55 V 0 H 0 Z"
         transform="translate(-276.67431,-171.7285)"
         id="path227" /></clipPath><filter
       style="color-interpolation-filters:sRGB"
       inkscape:label="Lighting"
       id="filter227"
       x="0.032683454"
       y="0.068257071"
       width="0.93478924"
       height="0.92864275"><feComponentTransfer
         in="blur"
         result="component"
         id="feComponentTransfer227"><feFuncR
           type="gamma"
           amplitude="1"
           exponent="1"
           offset="0.25"
           id="feFuncR227" /><feFuncG
           type="gamma"
           amplitude="1"
           exponent="1"
           offset="0.25"
           id="feFuncG227" /><feFuncB
           type="gamma"
           amplitude="1"
           exponent="1"
           offset="0.25"
           id="feFuncB227" /></feComponentTransfer></filter></defs><g
     id="layer-MC0"
     inkscape:groupmode="layer"
     inkscape:label="linie_prisma"
     style="display:inline"
     transform="translate(102.1728,110.45708)" /><g
     id="layer-MC1"
     inkscape:groupmode="layer"
     inkscape:label="brush"
     style="display:inline"
     transform="translate(102.1728,110.45708)"><rect
       style="fill:#ffffff;stroke-width:0.755907;stroke-linecap:round;stroke-linejoin:round;stroke-miterlimit:1"
       id="rect1"
       width="400"
       height="30"
       x="-102.1728"
       y="-110.45708"
       ry="5"
       rx="5" /></g><g
     id="layer-MC2"
     inkscape:groupmode="layer"
     inkscape:label="linie"
     style="display:inline"
     transform="translate(102.1728,110.45708)" /><g
     id="layer-MC3"
     inkscape:groupmode="layer"
     inkscape:label="mehrfach"
     style="display:inline"
     transform="translate(102.1728,110.45708)" /><g
     id="layer-MC4"
     inkscape:groupmode="layer"
     inkscape:label="gestrichelt"
     style="display:inline"
     transform="translate(102.1728,110.45708)" /></svg>
