<?xml version="1.0" encoding="UTF-8" standalone="no"?>
<svg
   enable-background="new -742.6563 672.1074 2089.1938 608.6925"
   version="1.1"
   viewBox="-742.6563 672.1074 2089.1938 608.6925"
   id="svg1"
   sodipodi:docname="KeyHeart.svg"
   inkscape:version="1.3.2 (091e20e, 2023-11-25, custom)"
   inkscape:export-filename="KeyHeart.png"
   inkscape:export-xdpi="96"
   inkscape:export-ydpi="96"
   xmlns:inkscape="http://www.inkscape.org/namespaces/inkscape"
   xmlns:sodipodi="http://sodipodi.sourceforge.net/DTD/sodipodi-0.dtd"
   xmlns="http://www.w3.org/2000/svg"
   xmlns:svg="http://www.w3.org/2000/svg">
  <defs
     id="defs1" />
  <sodipodi:namedview
     id="namedview1"
     pagecolor="#505050"
     bordercolor="#ffffff"
     borderopacity="1"
     inkscape:showpageshadow="0"
     inkscape:pageopacity="0"
     inkscape:pagecheckerboard="1"
     inkscape:deskcolor="#505050"
     inkscape:zoom="0.3455668"
     inkscape:cx="930.35558"
     inkscape:cy="209.80025"
     inkscape:window-width="1920"
     inkscape:window-height="1009"
     inkscape:window-x="-8"
     inkscape:window-y="-8"
     inkscape:window-maximized="1"
     inkscape:current-layer="svg1" />
  <path
     d="m-697.24 929.19c2.9284-6.6304 7.2693-12.534 12.282-17.73 17.72-19.105 38.85-33.087 65.444-35.326 9.0131-0.7589 16.987-1.177 17.516-11.561-0.0443-9.7307 1.0624-19.411 1.2982-29.136 0.5309-12.981 4.3096-25.526 8.8461-37.615 5.6837-14.638 14.307-28.146 25.268-39.392 9.857-10.328 20.636-19.931 32.883-27.339 12.296-7.4487 24.883-14.832 38.871-18.609 74.927-20.593 156.52 5.0599 220.57 44.932 11.603 7.2051 23.129 14.552 34.225 22.515 9.3232 6.6235 17.697 14.453 26.795 21.371 13.892 10.667 26.166 23.221 39.685 34.325 7.9627 6.6064 15.179 14.046 21.932 21.873 7.9049 9.1078 16.43 17.645 24.463 26.621 10.173 11.36 22.611 20.601 36.248 27.392 14.763 7.1717 31.56 8.5983 47.745 8.1649 14.342-0.6022 28.706-1.0849 43.005-2.4165 8.6314-0.5859 17.494-1.7156 25.984 0.6013 9.0621 2.4173 15.956 9.6719 25.191 11.676 10.532 2.3725 21.392 1.1089 32.076 1.2985 15.76-0.1561 32.542 1.0406 46.956-6.5538 7.7567-3.8116 14.514-11.167 23.794-10.633 12.999 1.0207 20.965 13.158 32.939 16.836 7.8625 2.4476 16.208 2.1466 24.352 2.2591 0 0 1071.3 0.5156 1077.3 2.6592 10.817 3.8782 16.946 15.808 19.105 26.481 2.2257 10.984 2.8611 23.135-2.4268 33.376-2.7271 5.5269-8.1418 9.4388-14.164 10.561-11.077 2.0474-22.412 0.6786-33.528 2.1665-8.1334 1.0475-16.68 3.7021-22.121 10.195-5.2958 6.2203-6.4432 14.671-6.7805 22.538-0.5834 24.083-2.9487 48.067-3.9426 72.117-1.8156 23.974-1.9891 48.04-3.7946 72.014-1.0511 14.16-1.3514 28.357-2.3822 42.526-0.5256 5.0096-1.3704 10.655-5.4222 14.134-4.5566 3.7876-10.835 3.9536-16.462 4.1385-13.31 0.1149-26.607 0.4094-39.897 0.5238-8.8979 0.0767-22.769 0.0979-27.766-8.595-5.8896-10.244-6.7321-22.799-6.2583-34.347 0.8085-19.704 0.973-39.284 2.1803-58.904 0.5283-6.6199 1.4222-14.096 6.6736-18.795 4.9241-4.3964 11.233-3.8477 17.112-6.1039 3.8967-1.4956 7.551-3.9813 9.6736-7.5752 3.8253-6.4769 0.7078-15.107-5.4172-18.916-4.4382-2.7599-9.7606-3.6388-14.941-4.3335-14.55-1.9517-29.253-2.892-43.933-2.4806-7.4589 0.209-14.909 0.7661-22.311 1.7201-6.9495 0.8956-15.604 0.4564-20.679 6.0922-2.9844 3.314-4.4634 7.7827-4.8015 12.23-0.3751 4.9353-0.5447 13.138 4.2893 16.056 2.5466 1.5371 5.735 1.27 8.6862 1.6431 13.736 1.7362 19.506 17.28 19.662 29.391 0.3837 22.717-0.5728 45.436-1.5195 68.135-0.7192 6.5731-0.6381 13.743-4.4022 19.457-3.663 5.1825-10.531 5.9686-16.358 6.167-12.667 0.264-25.338 0.2979-37.998 0.4617-8.9437-0.1489-18.642 0.6149-26.624-4.141-6.4734-3.7012-9.7299-11.157-10.162-18.361-0.8393-12.388-0.079-24.822 0.1614-37.228 0.6631-25.285 0.1755-50.61 1.7891-75.871 0.5989-24.354 0.5773-48.727 0.736-73.093-0.0158-8.0408-0.4095-17.145-6.4133-23.235-6.3597-6.4435-15.955-7.2816-24.512-7.5972l-752.09-0.0703c-7.4308 0.0155-15.125 0.4455-21.941 3.681-7.5358 3.2777-13.442 10.048-21.843 11.28-6.5139 1.0101-12.681-2.3062-17.598-6.2637-5.7492-4.6436-12.041-8.8579-19.265-10.786-13.786-3.8077-28.249-3.8635-42.435-3.4739-11.237 0.2698-22.799 1.4352-33.026 6.4286-7.0663 3.2397-12.632 8.8546-19.421 12.54-7.4316 4.1161-16.321 3.056-24.316 1.6009-11.569-2.195-23.284-3.5674-35.034-4.1091-18.612-0.5658-37.972 0.1713-55.182 8.043-15.563 7.0538-27.92 19.214-40.003 30.97-13.195 12.855-25.474 26.634-39.066 39.075-13.935 13.457-28.215 26.59-43.261 38.806-15.563 12.374-32.13 23.386-48.502 34.644-17.701 12.425-38.07 22.136-57.459 31.594-19.091 9.3126-39.361 16.18-60.15 20.521-47.005 9.8137-97.33 7.5334-141.29-12.097-10.359-4.6057-19.036-12.05-27.924-18.931-6.5466-5.0702-12.663-10.728-17.882-17.16-8.4746-10.268-16.232-21.299-21.193-33.727-7.202-16.051-9.4601-33.685-11.373-51.005-0.8834-9.6664 2.4056-19.823-1.3818-29.111-0.7045-1.7277-28.927-2.3713-32.24-3.1467-12.106-2.8329-23.68-7.9723-33.84-15.148-27.906-19.71-43.56-53.73-40.796-87.736 0.8315-8.8252 4.2115-17.144 7.7664-25.175m9.2159 23.368c-2.1764 15.039-0.8486 30.889 5.7958 44.718 8.8787 18.48 23.832 34.85 43.306 42.912 8.9226 3.6941 21.186 7.162 30.717 4.5631 11.066-3.0178 20.561-12.816 27.496-21.427 6.8248-8.4728 12.626-17.752 19.755-25.97 6.3304-7.2975 14.181-14.936 13.864-24.592-0.1983-6.0305-3.6536-11.404-6.9924-16.43-6.8332-10.286-13.666-20.571-20.5-30.857-6.3636-9.5788-12.967-19.405-22.48-25.866-25.3-17.186-62.662 4.9134-78.74 25.698-6.3793 7.7989-10.831 17.225-12.222 27.25m159.22 169.38c3.54 7.9127 8.6293 15.157 15.391 21.226 20.758 18.629 52.14 26.67 79.486 26.574 44.808-0.1561 86.919-21.128 125.41-41.858 45.324-24.409 84.87-58.172 120.7-94.832 12.146-12.217 23.661-25.033 34.75-38.202 8.509-10.856 15.235-20.521 10.188-34.844-3.0625-8.6916-9.1607-15.942-15.411-22.713-13.694-14.835-27.377-29.867-40.588-45.184-9.8658-11.515-21.806-20.915-32.94-31.118-9.4664-8.5914-20.108-15.723-29.878-23.929-30.13-25.048-67.448-46.5-104.26-59.796-35.167-12.7-78.926-19.74-114.73-5.6456-9.9349 3.9384-20.141 7.8212-28.568 14.594-14.583 11.778-25.39 28.673-28.496 47.278-5.8448 41.751 20.177 84.271 53.787 107.34 6.3602 4.3654 13.136 8.1849 18.938 13.269 3.9162 3.4319 9.8117 9.2438 10.611 14.706 0.969 6.6207-3.9651 10.095-8.9012 14.16-28.849 22.326-56.404 46.651-67.777 82.82-5.7774 18.375-5.4403 38.861 2.2963 56.154z"
     id="path1"
     style="fill:#ffffff" />
</svg>
